<svg width="34" height="34" viewBox="0 0 34 34" fill="none" xmlns="http://www.w3.org/2000/svg">
<path d="M16.5066 13.0051H21.7587M16.5066 7.75292H21.7587M6.00219 19.1327H21.7588M21.7588 25.2602H6.00219M27.0109 9.50364H28.7617C30.6955 9.50364 32.2631 11.0713 32.2631 13.0051V28.7617C32.2631 30.6955 30.6955 32.2631 28.7617 32.2631H4.25146C2.31766 32.2631 0.75 30.6955 0.75 28.7617V4.25146C0.75 2.31766 2.31766 0.75 4.25146 0.75H23.5095C25.4433 0.75 27.0109 2.31766 27.0109 4.25146V32.2631M6.50219 13.0051H10.7544C11.0305 13.0051 11.2544 12.7812 11.2544 12.5051V8.25292C11.2544 7.97677 11.0305 7.75292 10.7544 7.75292H6.50219C6.22605 7.75292 6.00219 7.97677 6.00219 8.25292V12.5051C6.00219 12.7812 6.22605 13.0051 6.50219 13.0051Z" stroke="url(#paint0_linear_6855_11337)" stroke-width="1.5" stroke-linecap="round" stroke-linejoin="round"/>
<defs>
<linearGradient id="paint0_linear_6855_11337" x1="32.2631" y1="6.53322" x2="0.75" y2="26.4799" gradientUnits="userSpaceOnUse">
<stop stop-color="#FF21B2"/>
<stop offset="1" stop-color="#FF21B2" stop-opacity="0"/>
</linearGradient>
</defs>
</svg>
