<svg width="241" height="151" viewBox="0 0 241 151" fill="none" xmlns="http://www.w3.org/2000/svg">
<path opacity="0.3" fill-rule="evenodd" clip-rule="evenodd" d="M15.3361 -209.277L15.3361 -224H15.9496L15.9496 -209.277L65.6386 -209.277V-224H66.2521V-209.277L115.941 -209.277V-224H116.555V-209.277L166.244 -209.277V-224H166.857V-209.277L216.546 -209.277V-224H217.16V-209.277L266.849 -209.277V-224H267.462V-209.277L317.151 -209.277V-224H317.765V-209.277L367.454 -209.277V-224H368.067V-209.277L417.756 -209.277V-224H418.37V-209.277L468.059 -209.277V-224H468.672V-209.277L518.361 -209.277V-224H518.975V-209.277L568.664 -209.277V-224H569.277V-209.277L584 -209.277V-208.664L569.277 -208.664V-158.975H584V-158.361H569.277V-108.672H584V-108.059H569.277V-58.3698H584V-57.7563H569.277V-8.06728H584V-7.45383H569.277V42.2353H584V42.8487H569.277L569.277 92.5378H584V93.1512H569.277V142.84H584V143.454H569.277V193.143H584V193.756H569.277V243.445H584V244.059H569.277V293.748H584V294.361H569.277V344.05H584V344.664H569.277V360H568.664V344.664H518.975V360H518.361V344.664H468.672V360H468.059V344.664H418.37V360H417.756V344.664H368.067V360H367.454V344.664H317.765V360H317.151V344.664H267.462V360H266.849V344.664H217.16V360H216.546V344.664H166.857V360H166.244V344.664H116.555V360H115.941V344.664H66.2521V360H65.6387V344.664H15.9496L15.9496 360H15.3362L15.3362 344.664H3.74614e-05L3.74221e-05 344.05H15.3362L15.3362 294.361H3.74614e-05L3.74221e-05 293.748H15.3362L15.3362 244.059H3.74614e-05L3.74221e-05 243.445H15.3362L15.3362 193.756H0V193.143H15.3362L15.3362 143.454H0V142.84H15.3362L15.3361 93.1513H0V92.5378H15.3361L15.3361 42.8488H0V42.2353H15.3361L15.3361 -7.45377H0V-8.06721H15.3361L15.3361 -57.7563H0V-58.3697H15.3361L15.3361 -108.059H0V-108.672H15.3361L15.3361 -158.361H0V-158.975H15.3361L15.3361 -208.664L0 -208.664V-209.277L15.3361 -209.277ZM15.9496 -208.664L15.9496 -158.975L65.6387 -158.975L65.6386 -208.664L15.9496 -208.664ZM66.2521 -208.664V-158.975L115.941 -158.975V-208.664L66.2521 -208.664ZM116.555 -208.664V-158.975H166.244V-208.664L116.555 -208.664ZM166.857 -208.664V-158.975L216.546 -158.975V-208.664L166.857 -208.664ZM217.16 -208.664V-158.975H266.849V-208.664L217.16 -208.664ZM267.462 -208.664V-158.975L317.151 -158.975V-208.664L267.462 -208.664ZM317.765 -208.664V-158.975L367.454 -158.975V-208.664L317.765 -208.664ZM368.067 -208.664V-158.975H417.756V-208.664L368.067 -208.664ZM418.37 -208.664V-158.975L468.059 -158.975V-208.664L418.37 -208.664ZM468.672 -208.664V-158.975H518.361V-208.664L468.672 -208.664ZM518.975 -208.664V-158.975L568.664 -158.975V-208.664L518.975 -208.664ZM568.664 -158.361L518.975 -158.361V-108.672L568.664 -108.672V-158.361ZM568.664 -108.059L518.975 -108.059V-58.3698H568.664V-108.059ZM568.664 -57.7563H518.975V-8.06728H568.664V-57.7563ZM568.664 -7.45383H518.975V42.2353H568.664V-7.45383ZM568.664 42.8487H518.975L518.975 92.5378H568.664L568.664 42.8487ZM568.664 93.1512H518.975V142.84H568.664V93.1512ZM568.664 143.454H518.975V193.143H568.664V143.454ZM568.664 193.756H518.975V243.445H568.664V193.756ZM568.664 244.059H518.975V293.748H568.664V244.059ZM568.664 294.361H518.975V344.05H568.664V294.361ZM518.361 344.05V294.361H468.672V344.05H518.361ZM468.059 344.05V294.361H418.37V344.05H468.059ZM417.756 344.05V294.361H368.067V344.05H417.756ZM367.454 344.05V294.361H317.765V344.05H367.454ZM317.151 344.05V294.361L267.462 294.361V344.05H317.151ZM266.849 344.05V294.361H217.16V344.05H266.849ZM216.546 344.05V294.361H166.857V344.05H216.546ZM166.244 344.05V294.361H116.555V344.05H166.244ZM115.941 344.05V294.361H66.2521L66.2521 344.05H115.941ZM65.6387 344.05V294.361H15.9496L15.9496 344.05H65.6387ZM15.9496 293.748H65.6387V244.059H15.9496L15.9496 293.748ZM15.9496 243.445H65.6387V193.756H15.9496L15.9496 243.445ZM15.9496 193.143H65.6387L65.6387 143.454H15.9496L15.9496 193.143ZM15.9496 142.84H65.6387V93.1513H15.9496L15.9496 142.84ZM15.9496 92.5378H65.6387V42.8488H15.9496L15.9496 92.5378ZM15.9496 42.2353H65.6387V-7.45377H15.9496L15.9496 42.2353ZM15.9496 -8.06721H65.6387L65.6387 -57.7563H15.9496L15.9496 -8.06721ZM15.9496 -58.3697H65.6387V-108.059L15.9496 -108.059L15.9496 -58.3697ZM15.9496 -108.672L65.6387 -108.672V-158.361H15.9496L15.9496 -108.672ZM66.2521 -158.361V-108.672H115.941L115.941 -158.361L66.2521 -158.361ZM116.555 -158.361L116.555 -108.672H166.244V-158.361L116.555 -158.361ZM166.857 -158.361V-108.672L216.546 -108.672V-158.361H166.857ZM217.16 -158.361V-108.672H266.849V-158.361L217.16 -158.361ZM267.462 -158.361V-108.672L317.151 -108.672V-158.361L267.462 -158.361ZM317.765 -158.361V-108.672H367.454V-158.361H317.765ZM368.067 -158.361V-108.672L417.756 -108.672V-158.361L368.067 -158.361ZM418.37 -158.361V-108.672H468.059V-158.361H418.37ZM468.672 -158.361V-108.672H518.361V-158.361L468.672 -158.361ZM518.361 -108.059H468.672V-58.3698L518.361 -58.3698V-108.059ZM518.361 -57.7563L468.672 -57.7563V-8.06726L518.361 -8.06728V-57.7563ZM518.361 -7.45383L468.672 -7.45381V42.2353H518.361V-7.45383ZM518.361 42.8487L468.672 42.8487L468.672 92.5378H518.361V42.8487ZM518.361 93.1512H468.672V142.84H518.361V93.1512ZM518.361 143.454H468.672V193.143H518.361V143.454ZM518.361 193.756H468.672V243.445H518.361V193.756ZM518.361 244.059H468.672V293.748H518.361V244.059ZM468.059 293.748V244.059H418.37V293.748H468.059ZM417.756 293.748V244.059H368.067V293.748H417.756ZM367.454 293.748V244.059H317.765V293.748H367.454ZM317.151 293.748V244.059L267.462 244.059V293.748L317.151 293.748ZM266.849 293.748V244.059H217.16V293.748H266.849ZM216.546 293.748V244.059H166.857V293.748H216.546ZM166.244 293.748V244.059H116.555L116.555 293.748H166.244ZM115.941 293.748L115.941 244.059H66.2521V293.748H115.941ZM66.2521 243.445H115.941V193.756H66.2521V243.445ZM66.2521 193.143H115.941V143.454H66.2521V193.143ZM66.2521 142.84H115.941V93.1513H66.2521V142.84ZM66.2521 92.5378H115.941L115.941 42.8487L66.2521 42.8488L66.2521 92.5378ZM66.2521 42.2353H115.941V-7.4538L66.2521 -7.45377V42.2353ZM66.2521 -8.06721L115.941 -8.06723V-57.7563L66.2521 -57.7563L66.2521 -8.06721ZM66.2521 -58.3697L115.941 -58.3698V-108.059H66.2521V-58.3697ZM116.555 -108.059V-58.3698H166.244V-108.059H116.555ZM166.857 -108.059V-58.3698H216.546V-108.059L166.857 -108.059ZM217.16 -108.059V-58.3698H266.849V-108.059H217.16ZM267.462 -108.059V-58.3698L317.151 -58.3698V-108.059L267.462 -108.059ZM317.765 -108.059V-58.3698H367.454V-108.059H317.765ZM368.067 -108.059V-58.3698H417.756V-108.059L368.067 -108.059ZM418.37 -108.059V-58.3698H468.059V-108.059H418.37ZM468.059 -57.7563H418.37V-8.06726H468.059V-57.7563ZM468.059 -7.45381H418.37V42.2353H468.059V-7.45381ZM468.059 42.8487H418.37L418.37 92.5378H468.059L468.059 42.8487ZM468.059 93.1512H418.37V142.84H468.059V93.1512ZM468.059 143.454H418.37V193.143H468.059V143.454ZM468.059 193.756H418.37V243.445H468.059V193.756ZM417.756 243.445V193.756H368.067V243.445H417.756ZM367.454 243.445V193.756H317.765V243.445H367.454ZM317.151 243.445V193.756L267.462 193.756V243.445L317.151 243.445ZM266.849 243.445V193.756H217.16V243.445H266.849ZM216.546 243.445V193.756H166.857V243.445H216.546ZM166.244 243.445V193.756H116.555V243.445H166.244ZM116.555 193.143H166.244V143.454H116.555V193.143ZM116.555 142.84H166.244V93.1513H116.555V142.84ZM116.555 92.5378H166.244L166.244 42.8487H116.555L116.555 92.5378ZM116.555 42.2353H166.244V-7.4538H116.555V42.2353ZM116.555 -8.06723H166.244V-57.7563H116.555V-8.06723ZM166.857 -57.7563V-8.06723H216.546V-57.7563H166.857ZM217.16 -57.7563V-8.06723H266.849V-57.7563H217.16ZM267.462 -57.7563V-8.06723L317.151 -8.06726V-57.7563L267.462 -57.7563ZM317.765 -57.7563V-8.06726H367.454V-57.7563H317.765ZM368.067 -57.7563V-8.06726H417.756V-57.7563H368.067ZM417.756 -7.45381H368.067V42.2353H417.756V-7.45381ZM417.756 42.8487H368.067L368.067 92.5378H417.756L417.756 42.8487ZM417.756 93.1512H368.067V142.84H417.756V93.1512ZM417.756 143.454H368.067V193.143H417.756V143.454ZM367.454 193.143V143.454H317.765V193.143H367.454ZM317.151 193.143V143.454L267.462 143.454V193.143L317.151 193.143ZM266.849 193.143V143.454H217.16V193.143H266.849ZM216.546 193.143V143.454H166.857V193.143H216.546ZM166.857 142.84H216.546V93.1513H166.857V142.84ZM166.857 92.5378H216.546L216.546 42.8487H166.857L166.857 92.5378ZM166.857 42.2353H216.546V-7.4538H166.857V42.2353ZM217.16 -7.4538V42.2353H266.849V-7.4538H217.16ZM267.462 -7.4538V42.2353L317.151 42.2353V-7.45381L267.462 -7.4538ZM317.765 -7.45381V42.2353H367.454V-7.45381H317.765ZM367.454 42.8487H317.765L317.765 92.5378H367.454L367.454 42.8487ZM367.454 93.1512H317.765V142.84H367.454V93.1512ZM317.151 142.84V93.1512L267.462 93.1513V142.84L317.151 142.84ZM266.849 142.84V93.1513H217.16V142.84H266.849ZM217.16 92.5378H266.849L266.849 42.8487H217.16L217.16 92.5378ZM267.462 42.8487L267.462 92.5378L317.151 92.5378L317.151 42.8487H267.462Z" fill="url(#paint0_radial_6622_10678)" fill-opacity="0.5"/>
<defs>
<radialGradient id="paint0_radial_6622_10678" cx="0" cy="0" r="1" gradientUnits="userSpaceOnUse" gradientTransform="translate(292 68) rotate(180) scale(292)">
<stop stop-color="white"/>
<stop offset="1" stop-color="white" stop-opacity="0"/>
</radialGradient>
</defs>
</svg>
