<svg width="20" height="20" viewBox="0 0 20 20" fill="none" xmlns="http://www.w3.org/2000/svg">
<path d="M11.6673 1.6665H5.00065C4.55862 1.6665 4.1347 1.8421 3.82214 2.15466C3.50958 2.46722 3.33398 2.89114 3.33398 3.33317V16.6665C3.33398 17.1085 3.50958 17.5325 3.82214 17.845C4.1347 18.1576 4.55862 18.3332 5.00065 18.3332H15.0007C15.4427 18.3332 15.8666 18.1576 16.1792 17.845C16.4917 17.5325 16.6673 17.1085 16.6673 16.6665V6.6665M11.6673 1.6665L16.6673 6.6665M11.6673 1.6665L11.6673 6.6665H16.6673M13.334 10.8332H6.66732M13.334 14.1665H6.66732M8.33398 7.49984H6.66732" stroke="white" stroke-linecap="round" stroke-linejoin="round"/>
</svg>
