<svg width="236" height="49" viewBox="0 0 236 49" fill="none" xmlns="http://www.w3.org/2000/svg">
<path d="M49.1771 25.6384C49.1716 25.6425 49.1669 25.6472 49.1614 25.6513L43.9371 21.6322C44.0468 21.3587 44.1094 21.0693 44.1208 20.7759L48.4395 19.7882C48.5126 19.9261 48.5977 20.0599 48.6984 20.1865C49.577 21.2904 51.1823 21.4716 52.2839 20.5913C53.3856 19.711 53.5664 18.1025 52.6879 16.9986C51.8093 15.8947 50.2041 15.7135 49.1024 16.5938C48.5256 17.0547 48.2039 17.7156 48.1519 18.3988L43.7804 19.3986C43.7332 19.3171 43.682 19.2369 43.6248 19.1593C43.5115 19.0056 43.3833 18.8698 43.2452 18.7494L46.1978 12.8851C46.8936 13.04 47.6497 12.9059 48.268 12.4481C49.4013 11.6091 49.6413 10.0083 48.804 8.87272C47.9667 7.73712 46.3691 7.49668 45.2358 8.33568C44.5803 8.82096 44.2259 9.5612 44.2037 10.3188L37.8108 11.9057C37.7602 11.8162 37.7056 11.7281 37.6431 11.6433C37.5352 11.497 37.4143 11.3661 37.2837 11.2499L39.2142 7.23297C39.9078 7.3533 40.6472 7.18989 41.2407 6.71557C42.3424 5.83524 42.5233 4.22672 41.6447 3.12285C40.7662 2.01899 39.1609 1.83773 38.0593 2.71807C36.9576 3.59836 36.7768 5.20688 37.6553 6.31079C37.7432 6.42123 37.8401 6.51979 37.9413 6.61165L36.0047 10.6412C35.7306 10.5961 35.4499 10.5965 35.1732 10.6423L32.4283 4.65063C33.4571 3.79023 33.6529 2.26642 32.8462 1.17231C32.0089 0.036703 30.4114 -0.20378 29.278 0.63527C28.1447 1.47428 27.9048 3.07504 28.7421 4.21061C28.8701 4.38428 29.0176 4.53435 29.1768 4.6655L26.4369 10.6464C26.1631 10.5985 25.8825 10.5944 25.6054 10.6373L23.6633 6.59665C24.6419 5.69646 24.7738 4.17938 23.9329 3.12285C23.0544 2.01895 21.4491 1.83773 20.3475 2.71807C19.2458 3.59836 19.0649 5.20693 19.9435 6.31079C20.5499 7.07276 21.5026 7.39463 22.3969 7.23169L24.322 11.237C24.1 11.4306 23.9186 11.6552 23.7798 11.9004L17.3837 10.3126C17.3677 9.77957 17.1885 9.247 16.8311 8.7979C15.9526 7.694 14.3473 7.51278 13.2457 8.39308C12.144 9.27342 11.9631 10.8819 12.8417 11.9858C13.4747 12.7811 14.4845 13.0946 15.4118 12.88L18.3602 18.7358C18.1445 18.92 17.9583 19.1411 17.8118 19.394L13.4388 18.3939C13.4009 17.9011 13.2206 17.4141 12.8899 16.9985C12.0114 15.8946 10.4061 15.7134 9.30446 16.5937C8.20278 17.4741 8.02193 19.0826 8.90049 20.1864C9.77901 21.2903 11.3843 21.4716 12.4859 20.5912C12.7707 20.3637 12.9926 20.087 13.1519 19.7834L17.468 20.7705C17.4789 21.0747 17.5419 21.3716 17.6549 21.6475L12.4378 25.6611C11.338 24.8229 9.76659 25.0123 8.90049 26.1005C8.02193 27.2044 8.20282 28.813 9.30446 29.6933C10.4061 30.5735 12.0114 30.3923 12.8899 29.2884C13.0176 29.128 13.1202 28.9562 13.2036 28.7782L19.6015 30.1175C19.6094 30.422 19.671 30.719 19.7812 30.996L16.2842 33.7904C15.3827 33.1673 14.1462 33.1768 13.2457 33.8964C12.144 34.7767 11.9632 36.3852 12.8417 37.4891C13.7202 38.593 15.3255 38.7742 16.4271 37.8939C17.3454 37.1602 17.6212 35.9213 17.1797 34.8896L20.6503 32.1162C20.8726 32.2784 21.1233 32.4088 21.4008 32.4943C21.4265 32.5022 21.4523 32.5068 21.478 32.5139L21.3571 39.0811C21.0289 39.1578 20.7104 39.3006 20.4221 39.514C19.2888 40.353 19.0489 41.9538 19.8862 43.0894C20.7235 44.225 22.321 44.4654 23.4543 43.6264C24.4586 42.8829 24.7596 41.5419 24.2328 40.4558L29.2727 36.2739C29.5237 36.4608 29.8042 36.5953 30.098 36.6787V41.1358C29.7814 41.2256 29.4768 41.3783 29.2034 41.5968C28.1017 42.4772 27.9209 44.0857 28.7994 45.1896C29.678 46.2935 31.2832 46.4747 32.3849 45.5944C33.4865 44.7141 33.6674 43.1055 32.7888 42.0016C32.449 41.5746 32 41.2875 31.514 41.1446V36.6718C31.7928 36.5896 32.0629 36.461 32.3102 36.2779C32.3162 36.2734 32.3213 36.2683 32.3273 36.2639L37.3623 40.4417C36.9554 41.2718 37.0117 42.2942 37.598 43.0893C38.4353 44.2249 40.0328 44.4654 41.1661 43.6264C42.2994 42.7874 42.5394 41.1866 41.7021 40.051C41.3327 39.55 40.8152 39.2239 40.255 39.0872L40.1338 32.5078C40.4204 32.4264 40.6979 32.2957 40.9518 32.1083L44.4134 34.8744C44.0491 35.7145 44.1475 36.7231 44.7572 37.4891C45.6357 38.593 47.241 38.7742 48.3426 37.8939C49.4443 37.0136 49.6252 35.405 48.7466 34.3012C47.9088 33.2485 46.4112 33.0372 45.3186 33.7831L41.8119 30.9808C41.9188 30.7063 41.9776 30.4162 41.9861 30.1226L48.385 28.783C48.4551 28.9318 48.5399 29.0762 48.6411 29.2136C49.4785 30.3492 51.076 30.5896 52.2093 29.7506C53.3426 28.9116 53.5826 27.3108 52.7452 26.1752C51.9079 25.0396 50.3104 24.7994 49.1771 25.6384ZM16.5426 12.2883C16.7781 12.0758 16.9662 11.829 17.1039 11.5601L23.4486 13.1352C23.4425 13.6725 23.6018 14.2161 23.945 14.6816C24.7824 15.8172 26.3799 16.0577 27.5132 15.2186C28.6465 14.3796 28.8865 12.7788 28.0491 11.6432C27.9168 11.4637 27.7638 11.3093 27.5983 11.1753L30.3341 5.20335C30.6439 5.26023 30.963 5.25951 31.2759 5.19939L34.0073 11.1617C32.9344 12.0138 32.7191 13.5697 33.539 14.6815C34.3763 15.8171 35.9738 16.0576 37.1071 15.2185C37.7899 14.7131 38.1457 13.9311 38.1397 13.141L44.4882 11.565C44.5496 11.6836 44.618 11.8 44.6998 11.9109C44.8081 12.0578 44.9295 12.189 45.0605 12.3055L42.1026 18.1803C41.4134 18.0339 40.6678 18.1697 40.0566 18.6222C38.9233 19.4612 38.6833 21.0619 39.5207 22.1975C40.358 23.3331 41.9555 23.5735 43.0888 22.7345C43.1204 22.7111 43.1486 22.6851 43.1788 22.6606L48.3656 26.6506C48.2418 26.9284 48.1685 27.2251 48.1486 27.5267L41.701 28.8765C41.6397 28.7582 41.5715 28.6422 41.4899 28.5315C40.6526 27.3959 39.0551 27.1555 37.9218 27.9945C36.7885 28.8335 36.5485 30.4343 37.3859 31.5699C37.7609 32.0785 38.2887 32.4059 38.8587 32.5389L38.9796 39.1056C38.7056 39.1803 38.4406 39.3023 38.1952 39.4734L33.1223 35.2641C33.4842 34.4502 33.4123 33.4704 32.8462 32.7027C32.0088 31.5671 30.4113 31.3266 29.278 32.1656C28.2914 32.896 27.9826 34.2036 28.4715 35.2791L23.4071 39.4815C23.169 39.3134 22.9066 39.1903 22.6322 39.1127L22.7534 32.5322C23.5973 32.3254 24.3152 31.6945 24.589 30.8018C25.003 29.4522 24.2467 28.0218 22.8998 27.607C21.7033 27.2385 20.445 27.7967 19.8883 28.8718L13.4376 27.5214C13.4176 27.2269 13.3484 26.9366 13.2289 26.6641L18.4195 22.6711C18.664 22.8679 18.9478 23.0241 19.2659 23.1221C20.6128 23.5369 22.0402 22.7791 22.4542 21.4295C22.8682 20.0798 22.1119 18.6495 20.765 18.2347C20.3419 18.1044 19.9108 18.0901 19.5057 18.1732L16.5426 12.2883Z" fill="#CACACA"/>
<path d="M90.6568 18.7262C90.0854 17.3764 89.284 16.2057 88.2537 15.2135C87.2226 14.2217 86.0034 13.4549 84.5949 12.9127C83.1868 12.3709 81.6557 12.0996 80.0025 12.0996C78.3286 12.0996 76.788 12.3757 75.3794 12.928C73.9713 13.4802 72.7463 14.2525 71.7057 15.244C70.6646 16.2364 69.8582 17.4021 69.2868 18.7414C68.7154 20.0812 68.4297 21.5486 68.4297 23.1437C68.4297 24.7189 68.7154 26.1765 69.2868 27.5155C69.8582 28.8553 70.6646 30.0262 71.7057 31.0282C72.7463 32.0306 73.9759 32.8074 75.3948 33.3596C76.8133 33.9118 78.3494 34.188 80.0025 34.188C81.6557 34.188 83.1868 33.9168 84.5949 33.375C85.6766 32.959 86.6443 32.4043 87.5032 31.7167V33.8812H91.5138V23.1689C91.5138 23.1604 91.5143 23.1522 91.5143 23.1437C91.5143 21.5486 91.2282 20.076 90.6568 18.7262ZM86.937 26.1811C86.5591 27.1015 86.0338 27.8991 85.3602 28.574C84.6867 29.249 83.8956 29.7703 82.9874 30.1386C82.0792 30.5069 81.0843 30.6908 80.0026 30.6908C78.9208 30.6908 77.9155 30.5069 76.987 30.1386C76.058 29.7703 75.257 29.244 74.5835 28.5587C73.9099 27.8738 73.3788 27.0707 72.9914 26.1503C72.6035 25.2299 72.4096 24.2281 72.4096 23.1437C72.4096 22.0394 72.6035 21.0322 72.9914 20.122C73.3788 19.2122 73.9099 18.4146 74.5835 17.729C75.257 17.0441 76.0581 16.5173 76.987 16.1491C77.9155 15.781 78.9204 15.5969 80.0026 15.5969C81.0847 15.5969 82.0793 15.781 82.9874 16.1491C83.8956 16.5174 84.6917 17.0389 85.3756 17.7139C86.0591 18.3888 86.5848 19.1865 86.9523 20.1066C87.3199 21.0271 87.5034 22.0394 87.5034 23.1437L87.5032 23.1473C87.5028 24.2504 87.3141 25.2616 86.937 26.1811Z" fill="#D8008D"/>
<path d="M100.564 12.4062H96.584V33.8812H100.564V12.4062Z" fill="#D8008D"/>
<path d="M111.8 17.7139C112.484 17.0389 113.29 16.5174 114.219 16.1491C115.147 15.781 116.173 15.5969 117.296 15.5969C118.398 15.5969 119.428 15.8069 120.388 16.2259C121.347 16.6453 122.225 17.2742 123.021 18.1127L125.593 15.6891C124.592 14.503 123.368 13.6082 121.919 13.0046C120.469 12.4017 118.867 12.0996 117.112 12.0996C115.459 12.0996 113.938 12.3709 112.55 12.9127C111.162 13.4549 109.948 14.2269 108.907 15.2289C107.866 16.2311 107.059 17.397 106.488 18.7262C105.917 20.0558 105.631 21.5284 105.631 23.1437C105.631 24.759 105.917 26.2322 106.488 27.5617C107.059 28.8911 107.861 30.057 108.891 31.059C109.922 32.0614 111.131 32.8333 112.52 33.375C113.907 33.9168 115.428 34.1881 117.082 34.1881C118.857 34.1881 120.469 33.8814 121.919 33.2676C123.368 32.6543 124.592 31.7543 125.593 30.568L123.021 28.1446C122.225 29.0035 121.347 29.643 120.388 30.062C119.428 30.4815 118.398 30.6908 117.296 30.6908C116.173 30.6908 115.147 30.5069 114.219 30.1386C113.29 29.7703 112.484 29.249 111.8 28.574C111.116 27.8991 110.58 27.1014 110.193 26.1811C109.805 25.2606 109.611 24.2483 109.611 23.1437C109.611 22.0392 109.805 21.027 110.193 20.1066C110.58 19.1864 111.116 18.3888 111.8 17.7139Z" fill="#D8008D"/>
<path d="M148.998 15.2135C147.967 14.2217 146.748 13.4549 145.339 12.9127C143.931 12.3709 142.4 12.0996 140.747 12.0996C139.073 12.0996 137.532 12.3757 136.124 12.928C134.715 13.4802 133.491 14.2525 132.45 15.244C131.409 16.2364 130.602 17.4021 130.031 18.7414C129.459 20.0812 129.174 21.5486 129.174 23.1437C129.174 24.7189 129.46 26.1765 130.031 27.5155C130.602 28.8553 131.409 30.0262 132.45 31.0282C133.491 32.0306 134.72 32.8074 136.139 33.3596C137.557 33.9118 139.094 34.188 140.747 34.188C142.4 34.188 143.931 33.9168 145.339 33.375C146.748 32.8332 147.967 32.0614 148.998 31.059C150.028 30.057 150.83 28.8861 151.401 27.5463C151.972 26.2068 152.258 24.7393 152.258 23.1437C152.258 21.5482 151.972 20.076 151.401 18.7262C150.83 17.3764 150.028 16.2057 148.998 15.2135ZM147.681 26.1811C147.304 27.1015 146.778 27.8991 146.105 28.574C145.431 29.249 144.64 29.7703 143.732 30.1386C142.823 30.5069 141.828 30.6908 140.747 30.6908C139.665 30.6908 138.66 30.5069 137.731 30.1386C136.802 29.7703 136.001 29.244 135.328 28.5587C134.654 27.8738 134.123 27.0707 133.736 26.1503C133.348 25.2299 133.154 24.2281 133.154 23.1437C133.154 22.0394 133.348 21.0322 133.736 20.122C134.123 19.2122 134.654 18.4146 135.328 17.729C136.001 17.0441 136.802 16.5173 137.731 16.1491C138.66 15.781 139.665 15.5969 140.747 15.5969C141.829 15.5969 142.823 15.781 143.732 16.1491C144.64 16.5174 145.436 17.0389 146.12 17.7139C146.804 18.3888 147.329 19.1865 147.696 20.1066C148.064 21.0271 148.248 22.0394 148.248 23.1437C148.248 24.2481 148.059 25.2607 147.681 26.1811Z" fill="#D8008D"/>
<path d="M172.371 26.9722L160.553 12.4062H157.277V33.8812H161.227V19.3191L173.014 33.8812H176.29V12.4062H172.371V26.9722Z" fill="#D8008D"/>
<path d="M186.722 12.4062H182.742V33.8812H186.722V12.4062Z" fill="#D8008D"/>
<path d="M211.956 30.6906C212.818 29.7714 213.512 28.7286 214.017 27.5463C214.588 26.2068 214.874 24.7393 214.874 23.1437C214.874 21.5482 214.588 20.076 214.017 18.7262C213.445 17.3764 212.643 16.2057 211.613 15.2135C210.582 14.2217 209.363 13.4549 207.954 12.9127C206.546 12.3709 205.015 12.0996 203.362 12.0996C201.688 12.0996 200.147 12.3757 198.739 12.928C197.331 13.4802 196.106 14.2525 195.065 15.244C194.024 16.2364 193.218 17.4021 192.646 18.7414C192.075 20.0812 191.789 21.5486 191.789 23.1437C191.789 24.7189 192.075 26.1765 192.646 27.5155C193.218 28.8553 194.024 30.0262 195.065 31.0282C196.106 32.0306 197.335 32.8074 198.754 33.3596C200.173 33.9118 201.709 34.188 203.362 34.188C203.94 34.188 204.501 34.1529 205.049 34.0867V34.1878H218.26V30.6905L211.956 30.6906ZM200.346 30.1386C199.417 29.7703 198.616 29.244 197.943 28.5587C197.269 27.8738 196.739 27.0707 196.351 26.1503C195.963 25.2299 195.769 24.2281 195.769 23.1437C195.769 22.0394 195.963 21.0322 196.351 20.122C196.738 19.2122 197.269 18.4146 197.943 17.729C198.616 17.0441 199.417 16.5173 200.346 16.1491C201.275 15.781 202.28 15.5969 203.362 15.5969C204.444 15.5969 205.439 15.781 206.347 16.1491C207.255 16.5174 208.051 17.0389 208.735 17.7139C209.419 18.3888 209.945 19.1865 210.312 20.1066C210.679 21.0271 210.863 22.0394 210.863 23.1437C210.863 24.2481 210.674 25.2607 210.297 26.1811C209.919 27.1015 209.394 27.8991 208.72 28.574C208.046 29.249 207.255 29.7703 206.347 30.1386C205.439 30.5069 204.444 30.6908 203.362 30.6908C202.28 30.6908 201.275 30.5069 200.346 30.1386Z" fill="#D8008D"/>
</svg>
