<svg width="1920" height="266" viewBox="0 0 1920 266" fill="none" xmlns="http://www.w3.org/2000/svg">
<path d="M284.828 84.7633C277.506 67.497 267.236 52.5224 254.034 39.8309C240.821 27.1449 225.198 17.3356 207.148 10.4002C189.103 3.47017 169.484 0 148.299 0C126.849 0 107.107 3.5312 89.0572 10.5969C71.0127 17.6599 55.3146 27.5385 41.9798 40.2217C28.6395 52.9159 18.3055 67.8267 10.9831 84.9574C3.66071 102.096 0 120.866 0 141.269C0 161.418 3.66125 180.063 10.9831 197.19C18.3055 214.329 28.639 229.307 41.9798 242.123C55.3152 254.945 71.0716 264.882 89.2544 271.945C107.432 279.008 127.115 282.542 148.299 282.542C169.484 282.542 189.103 279.072 207.148 272.142C221.01 266.82 233.41 259.726 244.416 250.929V278.617H295.809V141.592C295.81 141.483 295.816 141.378 295.816 141.27C295.816 120.866 292.15 102.03 284.828 84.7633ZM237.16 180.121C232.318 191.895 225.587 202.098 216.956 210.731C208.324 219.364 198.187 226.033 186.549 230.744C174.911 235.455 162.162 237.807 148.3 237.807C134.438 237.807 121.555 235.455 109.657 230.744C97.7527 226.033 87.4878 219.301 78.8571 210.534C70.2259 201.774 63.4201 191.501 58.4555 179.728C53.4854 167.954 51.0001 155.141 51.0001 141.27C51.0001 127.144 53.4854 114.261 58.4555 102.618C63.4201 90.9799 70.2264 80.777 78.8571 72.0081C87.4884 63.2474 97.7532 56.5087 109.657 51.7986C121.555 47.0907 134.433 44.7356 148.3 44.7356C162.167 44.7356 174.912 47.0907 186.549 51.7986C198.187 56.5092 208.388 63.1809 217.152 71.8141C225.911 80.4473 232.648 90.6507 237.357 102.421C242.067 114.195 244.419 127.144 244.419 141.27L244.416 141.315C244.411 155.425 241.993 168.361 237.16 180.121Z" fill="white" fill-opacity="0.03"/>
<path d="M411.785 3.92578H360.785V278.62H411.785V3.92578Z" fill="white" fill-opacity="0.03"/>
<path d="M555.762 71.8141C564.526 63.1809 574.855 56.5093 586.759 51.7986C598.657 47.0907 611.801 44.7356 626.189 44.7356C640.312 44.7356 653.514 47.421 665.812 52.7808C678.104 58.146 689.353 66.1905 699.554 76.9155L732.509 45.9145C719.691 30.7427 703.998 19.2966 685.432 11.5763C666.855 3.86423 646.325 0 623.832 0C602.648 0 583.162 3.47017 565.378 10.4002C547.589 17.3356 532.03 27.2115 518.689 40.0277C505.348 52.8472 495.014 67.7607 487.697 84.7633C480.37 101.771 476.709 120.608 476.709 141.27C476.709 161.932 480.37 180.776 487.697 197.782C495.014 214.787 505.284 229.701 518.492 242.517C531.699 255.339 547.195 265.213 564.984 272.142C582.768 279.072 602.254 282.542 623.444 282.542C646.198 282.542 666.855 278.62 685.432 270.769C703.998 262.923 719.691 251.411 732.509 236.237L699.554 205.238C689.353 216.224 678.104 224.405 665.812 229.764C653.514 235.13 640.312 237.807 626.189 237.807C611.801 237.807 598.657 235.455 586.759 230.744C574.855 226.033 564.526 219.364 555.762 210.731C546.998 202.098 540.133 191.895 535.168 180.121C530.193 168.348 527.713 155.399 527.713 141.27C527.713 127.141 530.193 114.194 535.168 102.421C540.133 90.6502 546.998 80.4473 555.762 71.8141Z" fill="white" fill-opacity="0.03"/>
<path d="M1032.44 39.8309C1019.23 27.1449 1003.6 17.3356 985.554 10.4002C967.51 3.47017 947.895 0 926.706 0C905.256 0 885.513 3.5312 867.463 10.5969C849.419 17.6599 833.726 27.5385 820.386 40.2217C807.046 52.9159 796.712 67.8267 789.389 84.9574C782.067 102.096 778.406 120.866 778.406 141.269C778.406 161.418 782.067 180.063 789.389 197.19C796.712 214.329 807.045 229.307 820.386 242.123C833.726 254.945 849.478 264.882 867.661 271.945C885.838 279.008 905.521 282.542 926.706 282.542C947.89 282.542 967.51 279.072 985.554 272.142C1003.6 265.212 1019.23 255.339 1032.44 242.517C1045.64 229.7 1055.91 214.723 1063.24 197.585C1070.56 180.451 1074.22 161.679 1074.22 141.27C1074.22 120.861 1070.56 102.03 1063.24 84.7633C1055.91 67.497 1045.64 52.5224 1032.44 39.8309ZM1015.57 180.121C1010.73 191.895 1004 202.098 995.367 210.731C986.735 219.364 976.593 226.033 964.961 230.744C953.318 235.455 940.567 237.807 926.706 237.807C912.844 237.807 899.961 235.455 888.062 230.744C876.158 226.033 865.893 219.301 857.263 210.534C848.631 201.774 841.831 191.501 836.866 179.728C831.89 167.954 829.411 155.141 829.411 141.27C829.411 127.144 831.89 114.261 836.866 102.618C841.831 90.9799 848.631 80.777 857.263 72.0081C865.894 63.2474 876.159 56.5087 888.062 51.7986C899.961 47.0907 912.838 44.7356 926.706 44.7356C940.573 44.7356 953.318 47.0907 964.961 51.7986C976.593 56.5092 986.794 63.1809 995.558 71.8141C1004.32 80.4473 1011.06 90.6507 1015.76 102.421C1020.47 114.195 1022.83 127.144 1022.83 141.27C1022.83 155.396 1020.41 168.348 1015.57 180.121Z" fill="white" fill-opacity="0.03"/>
<path d="M1331.94 190.245L1180.5 3.92578H1138.52V278.62H1189.13V92.3506L1340.18 278.62H1382.16V3.92578H1331.94V190.245Z" fill="white" fill-opacity="0.03"/>
<path d="M1515.87 3.92578H1464.86V278.62H1515.87V3.92578Z" fill="white" fill-opacity="0.03"/>
<path d="M1839.22 237.805C1850.26 226.047 1859.16 212.708 1865.62 197.585C1872.94 180.451 1876.61 161.679 1876.61 141.27C1876.61 120.861 1872.94 102.03 1865.62 84.7633C1858.3 67.497 1848.03 52.5224 1834.82 39.8309C1821.61 27.1449 1805.99 17.3356 1787.94 10.4002C1769.89 3.47017 1750.28 0 1729.09 0C1707.64 0 1687.9 3.5312 1669.85 10.5969C1651.8 17.6599 1636.11 27.5385 1622.77 40.2217C1609.43 52.9159 1599.1 67.8267 1591.77 84.9574C1584.45 102.096 1580.79 120.866 1580.79 141.269C1580.79 161.418 1584.45 180.063 1591.77 197.19C1599.1 214.329 1609.43 229.307 1622.77 242.123C1636.11 254.945 1651.86 264.882 1670.05 271.945C1688.22 279.008 1707.91 282.542 1729.09 282.542C1736.49 282.542 1743.69 282.092 1750.71 281.245V282.539H1920V237.804L1839.22 237.805ZM1690.45 230.744C1678.54 226.033 1668.28 219.301 1659.65 210.534C1651.02 201.774 1644.22 191.501 1639.25 179.728C1634.27 167.954 1631.79 155.141 1631.79 141.27C1631.79 127.144 1634.27 114.261 1639.25 102.618C1644.21 90.9799 1651.02 80.777 1659.65 72.0081C1668.28 63.2474 1678.54 56.5087 1690.45 51.7986C1702.35 47.0907 1715.22 44.7356 1729.09 44.7356C1742.96 44.7356 1755.7 47.0907 1767.34 51.7986C1778.98 56.5092 1789.18 63.1809 1797.94 71.8141C1806.71 80.4473 1813.44 90.6507 1818.15 102.421C1822.86 114.195 1825.21 127.144 1825.21 141.27C1825.21 155.396 1822.79 168.348 1817.96 180.121C1813.11 191.895 1806.38 202.098 1797.75 210.731C1789.12 219.364 1778.98 226.033 1767.34 230.744C1755.7 235.455 1742.95 237.807 1729.09 237.807C1715.23 237.807 1702.35 235.455 1690.45 230.744Z" fill="white" fill-opacity="0.03"/>
</svg>
