<svg width="358" height="291" viewBox="0 0 358 291" fill="none" xmlns="http://www.w3.org/2000/svg">
<path opacity="0.3" fill-rule="evenodd" clip-rule="evenodd" d="M15.3361 -220.277L15.3361 -235H15.9496L15.9496 -220.277L65.6386 -220.277V-235H66.2521V-220.277L115.941 -220.277V-235H116.555V-220.277L166.244 -220.277V-235H166.857V-220.277L216.546 -220.277V-235H217.16V-220.277L266.849 -220.277V-235H267.462V-220.277L317.151 -220.277V-235H317.765V-220.277L367.454 -220.277V-235H368.067V-220.277L417.756 -220.277V-235H418.37V-220.277L468.059 -220.277V-235H468.672V-220.277L518.361 -220.277V-235H518.975V-220.277L568.664 -220.277V-235H569.277V-220.277L584 -220.277V-219.664L569.277 -219.664V-169.975H584V-169.361H569.277V-119.672H584V-119.059H569.277V-69.3698H584V-68.7563H569.277V-19.0673H584V-18.4538H569.277V31.2353H584V31.8487H569.277L569.277 81.5378H584V82.1512H569.277V131.84H584V132.454H569.277V182.143H584V182.756H569.277V232.445H584V233.059H569.277V282.748H584V283.361H569.277V333.05H584V333.664H569.277V349H568.664V333.664H518.975V349H518.361V333.664H468.672V349H468.059V333.664H418.37V349H417.756V333.664H368.067V349H367.454V333.664H317.765V349H317.151V333.664H267.462V349H266.849V333.664H217.16V349H216.546V333.664H166.857V349H166.244V333.664H116.555V349H115.941V333.664H66.2521V349H65.6387V333.664H15.9496L15.9496 349H15.3362L15.3362 333.664H3.74614e-05L3.74221e-05 333.05H15.3362L15.3362 283.361H3.74614e-05L3.74221e-05 282.748H15.3362L15.3362 233.059H3.74614e-05L3.74221e-05 232.445H15.3362L15.3362 182.756H0V182.143H15.3362L15.3362 132.454H0V131.84H15.3362L15.3361 82.1513H0V81.5378H15.3361L15.3361 31.8488H0V31.2353H15.3361L15.3361 -18.4538H0V-19.0672H15.3361L15.3361 -68.7563H0V-69.3697H15.3361L15.3361 -119.059H0V-119.672H15.3361L15.3361 -169.361H0V-169.975H15.3361L15.3361 -219.664L0 -219.664V-220.277L15.3361 -220.277ZM15.9496 -219.664L15.9496 -169.975L65.6387 -169.975L65.6386 -219.664L15.9496 -219.664ZM66.2521 -219.664V-169.975L115.941 -169.975V-219.664L66.2521 -219.664ZM116.555 -219.664V-169.975H166.244V-219.664L116.555 -219.664ZM166.857 -219.664V-169.975L216.546 -169.975V-219.664L166.857 -219.664ZM217.16 -219.664V-169.975H266.849V-219.664L217.16 -219.664ZM267.462 -219.664V-169.975L317.151 -169.975V-219.664L267.462 -219.664ZM317.765 -219.664V-169.975L367.454 -169.975V-219.664L317.765 -219.664ZM368.067 -219.664V-169.975H417.756V-219.664L368.067 -219.664ZM418.37 -219.664V-169.975L468.059 -169.975V-219.664L418.37 -219.664ZM468.672 -219.664V-169.975H518.361V-219.664L468.672 -219.664ZM518.975 -219.664V-169.975L568.664 -169.975V-219.664L518.975 -219.664ZM568.664 -169.361L518.975 -169.361V-119.672L568.664 -119.672V-169.361ZM568.664 -119.059L518.975 -119.059V-69.3698H568.664V-119.059ZM568.664 -68.7563H518.975V-19.0673H568.664V-68.7563ZM568.664 -18.4538H518.975V31.2353H568.664V-18.4538ZM568.664 31.8487H518.975L518.975 81.5378H568.664L568.664 31.8487ZM568.664 82.1512H518.975V131.84H568.664V82.1512ZM568.664 132.454H518.975V182.143H568.664V132.454ZM568.664 182.756H518.975V232.445H568.664V182.756ZM568.664 233.059H518.975V282.748H568.664V233.059ZM568.664 283.361H518.975V333.05H568.664V283.361ZM518.361 333.05V283.361H468.672V333.05H518.361ZM468.059 333.05V283.361H418.37V333.05H468.059ZM417.756 333.05V283.361H368.067V333.05H417.756ZM367.454 333.05V283.361H317.765V333.05H367.454ZM317.151 333.05V283.361L267.462 283.361V333.05H317.151ZM266.849 333.05V283.361H217.16V333.05H266.849ZM216.546 333.05V283.361H166.857V333.05H216.546ZM166.244 333.05V283.361H116.555V333.05H166.244ZM115.941 333.05V283.361H66.2521L66.2521 333.05H115.941ZM65.6387 333.05V283.361H15.9496L15.9496 333.05H65.6387ZM15.9496 282.748H65.6387V233.059H15.9496L15.9496 282.748ZM15.9496 232.445H65.6387V182.756H15.9496L15.9496 232.445ZM15.9496 182.143H65.6387L65.6387 132.454H15.9496L15.9496 182.143ZM15.9496 131.84H65.6387V82.1513H15.9496L15.9496 131.84ZM15.9496 81.5378H65.6387V31.8488H15.9496L15.9496 81.5378ZM15.9496 31.2353H65.6387V-18.4538H15.9496L15.9496 31.2353ZM15.9496 -19.0672H65.6387L65.6387 -68.7563H15.9496L15.9496 -19.0672ZM15.9496 -69.3697H65.6387V-119.059L15.9496 -119.059L15.9496 -69.3697ZM15.9496 -119.672L65.6387 -119.672V-169.361H15.9496L15.9496 -119.672ZM66.2521 -169.361V-119.672H115.941L115.941 -169.361L66.2521 -169.361ZM116.555 -169.361L116.555 -119.672H166.244V-169.361L116.555 -169.361ZM166.857 -169.361V-119.672L216.546 -119.672V-169.361H166.857ZM217.16 -169.361V-119.672H266.849V-169.361L217.16 -169.361ZM267.462 -169.361V-119.672L317.151 -119.672V-169.361L267.462 -169.361ZM317.765 -169.361V-119.672H367.454V-169.361H317.765ZM368.067 -169.361V-119.672L417.756 -119.672V-169.361L368.067 -169.361ZM418.37 -169.361V-119.672H468.059V-169.361H418.37ZM468.672 -169.361V-119.672H518.361V-169.361L468.672 -169.361ZM518.361 -119.059H468.672V-69.3698L518.361 -69.3698V-119.059ZM518.361 -68.7563L468.672 -68.7563V-19.0673L518.361 -19.0673V-68.7563ZM518.361 -18.4538L468.672 -18.4538V31.2353H518.361V-18.4538ZM518.361 31.8487L468.672 31.8487L468.672 81.5378H518.361V31.8487ZM518.361 82.1512H468.672V131.84H518.361V82.1512ZM518.361 132.454H468.672V182.143H518.361V132.454ZM518.361 182.756H468.672V232.445H518.361V182.756ZM518.361 233.059H468.672V282.748H518.361V233.059ZM468.059 282.748V233.059H418.37V282.748H468.059ZM417.756 282.748V233.059H368.067V282.748H417.756ZM367.454 282.748V233.059H317.765V282.748H367.454ZM317.151 282.748V233.059L267.462 233.059V282.748L317.151 282.748ZM266.849 282.748V233.059H217.16V282.748H266.849ZM216.546 282.748V233.059H166.857V282.748H216.546ZM166.244 282.748V233.059H116.555L116.555 282.748H166.244ZM115.941 282.748L115.941 233.059H66.2521V282.748H115.941ZM66.2521 232.445H115.941V182.756H66.2521V232.445ZM66.2521 182.143H115.941V132.454H66.2521V182.143ZM66.2521 131.84H115.941V82.1513H66.2521V131.84ZM66.2521 81.5378H115.941L115.941 31.8487L66.2521 31.8488L66.2521 81.5378ZM66.2521 31.2353H115.941V-18.4538L66.2521 -18.4538V31.2353ZM66.2521 -19.0672L115.941 -19.0672V-68.7563L66.2521 -68.7563L66.2521 -19.0672ZM66.2521 -69.3697L115.941 -69.3698V-119.059H66.2521V-69.3697ZM116.555 -119.059V-69.3698H166.244V-119.059H116.555ZM166.857 -119.059V-69.3698H216.546V-119.059L166.857 -119.059ZM217.16 -119.059V-69.3698H266.849V-119.059H217.16ZM267.462 -119.059V-69.3698L317.151 -69.3698V-119.059L267.462 -119.059ZM317.765 -119.059V-69.3698H367.454V-119.059H317.765ZM368.067 -119.059V-69.3698H417.756V-119.059L368.067 -119.059ZM418.37 -119.059V-69.3698H468.059V-119.059H418.37ZM468.059 -68.7563H418.37V-19.0673H468.059V-68.7563ZM468.059 -18.4538H418.37V31.2353H468.059V-18.4538ZM468.059 31.8487H418.37L418.37 81.5378H468.059L468.059 31.8487ZM468.059 82.1512H418.37V131.84H468.059V82.1512ZM468.059 132.454H418.37V182.143H468.059V132.454ZM468.059 182.756H418.37V232.445H468.059V182.756ZM417.756 232.445V182.756H368.067V232.445H417.756ZM367.454 232.445V182.756H317.765V232.445H367.454ZM317.151 232.445V182.756L267.462 182.756V232.445L317.151 232.445ZM266.849 232.445V182.756H217.16V232.445H266.849ZM216.546 232.445V182.756H166.857V232.445H216.546ZM166.244 232.445V182.756H116.555V232.445H166.244ZM116.555 182.143H166.244V132.454H116.555V182.143ZM116.555 131.84H166.244V82.1513H116.555V131.84ZM116.555 81.5378H166.244L166.244 31.8487H116.555L116.555 81.5378ZM116.555 31.2353H166.244V-18.4538H116.555V31.2353ZM116.555 -19.0672H166.244V-68.7563H116.555V-19.0672ZM166.857 -68.7563V-19.0672H216.546V-68.7563H166.857ZM217.16 -68.7563V-19.0672H266.849V-68.7563H217.16ZM267.462 -68.7563V-19.0672L317.151 -19.0673V-68.7563L267.462 -68.7563ZM317.765 -68.7563V-19.0673H367.454V-68.7563H317.765ZM368.067 -68.7563V-19.0673H417.756V-68.7563H368.067ZM417.756 -18.4538H368.067V31.2353H417.756V-18.4538ZM417.756 31.8487H368.067L368.067 81.5378H417.756L417.756 31.8487ZM417.756 82.1512H368.067V131.84H417.756V82.1512ZM417.756 132.454H368.067V182.143H417.756V132.454ZM367.454 182.143V132.454H317.765V182.143H367.454ZM317.151 182.143V132.454L267.462 132.454V182.143L317.151 182.143ZM266.849 182.143V132.454H217.16V182.143H266.849ZM216.546 182.143V132.454H166.857V182.143H216.546ZM166.857 131.84H216.546V82.1513H166.857V131.84ZM166.857 81.5378H216.546L216.546 31.8487H166.857L166.857 81.5378ZM166.857 31.2353H216.546V-18.4538H166.857V31.2353ZM217.16 -18.4538V31.2353H266.849V-18.4538H217.16ZM267.462 -18.4538V31.2353L317.151 31.2353V-18.4538L267.462 -18.4538ZM317.765 -18.4538V31.2353H367.454V-18.4538H317.765ZM367.454 31.8487H317.765L317.765 81.5378H367.454L367.454 31.8487ZM367.454 82.1512H317.765V131.84H367.454V82.1512ZM317.151 131.84V82.1512L267.462 82.1513V131.84L317.151 131.84ZM266.849 131.84V82.1513H217.16V131.84H266.849ZM217.16 81.5378H266.849L266.849 31.8487H217.16L217.16 81.5378ZM267.462 31.8487L267.462 81.5378L317.151 81.5378L317.151 31.8487H267.462Z" fill="url(#paint0_radial_6622_10104)" fill-opacity="0.5"/>
<defs>
<radialGradient id="paint0_radial_6622_10104" cx="0" cy="0" r="1" gradientUnits="userSpaceOnUse" gradientTransform="translate(292 57) rotate(180) scale(292)">
<stop stop-color="white"/>
<stop offset="1" stop-color="white" stop-opacity="0"/>
</radialGradient>
</defs>
</svg>
