<svg width="193" height="40" viewBox="0 0 193 40" fill="none" xmlns="http://www.w3.org/2000/svg">
<path d="M40.2156 20.9297C40.2111 20.933 40.2073 20.9368 40.2028 20.9402L35.9304 17.6593C36.0201 17.436 36.0713 17.1998 36.0806 16.9603L39.6125 16.154C39.6722 16.2666 39.7418 16.3758 39.8242 16.4791C40.5427 17.3803 41.8554 17.5282 42.7564 16.8096C43.6573 16.091 43.8052 14.7779 43.0868 13.8768C42.3683 12.9756 41.0555 12.8277 40.1546 13.5463C39.6829 13.9226 39.4198 14.4621 39.3772 15.0198L35.8022 15.836C35.7636 15.7694 35.7218 15.704 35.675 15.6406C35.5823 15.5152 35.4775 15.4043 35.3645 15.306L37.7791 10.5188C38.3482 10.6453 38.9665 10.5358 39.4722 10.1621C40.399 9.47718 40.5953 8.17043 39.9105 7.24341C39.2257 6.31638 37.9193 6.1201 36.9925 6.80501C36.4564 7.20115 36.1665 7.80543 36.1484 8.42386L30.9203 9.71934C30.879 9.64626 30.8343 9.57433 30.7832 9.50508C30.6949 9.38564 30.596 9.27882 30.4893 9.18393L32.0681 5.90484C32.6352 6.00306 33.2399 5.86967 33.7253 5.48247C34.6263 4.76383 34.7742 3.45075 34.0557 2.54964C33.3373 1.64852 32.0244 1.50056 31.1235 2.2192C30.2226 2.93781 30.0747 4.25089 30.7932 5.15204C30.8651 5.24219 30.9443 5.32264 31.027 5.39764L29.4433 8.6871C29.2192 8.65026 28.9896 8.65054 28.7633 8.68793L26.5186 3.7968C27.3599 3.09444 27.52 1.8505 26.8603 0.957357C26.1755 0.030331 24.8691 -0.165982 23.9423 0.518957C23.0154 1.20386 22.8192 2.51061 23.504 3.4376C23.6087 3.57937 23.7293 3.70188 23.8595 3.80894L21.6188 8.69134C21.3949 8.65217 21.1654 8.64887 20.9388 8.6839L19.3506 5.38539C20.1508 4.65054 20.2587 3.41211 19.571 2.54964C18.8526 1.64849 17.5398 1.50056 16.6389 2.2192C15.7379 2.93781 15.59 4.25092 16.3085 5.15204C16.8044 5.77405 17.5835 6.0368 18.3149 5.90379L19.8892 9.17343C19.7076 9.33148 19.5593 9.51485 19.4458 9.71499L14.2151 8.41885C14.202 7.98369 14.0554 7.54894 13.7632 7.18233C13.0448 6.28118 11.7319 6.13325 10.831 6.85186C9.93008 7.57051 9.78219 8.88358 10.5007 9.7847C11.0183 10.4339 11.8441 10.6898 12.6025 10.5146L15.0137 15.2949C14.8373 15.4453 14.685 15.6257 14.5652 15.8322L10.989 15.0158C10.958 14.6135 10.8105 14.2159 10.5401 13.8767C9.82162 12.9756 8.50884 12.8277 7.60793 13.5463C6.70698 14.2649 6.55908 15.578 7.27757 16.4791C7.99601 17.3802 9.3088 17.5282 10.2097 16.8095C10.4426 16.6238 10.6241 16.3979 10.7544 16.1501L14.284 16.9559C14.293 17.2042 14.3445 17.4465 14.4369 17.6718L10.1704 20.9482C9.27093 20.264 7.98586 20.4186 7.27757 21.3069C6.55908 22.2081 6.70702 23.5212 7.60793 24.2398C8.50884 24.9584 9.82162 24.8104 10.5401 23.9093C10.6445 23.7783 10.7284 23.6381 10.7966 23.4928L16.0288 24.5861C16.0353 24.8346 16.0856 25.0771 16.1758 25.3032L13.316 27.5844C12.5787 27.0757 11.5675 27.0834 10.8311 27.6709C9.93012 28.3895 9.78222 29.7026 10.5007 30.6037C11.2191 31.5049 12.5319 31.6528 13.4328 30.9342C14.1838 30.3352 14.4094 29.3239 14.0483 28.4817L16.8865 26.2177C17.0683 26.3501 17.2733 26.4566 17.5003 26.5263C17.5213 26.5328 17.5424 26.5366 17.5634 26.5423L17.4645 31.9033C17.1961 31.9659 16.9357 32.0825 16.6999 32.2567C15.7731 32.9416 15.5769 34.2484 16.2616 35.1754C16.9464 36.1024 18.2528 36.2987 19.1797 35.6138C20.001 35.0069 20.2471 33.9121 19.8163 33.0255L23.9379 29.6117C24.1432 29.7643 24.3726 29.8741 24.6128 29.9421V33.5806C24.3539 33.6539 24.1048 33.7786 23.8812 33.957C22.9803 34.6756 22.8324 35.9887 23.5508 36.8898C24.2693 37.791 25.5821 37.9389 26.483 37.2202C27.384 36.5016 27.5319 35.1886 26.8134 34.2874C26.5355 33.9389 26.1683 33.7044 25.7708 33.5878V29.9366C25.9988 29.8695 26.2197 29.7645 26.4219 29.615C26.4268 29.6113 26.431 29.6072 26.4359 29.6035L30.5535 33.014C30.2208 33.6916 30.2668 34.5263 30.7463 35.1753C31.431 36.1024 32.7375 36.2986 33.6643 35.6137C34.5911 34.9288 34.7873 33.6221 34.1026 32.6951C33.8005 32.2861 33.3773 32.0199 32.9192 31.9082L32.8201 26.5373C33.0544 26.4709 33.2814 26.3642 33.489 26.2112L36.3199 28.4693C36.022 29.1551 36.1025 29.9784 36.601 30.6037C37.3195 31.5048 38.6323 31.6528 39.5332 30.9342C40.4342 30.2155 40.5821 28.9024 39.8636 28.0013C39.1784 27.142 37.9537 26.9695 37.0602 27.5784L34.1924 25.2909C34.2798 25.0667 34.3279 24.8299 34.3349 24.5903L39.5679 23.4967C39.6252 23.6182 39.6945 23.736 39.7773 23.8482C40.4621 24.7752 41.7685 24.9715 42.6953 24.2866C43.6221 23.6017 43.8184 22.2949 43.1336 21.3679C42.4489 20.4409 41.1424 20.2448 40.2156 20.9297ZM13.5273 10.0316C13.7199 9.85816 13.8736 9.6567 13.9862 9.43722L19.175 10.723C19.17 11.1616 19.3003 11.6053 19.581 11.9853C20.2657 12.9123 21.5722 13.1087 22.499 12.4237C23.4258 11.7388 23.622 10.4321 22.9373 9.50504C22.8291 9.35851 22.7039 9.23245 22.5686 9.12303L24.8059 4.248C25.0593 4.29444 25.3202 4.29384 25.5761 4.24477L27.8098 9.11197C26.9324 9.80758 26.7564 11.0776 27.4268 11.9853C28.1116 12.9123 29.418 13.1086 30.3448 12.4237C30.9032 12.011 31.1942 11.3727 31.1893 10.7277L36.3811 9.44115C36.4313 9.53802 36.4873 9.63301 36.5541 9.72358C36.6427 9.84344 36.742 9.95054 36.8491 10.0456L34.4301 14.8415C33.8665 14.7219 33.2568 14.8328 32.7569 15.2021C31.8301 15.887 31.6339 17.1937 32.3186 18.1208C33.0034 19.0478 34.3098 19.2441 35.2367 18.5592C35.2625 18.5401 35.2856 18.5188 35.3103 18.4988L39.552 21.756C39.4507 21.9827 39.3908 22.225 39.3745 22.4712L34.1017 23.573C34.0516 23.4765 33.9958 23.3817 33.9291 23.2914C33.2443 22.3644 31.9379 22.1681 31.0111 22.853C30.0843 23.5379 29.888 24.8447 30.5728 25.7717C30.8795 26.1869 31.3111 26.4542 31.7773 26.5627L31.8761 31.9233C31.6521 31.9843 31.4354 32.0839 31.2346 32.2235L27.0861 28.7874C27.3821 28.123 27.3232 27.3232 26.8603 26.6964C26.1755 25.7694 24.869 25.5731 23.9422 26.258C23.1354 26.8543 22.8829 27.9216 23.2827 28.7997L19.141 32.2302C18.9463 32.0929 18.7318 31.9925 18.5073 31.9291L18.6064 26.5573C19.2966 26.3885 19.8837 25.8734 20.1076 25.1447C20.4462 24.043 19.8277 22.8753 18.7262 22.5367C17.7477 22.2359 16.7186 22.6915 16.2634 23.5692L10.988 22.4668C10.9716 22.2264 10.9151 21.9895 10.8173 21.767L15.0621 18.5074C15.2622 18.6681 15.4942 18.7956 15.7544 18.8755C16.8559 19.2142 18.0232 18.5956 18.3617 17.4938C18.7003 16.3921 18.0818 15.2245 16.9803 14.8858C16.6343 14.7794 16.2818 14.7678 15.9505 14.8357L13.5273 10.0316Z" fill="#CACACA"/>
<path d="M74.1382 15.2868C73.6709 14.1849 73.0155 13.2292 72.173 12.4193C71.3298 11.6097 70.3327 10.9836 69.1808 10.541C68.0292 10.0988 66.7771 9.87732 65.4252 9.87732C64.0563 9.87732 62.7963 10.1027 61.6444 10.5536C60.4929 11.0043 59.491 11.6348 58.64 12.4442C57.7887 13.2543 57.1292 14.2059 56.6619 15.2992C56.1946 16.3929 55.9609 17.5908 55.9609 18.8929C55.9609 20.1787 56.1946 21.3686 56.6619 22.4617C57.1292 23.5554 57.7886 24.5113 58.64 25.3292C59.4911 26.1475 60.4966 26.7817 61.657 27.2324C62.8171 27.6832 64.0732 27.9087 65.4252 27.9087C66.7771 27.9087 68.0292 27.6872 69.1808 27.245C70.0654 26.9054 70.8568 26.4526 71.5592 25.8912V27.6582H74.839V18.9135C74.839 18.9066 74.8395 18.8999 74.8395 18.8929C74.8395 17.5908 74.6055 16.3887 74.1382 15.2868ZM71.0961 21.3724C70.7871 22.1238 70.3575 22.7749 69.8067 23.3258C69.2559 23.8768 68.6089 24.3024 67.8662 24.603C67.1235 24.9036 66.3098 25.0538 65.4252 25.0538C64.5406 25.0538 63.7184 24.9036 62.959 24.603C62.1994 24.3024 61.5443 23.8727 60.9935 23.3133C60.4426 22.7542 60.0083 22.0986 59.6915 21.3473C59.3743 20.5959 59.2157 19.7782 59.2157 18.8929C59.2157 17.9914 59.3743 17.1693 59.6915 16.4262C60.0083 15.6835 60.4427 15.0324 60.9935 14.4728C61.5443 13.9137 62.1994 13.4836 62.959 13.183C63.7184 12.8826 64.5402 12.7323 65.4252 12.7323C66.3102 12.7323 67.1235 12.8826 67.8662 13.183C68.6089 13.4836 69.2599 13.9094 69.8192 14.4604C70.3782 15.0113 70.8082 15.6625 71.1087 16.4137C71.4092 17.165 71.5593 17.9914 71.5593 18.8929L71.5592 18.8958C71.5589 19.7963 71.4045 20.6218 71.0961 21.3724Z" fill="white"/>
<path d="M82.2391 10.1278H78.9844V27.6584H82.2391V10.1278Z" fill="white"/>
<path d="M91.4298 14.4604C91.9891 13.9094 92.6483 13.4836 93.408 13.183C94.1673 12.8826 95.0061 12.7323 95.9244 12.7323C96.8257 12.7323 97.6682 12.9037 98.453 13.2457C99.2375 13.5881 99.9554 14.1015 100.606 14.7859L102.71 12.8075C101.891 11.8393 100.89 11.1088 99.7051 10.6161C98.5196 10.1239 97.2094 9.87732 95.774 9.87732C94.422 9.87732 93.1784 10.0988 92.0435 10.541C90.9082 10.9836 89.9152 11.6139 89.0638 12.4318C88.2125 13.2499 87.553 14.2017 87.086 15.2868C86.6184 16.3722 86.3848 17.5743 86.3848 18.8929C86.3848 20.2115 86.6184 21.4142 87.086 22.4994C87.553 23.5847 88.2084 24.5364 89.0513 25.3544C89.8942 26.1727 90.8831 26.8028 92.0184 27.245C93.1533 27.6873 94.3969 27.9087 95.7492 27.9087C97.2013 27.9087 98.5196 27.6584 99.7051 27.1574C100.89 26.6567 101.891 25.9219 102.71 24.9536L100.606 22.9753C99.9554 23.6764 99.2375 24.1985 98.453 24.5405C97.6682 24.8829 96.8257 25.0538 95.9244 25.0538C95.0061 25.0538 94.1673 24.9036 93.408 24.603C92.6483 24.3024 91.9891 23.8768 91.4298 23.3258C90.8705 22.7749 90.4324 22.1237 90.1155 21.3724C89.798 20.621 89.6398 19.7946 89.6398 18.8929C89.6398 17.9913 89.798 17.165 90.1155 16.4137C90.4324 15.6625 90.8705 15.0113 91.4298 14.4604Z" fill="white"/>
<path d="M121.849 12.4193C121.006 11.6097 120.008 10.9836 118.857 10.541C117.705 10.0988 116.453 9.87732 115.101 9.87732C113.732 9.87732 112.472 10.1027 111.32 10.5536C110.169 11.0043 109.167 11.6348 108.316 12.4442C107.464 13.2543 106.805 14.2059 106.338 15.2992C105.87 16.3929 105.637 17.5908 105.637 18.8929C105.637 20.1787 105.87 21.3686 106.338 22.4617C106.805 23.5554 107.464 24.5113 108.316 25.3292C109.167 26.1475 110.172 26.7817 111.333 27.2324C112.493 27.6832 113.749 27.9087 115.101 27.9087C116.453 27.9087 117.705 27.6872 118.857 27.245C120.008 26.8027 121.006 26.1726 121.849 25.3544C122.691 24.5364 123.347 23.5806 123.814 22.4868C124.281 21.3934 124.515 20.1954 124.515 18.8929C124.515 17.5905 124.281 16.3887 123.814 15.2868C123.347 14.1849 122.691 13.2292 121.849 12.4193ZM120.772 21.3724C120.463 22.1238 120.034 22.7749 119.483 23.3258C118.932 23.8768 118.285 24.3024 117.542 24.603C116.799 24.9036 115.986 25.0538 115.101 25.0538C114.216 25.0538 113.394 24.9036 112.635 24.603C111.875 24.3024 111.22 23.8727 110.669 23.3133C110.118 22.7542 109.684 22.0986 109.368 21.3473C109.05 20.5959 108.892 19.7782 108.892 18.8929C108.892 17.9914 109.05 17.1693 109.368 16.4262C109.684 15.6835 110.118 15.0324 110.669 14.4728C111.22 13.9137 111.875 13.4836 112.635 13.183C113.394 12.8826 114.216 12.7323 115.101 12.7323C115.986 12.7323 116.799 12.8826 117.542 13.183C118.285 13.4836 118.936 13.9094 119.495 14.4604C120.054 15.0113 120.484 15.6625 120.784 16.4137C121.085 17.165 121.235 17.9914 121.235 18.8929C121.235 19.7944 121.081 20.621 120.772 21.3724Z" fill="white"/>
<path d="M140.963 22.0184L131.298 10.1278H128.619V27.6584H131.849V15.771L141.489 27.6584H144.168V10.1278H140.963V22.0184Z" fill="white"/>
<path d="M152.7 10.1278H149.445V27.6584H152.7V10.1278Z" fill="white"/>
<path d="M173.337 25.0536C174.041 24.3033 174.609 23.452 175.021 22.4868C175.488 21.3934 175.722 20.1954 175.722 18.8929C175.722 17.5905 175.488 16.3887 175.021 15.2868C174.554 14.1849 173.898 13.2292 173.056 12.4193C172.213 11.6097 171.216 10.9836 170.064 10.541C168.912 10.0988 167.66 9.87732 166.308 9.87732C164.939 9.87732 163.679 10.1027 162.527 10.5536C161.376 11.0043 160.374 11.6348 159.523 12.4442C158.671 13.2543 158.012 14.2059 157.545 15.2992C157.077 16.3929 156.844 17.5908 156.844 18.8929C156.844 20.1787 157.077 21.3686 157.545 22.4617C158.012 23.5554 158.671 24.5113 159.523 25.3292C160.374 26.1475 161.379 26.7817 162.54 27.2324C163.7 27.6832 164.956 27.9087 166.308 27.9087C166.78 27.9087 167.24 27.88 167.688 27.8259V27.9085H178.492V25.0536L173.337 25.0536ZM163.842 24.603C163.082 24.3024 162.427 23.8727 161.876 23.3133C161.325 22.7542 160.891 22.0986 160.575 21.3473C160.257 20.5959 160.099 19.7782 160.099 18.8929C160.099 17.9914 160.257 17.1693 160.575 16.4262C160.891 15.6835 161.325 15.0324 161.876 14.4728C162.427 13.9137 163.082 13.4836 163.842 13.183C164.601 12.8826 165.423 12.7323 166.308 12.7323C167.193 12.7323 168.006 12.8826 168.749 13.183C169.492 13.4836 170.143 13.9094 170.702 14.4604C171.261 15.0113 171.691 15.6625 171.991 16.4137C172.292 17.165 172.442 17.9914 172.442 18.8929C172.442 19.7944 172.288 20.621 171.979 21.3724C171.67 22.1238 171.241 22.7749 170.69 23.3258C170.139 23.8768 169.492 24.3024 168.749 24.603C168.006 24.9036 167.193 25.0538 166.308 25.0538C165.423 25.0538 164.601 24.9036 163.842 24.603Z" fill="white"/>
</svg>
