<?xml version="1.0" encoding="utf-8"?>
<!-- Generator: Adobe Illustrator 27.5.0, SVG Export Plug-In . SVG Version: 6.00 Build 0)  -->
<svg version="1.1" id="Ebene_1" xmlns="http://www.w3.org/2000/svg" xmlns:xlink="http://www.w3.org/1999/xlink" x="0px" y="0px"
	 viewBox="0 0 921 333" style="enable-background:new 0 0 921 333;" xml:space="preserve">
<style type="text/css">
	.st0{fill:#008892;}
	.st1{fill:#6B6B78;}
</style>
<path class="st0" d="M139.4,10l-33.8,20.3l-9.2,5.5L57.5,59.1l-8.3,5L10.3,87.4v159.4l38.9,23.3V109.4l8.3-5v170.7l38.9,23.3V81.1
	l9.2-5.5v228.3l33.8,20.3V10z M148.8,10v314.2l33.8-20.3V75.6l9.2,5.5v217.2l38.9-23.3V104.4l8.3,5v160.7l38.9-23.3V87.4L239,64.1
	l-8.3-5l-38.9-23.3l-9.2-5.5L148.8,10z"/>
<g>
	<path class="st1" d="M643.5,253.6h16.8v-36.3c2.7-2.3,6.7-3.7,10.1-3.7c2.9,0,6,0.6,8.5,1.9v-17.4c-2.1-0.7-4.2-0.9-6-0.9
		c-5.4,0-9.5,2-12.7,5.8v-4.9h-16.8V253.6z M605.5,210.6c5.4,0,10.3,2.6,11.2,8.4h-22.7C595.7,212.4,601.5,210.6,605.5,210.6
		 M606.2,254.5c11,0,20-5.3,25.1-13.3l-13.3-9c-2.2,4.1-6,7-11.9,7c-5,0-11.2-2.9-12.1-10.3h39c2.6-19.4-9.9-31.6-26.4-31.6
		c-17.1,0-28.6,12.3-28.6,28.6C577.9,242.9,591.5,254.5,606.2,254.5 M550.8,253.6h16.8v-78.8h-16.8V253.6z M520.7,253.6h16.8v-78.8
		h-16.8V253.6z M490.6,253.6h16.8v-55.5h-16.8v35.5c-2.2,3.6-6.3,5.6-10.4,5.6c-6.7,0-9.8-5.6-9.8-13.1v-28h-16.8v31
		c0,15.1,8.8,25.4,23.8,25.4c4.7,0,9.8-1.8,13.2-5V253.6z M467.3,190.6c4.9,0,8.9-4,8.9-8.9c0-5.1-4.2-8.9-8.9-8.9
		c-4.7,0-8.9,3.8-8.9,8.9C458.4,186.6,462.4,190.6,467.3,190.6 M493.7,190.6c4.9,0,8.9-4,8.9-8.9c0-5.1-4.2-8.9-8.9-8.9
		s-8.9,3.8-8.9,8.9C484.8,186.6,488.8,190.6,493.7,190.6 M390.1,253.6h16.8v-31c0-1.8-0.1-3.6-0.3-5.2c2.2-2.9,5.8-4.8,9.5-4.8
		c6.7,0,8.8,5.8,8.8,13v28h16.8v-31c0-13.9-6.8-25.4-23.3-25.4c-8.6,0-14.5,3.6-17.8,6.8c-3.9-4.2-9.2-6.8-15.8-6.8
		c-4.7,0-9.4,1.7-12.7,4.2v-3.3h-16.8v55.5h16.8v-36.5c2.2-2.8,5.7-4.4,9.2-4.4c6.7,0,8.8,5.8,8.8,13V253.6z"/>
	<path class="st1" d="M857.3,154H874v-36.3c2.8-3.1,6.8-4.8,10-4.8c7.3,0,10.2,5.7,10.2,13.1v28H911v-31c0-15-8.5-25.4-24.2-25.4
		c-4.9,0-9.4,1.6-12.8,4.3v-3.4h-16.8V154z M791.1,154h16.8v-36.3c2.8-3.1,6.8-4.8,10-4.8c7.3,0,10.2,5.7,10.2,13.1v28h16.8v-31
		c0-15-8.5-25.4-24.2-25.4c-4.9,0-9.4,1.6-12.8,4.3v-3.4h-16.8V154z M751.8,139.5c-8,0-12.8-6-12.8-13.3c0-7.3,4.8-13.3,12.8-13.3
		c4.1,0,7.1,1.7,9.4,4.7V135C758.9,138,755.9,139.5,751.8,139.5 M761.2,154H778V98.5h-16.8v3.3c-3.2-2.7-7.7-4.2-12.2-4.2
		c-16.4,0-26.9,13.4-26.9,28.6c0,15.2,10.4,28.6,26.9,28.6c4.6,0,9-1.4,12.2-4.1V154z M661.2,154h16.8v-31c0-1.8-0.1-3.6-0.3-5.2
		c2.2-2.9,5.8-4.8,9.5-4.8c6.7,0,8.8,5.8,8.8,13v28h16.8v-31c0-13.9-6.8-25.4-23.3-25.4c-8.5,0-14.5,3.6-17.8,6.8
		c-3.9-4.2-9.2-6.8-15.8-6.8c-4.7,0-9.4,1.7-12.7,4.2v-3.3h-16.8V154h16.8v-36.5c2.2-2.8,5.7-4.4,9.2-4.4c6.7,0,8.8,5.8,8.8,13V154z
		 M564,154h16.8v-27.6l20.5,27.6h19.8l-21.8-29.2l18.9-26.3h-19.3l-18.1,25.4V75.1H564V154z M520,154h16.8v-36.3
		c2.7-2.3,6.7-3.7,10.1-3.7c2.9,0,6,0.6,8.5,1.9V98.5c-2.1-0.7-4.2-0.9-6-0.9c-5.4,0-9.6,2-12.7,5.8v-4.9H520V154z M480.7,139.5
		c-8,0-12.8-6-12.8-13.3c0-7.3,4.8-13.3,12.8-13.3c4.1,0,7.1,1.7,9.4,4.7V135C487.8,138,484.8,139.5,480.7,139.5 M490.1,154h16.8
		V98.5h-16.8v3.3c-3.2-2.7-7.7-4.2-12.2-4.2c-16.4,0-26.9,13.4-26.9,28.6c0,15.2,10.4,28.6,26.9,28.6c4.6,0,9-1.4,12.2-4.1V154z
		 M390.1,154h16.8v-31c0-1.8-0.1-3.6-0.3-5.2c2.2-2.9,5.8-4.8,9.5-4.8c6.7,0,8.8,5.8,8.8,13v28h16.8v-31c0-13.9-6.8-25.4-23.3-25.4
		c-8.6,0-14.5,3.6-17.8,6.8c-3.9-4.2-9.2-6.8-15.8-6.8c-4.7,0-9.4,1.7-12.7,4.2v-3.3h-16.8V154h16.8v-36.5c2.2-2.8,5.7-4.4,9.2-4.4
		c6.7,0,8.8,5.8,8.8,13V154z"/>
</g>
<g>
	<defs>
		<rect id="SVGID_1_" x="355.3" y="293.7" width="555.7" height="30.7"/>
	</defs>
	<clipPath id="SVGID_00000083777740689318273290000009009897730525243067_">
		<use xlink:href="#SVGID_1_"  style="overflow:visible;"/>
	</clipPath>
</g>
</svg>
