<svg width="30" height="30" viewBox="0 0 30 30" fill="none" xmlns="http://www.w3.org/2000/svg">
<path fill-rule="evenodd" clip-rule="evenodd" d="M20.5918 17.7471L28 10.3389V20.9727C27.9998 24.8536 24.8536 27.9998 20.9727 28H8.52734C4.74779 27.9998 1.6656 25.0159 1.50684 21.2754L8.41406 14.3691C9.33614 13.4472 10.8309 13.4471 11.7529 14.3691L15.1309 17.7471C16.6387 19.2549 19.0839 19.2549 20.5918 17.7471ZM20.9727 29.5C25.6821 29.4998 29.4998 25.6821 29.5 20.9727V8.52734C29.4998 3.81793 25.6821 0.000233982 20.9727 0H8.52734C3.81793 0.000234493 0.000234497 3.81793 0 8.52734V20.9727C0.000233978 25.6821 3.81793 29.4998 8.52734 29.5H20.9727ZM7.35352 13.3086L1.5 19.1611V8.52734C1.50023 4.64635 4.64635 1.50023 8.52734 1.5H20.9727C24.7519 1.50023 27.8329 4.48356 27.9922 8.22363L19.5303 16.6865C18.6082 17.6084 17.1134 17.6085 16.1914 16.6865L12.8135 13.3086C11.3057 11.8008 8.86138 11.8009 7.35352 13.3086Z" fill="url(#paint0_linear_6932_5255)"/>
<path d="M17.9453 7.7041C18.3646 7.74629 18.6889 8.10121 18.6895 8.52734C18.6886 8.9841 18.3172 9.35577 17.8604 9.35547C17.4036 9.35499 17.0332 8.98422 17.0332 8.52734C17.0334 8.0707 17.4037 7.70067 17.8604 7.7002L17.9453 7.7041Z" fill="url(#paint1_linear_6932_5255)"/>
<defs>
<linearGradient id="paint0_linear_6932_5255" x1="28.75" y1="5.8885" x2="0.75" y2="23.6115" gradientUnits="userSpaceOnUse">
<stop stop-color="#FF21B2"/>
<stop offset="1" stop-color="#FF21B2" stop-opacity="0"/>
</linearGradient>
<linearGradient id="paint1_linear_6932_5255" x1="28.75" y1="5.8885" x2="0.75" y2="23.6115" gradientUnits="userSpaceOnUse">
<stop stop-color="#FF21B2"/>
<stop offset="1" stop-color="#FF21B2" stop-opacity="0"/>
</linearGradient>
</defs>
</svg>
