<svg width="923" height="189" viewBox="0 0 923 189" fill="none" xmlns="http://www.w3.org/2000/svg">
<rect y="1.75781" width="221.137" height="185" rx="8" fill="#161014"/>
<rect x="0.25" y="2.00781" width="220.637" height="184.5" rx="7.75" stroke="#FF21B2" stroke-opacity="0.08" stroke-width="0.5"/>
<path opacity="0.56" d="M14.6353 28.166V21.6114H12.1031V20.7398H18.0854V21.6114H15.5532V28.166H14.6353ZM20.4528 28.3207C19.8993 28.3207 19.4214 28.1952 19.0191 27.9443C18.6203 27.6933 18.3126 27.346 18.096 26.9025C17.8794 26.459 17.7711 25.9502 17.7711 25.376C17.7711 24.7916 17.8811 24.2793 18.1012 23.8392C18.3212 23.3992 18.6323 23.0571 19.0346 22.813C19.4368 22.5654 19.9096 22.4417 20.4528 22.4417C21.0097 22.4417 21.4894 22.5671 21.8916 22.8181C22.2939 23.0657 22.6016 23.4112 22.8147 23.8547C23.0313 24.2948 23.1396 24.8019 23.1396 25.376C23.1396 25.9571 23.0313 26.4693 22.8147 26.9128C22.5981 27.3529 22.2887 27.6984 21.8865 27.9494C21.4842 28.197 21.0063 28.3207 20.4528 28.3207ZM20.4528 27.4492C21.0304 27.4492 21.4601 27.2566 21.7421 26.8716C22.024 26.4865 22.1649 25.988 22.1649 25.376C22.1649 24.7469 22.0223 24.2466 21.7369 23.8753C21.4515 23.5006 21.0235 23.3132 20.4528 23.3132C20.0643 23.3132 19.7445 23.4009 19.4936 23.5762C19.2426 23.7516 19.0552 23.9939 18.9314 24.3034C18.8077 24.6128 18.7458 24.9703 18.7458 25.376C18.7458 26.0018 18.8902 26.5037 19.179 26.8819C19.4678 27.2601 19.8924 27.4492 20.4528 27.4492ZM27.3848 28.166C27.0547 28.2313 26.7281 28.2571 26.4049 28.2434C26.0852 28.2331 25.7998 28.1695 25.5489 28.0526C25.2979 27.9322 25.1071 27.7466 24.9764 27.4956C24.8664 27.2756 24.8062 27.0538 24.7959 26.8303C24.7891 26.6034 24.7856 26.3473 24.7856 26.0619V21.0492H25.7036V26.0207C25.7036 26.2476 25.7053 26.4418 25.7087 26.6034C25.7156 26.765 25.7517 26.9042 25.817 27.0211C25.9408 27.2412 26.1368 27.3701 26.4049 27.4079C26.6765 27.4457 27.0032 27.4354 27.3848 27.377V28.166ZM23.6562 23.3545V22.5964H27.3848V23.3545H23.6562ZM30.0988 28.3207C29.6828 28.3207 29.3338 28.2451 29.0519 28.0938C28.7734 27.9391 28.562 27.7363 28.4176 27.4853C28.2766 27.2343 28.2061 26.9593 28.2061 26.6601C28.2061 26.3679 28.2611 26.1152 28.3712 25.9021C28.4846 25.6855 28.6428 25.5067 28.8456 25.3657C29.0485 25.2213 29.2908 25.1079 29.5728 25.0254C29.8375 24.9532 30.1332 24.8913 30.4598 24.8397C30.7898 24.7847 31.1233 24.7348 31.4603 24.6901C31.7972 24.6454 32.1118 24.6025 32.404 24.5612L32.0739 24.752C32.0843 24.2569 31.9846 23.8908 31.7748 23.6536C31.5686 23.4163 31.211 23.2977 30.7022 23.2977C30.3652 23.2977 30.0696 23.3751 29.8151 23.5298C29.5642 23.6811 29.3871 23.9286 29.284 24.2724L28.4124 24.0094C28.5465 23.5212 28.8061 23.1379 29.1911 22.8594C29.5762 22.5809 30.0833 22.4417 30.7125 22.4417C31.2179 22.4417 31.6511 22.5328 32.0121 22.715C32.3765 22.8938 32.6378 23.1654 32.7959 23.5298C32.875 23.7017 32.9249 23.8891 32.9455 24.0919C32.9661 24.2913 32.9764 24.501 32.9764 24.7211V28.166H32.1616V26.8303L32.3524 26.9541C32.1427 27.4045 31.8488 27.7449 31.4706 27.9752C31.0958 28.2056 30.6386 28.3207 30.0988 28.3207ZM30.238 27.5523C30.5681 27.5523 30.8534 27.4939 31.0941 27.377C31.3382 27.2566 31.5342 27.1002 31.682 26.9077C31.8298 26.7117 31.9261 26.4986 31.9708 26.2682C32.0224 26.0963 32.0499 25.9055 32.0533 25.6958C32.0602 25.4826 32.0636 25.3193 32.0636 25.2058L32.3834 25.3451C32.0843 25.3863 31.7903 25.4259 31.5015 25.4637C31.2127 25.5015 30.9394 25.5428 30.6815 25.5875C30.4237 25.6287 30.1916 25.6786 29.9853 25.737C29.8341 25.7852 29.6914 25.847 29.5573 25.9227C29.4266 25.9983 29.3201 26.0963 29.2375 26.2166C29.1585 26.3335 29.1189 26.4796 29.1189 26.655C29.1189 26.8063 29.1568 26.9507 29.2324 27.0882C29.3115 27.2257 29.4318 27.3374 29.5934 27.4234C29.7584 27.5093 29.9733 27.5523 30.238 27.5523ZM34.4204 28.166V20.5851H35.3384V28.166H34.4204ZM38.9506 28.166V20.7398H41.885C41.9572 20.7398 42.0431 20.7433 42.1428 20.7501C42.2425 20.7536 42.3388 20.7639 42.4316 20.7811C42.8339 20.843 43.1708 20.9805 43.4424 21.1936C43.7175 21.4068 43.9237 21.6767 44.0613 22.0033C44.1988 22.3265 44.2675 22.6858 44.2675 23.0811C44.2675 23.6553 44.118 24.1538 43.8189 24.5767C43.5198 24.9961 43.0814 25.2591 42.5038 25.3657L42.1531 25.4224H39.8686V28.166H38.9506ZM43.3702 28.166L41.9056 25.144L42.8132 24.8655L44.4223 28.166H43.3702ZM39.8686 24.5509H41.854C41.9194 24.5509 41.9933 24.5475 42.0758 24.5406C42.1617 24.5337 42.2425 24.5217 42.3182 24.5045C42.5554 24.4495 42.7479 24.3498 42.8958 24.2054C43.047 24.0575 43.1571 23.8856 43.2258 23.6897C43.2946 23.4903 43.329 23.2874 43.329 23.0811C43.329 22.8748 43.2946 22.6737 43.2258 22.4778C43.1571 22.2783 43.047 22.1047 42.8958 21.9569C42.7479 21.8091 42.5554 21.7093 42.3182 21.6578C42.2425 21.6371 42.1617 21.6251 42.0758 21.6217C41.9933 21.6148 41.9194 21.6114 41.854 21.6114H39.8686V24.5509ZM47.6725 28.3104C47.315 28.3104 47.0072 28.2537 46.7494 28.1402C46.495 28.0268 46.2835 27.8755 46.1151 27.6864C45.9466 27.4973 45.8142 27.2876 45.718 27.0572C45.6217 26.8269 45.5529 26.5914 45.5117 26.3507C45.4739 26.1101 45.455 25.8849 45.455 25.6751V22.5964H46.3832V25.3863C46.3832 25.6476 46.4073 25.9003 46.4554 26.1444C46.5036 26.3885 46.5844 26.6086 46.6978 26.8045C46.8147 27.0005 46.9694 27.1552 47.162 27.2687C47.3579 27.3821 47.602 27.4389 47.8943 27.4389C48.1246 27.4389 48.3343 27.3993 48.5234 27.3203C48.7125 27.2412 48.8741 27.1243 49.0082 26.9696C49.1423 26.8114 49.2454 26.612 49.3176 26.3714C49.3898 26.1307 49.4259 25.8505 49.4259 25.5307L50.0293 25.7164C50.0293 26.2527 49.9313 26.7152 49.7353 27.1037C49.5428 27.4922 49.2695 27.7913 48.9154 28.001C48.5647 28.2073 48.1504 28.3104 47.6725 28.3104ZM49.5291 28.166V26.6756H49.4259V22.5964H50.349V28.166H49.5291ZM55.7587 28.166V25.376C55.7587 25.1113 55.7347 24.8569 55.6865 24.6128C55.6418 24.3687 55.561 24.1504 55.4442 23.9578C55.3307 23.7619 55.176 23.6072 54.98 23.4937C54.7875 23.3802 54.5434 23.3235 54.2477 23.3235C54.0174 23.3235 53.8076 23.3631 53.6185 23.4421C53.4329 23.5178 53.273 23.6347 53.1389 23.7928C53.0049 23.951 52.9 24.1504 52.8244 24.391C52.7522 24.6283 52.7161 24.9085 52.7161 25.2316L52.1127 25.046C52.1127 24.5062 52.2089 24.0438 52.4015 23.6587C52.5974 23.2702 52.8708 22.9728 53.2214 22.7665C53.5756 22.5568 53.9916 22.452 54.4695 22.452C54.8305 22.452 55.1382 22.5087 55.3926 22.6222C55.647 22.7356 55.8584 22.8869 56.0269 23.076C56.1954 23.2616 56.3277 23.4714 56.424 23.7051C56.5203 23.9355 56.5873 24.171 56.6251 24.4117C56.6664 24.6489 56.687 24.8741 56.687 25.0872V28.166H55.7587ZM51.7878 28.166V22.5964H52.6129V24.0868H52.7161V28.166H51.7878ZM60.1319 28.3156C59.4683 28.3156 58.9234 28.1712 58.4971 27.8824C58.0742 27.5901 57.8146 27.1827 57.7183 26.6601L58.6569 26.5106C58.7326 26.8131 58.9062 27.0538 59.1778 27.2326C59.4494 27.4079 59.7863 27.4956 60.1886 27.4956C60.5702 27.4956 60.8693 27.4165 61.0859 27.2584C61.3025 27.1002 61.4108 26.8853 61.4108 26.6137C61.4108 26.4556 61.3747 26.3284 61.3025 26.2321C61.2303 26.1324 61.0808 26.0396 60.8539 25.9536C60.6304 25.8677 60.2917 25.7645 59.8379 25.6442C59.3463 25.5136 58.9595 25.3778 58.6776 25.2368C58.3956 25.0958 58.1945 24.9325 58.0742 24.7469C57.9539 24.5612 57.8937 24.336 57.8937 24.0713C57.8937 23.7447 57.9831 23.4593 58.1619 23.2152C58.3406 22.9677 58.5899 22.7769 58.9096 22.6428C59.2328 22.5087 59.6076 22.4417 60.0339 22.4417C60.4568 22.4417 60.8349 22.5087 61.1684 22.6428C61.5019 22.7769 61.7701 22.9677 61.9729 23.2152C62.1792 23.4593 62.3013 23.7447 62.3391 24.0713L61.4005 24.2415C61.3558 23.9424 61.2114 23.7069 60.9673 23.535C60.7266 23.3631 60.4155 23.2719 60.0339 23.2616C59.6729 23.2479 59.3789 23.3115 59.152 23.4524C58.9285 23.5934 58.8168 23.7842 58.8168 24.0249C58.8168 24.159 58.8581 24.2741 58.9406 24.3704C59.0265 24.4667 59.183 24.5578 59.4099 24.6437C59.6402 24.7297 59.9737 24.8277 60.4103 24.9377C60.902 25.0615 61.2888 25.1973 61.5707 25.3451C61.856 25.4895 62.0589 25.6614 62.1792 25.8608C62.2996 26.0568 62.3597 26.2992 62.3597 26.5879C62.3597 27.1243 62.162 27.5472 61.7667 27.8566C61.3713 28.1626 60.8263 28.3156 60.1319 28.3156ZM66.1427 29.7441C65.7404 29.2799 65.3949 28.7591 65.1061 28.1815C64.8173 27.6039 64.5956 26.9971 64.4408 26.361C64.2861 25.725 64.2122 25.089 64.2191 24.4529C64.2122 23.8134 64.2861 23.1757 64.4408 22.5396C64.5956 21.9036 64.8173 21.2985 65.1061 20.7243C65.3949 20.1468 65.7404 19.6259 66.1427 19.1617L66.8234 19.6775C66.4177 20.1588 66.0842 20.659 65.8229 21.1782C65.5651 21.6973 65.3743 22.2319 65.2505 22.782C65.1267 23.3287 65.0631 23.8856 65.0597 24.4529C65.0631 25.0133 65.1267 25.5703 65.2505 26.1238C65.3777 26.6739 65.5702 27.2102 65.8281 27.7328C66.0894 28.252 66.4212 28.7488 66.8234 29.2232L66.1427 29.7441ZM68.5828 28.166L71.2542 21.6217H67.8814V20.7398H72.2392V21.6217L69.573 28.166H68.5828ZM75.6655 28.3207C75.1463 28.3207 74.7011 28.1918 74.3298 27.9339C73.9585 27.6727 73.6714 27.3203 73.4686 26.8767C73.2692 26.4332 73.1694 25.933 73.1694 25.376C73.1694 24.8191 73.2692 24.3188 73.4686 23.8753C73.6714 23.4318 73.9585 23.0829 74.3298 22.8284C74.7011 22.5706 75.1446 22.4417 75.6603 22.4417C76.1863 22.4417 76.6281 22.5689 76.9857 22.8233C77.3432 23.0777 77.6131 23.4267 77.7954 23.8702C77.981 24.3137 78.0738 24.8156 78.0738 25.376C78.0738 25.9296 77.981 26.4298 77.7954 26.8767C77.6131 27.3203 77.3432 27.6727 76.9857 27.9339C76.6281 28.1918 76.1881 28.3207 75.6655 28.3207ZM75.7789 27.4801C76.1537 27.4801 76.4614 27.3907 76.7021 27.212C76.9427 27.0297 77.1198 26.7805 77.2332 26.4642C77.3501 26.1444 77.4086 25.7817 77.4086 25.376C77.4086 24.9635 77.3501 24.6008 77.2332 24.2879C77.1198 23.9716 76.9444 23.7258 76.7072 23.5504C76.47 23.3716 76.1692 23.2823 75.8047 23.2823C75.4265 23.2823 75.1137 23.3751 74.8661 23.5607C74.622 23.7464 74.4398 23.9974 74.3195 24.3137C74.2026 24.63 74.1441 24.9841 74.1441 25.376C74.1441 25.7714 74.2043 26.129 74.3246 26.4487C74.445 26.765 74.6255 27.016 74.8661 27.2016C75.1102 27.3873 75.4145 27.4801 75.7789 27.4801ZM77.4086 28.166V24.0661H77.3054V20.7398H78.2285V28.166H77.4086ZM80.0705 30.0535L79.3898 29.5326C79.792 29.0582 80.1221 28.5614 80.3799 28.0422C80.6412 27.5197 80.8355 26.9833 80.9627 26.4332C81.0899 25.8797 81.1535 25.3227 81.1535 24.7623C81.1535 24.1951 81.0899 23.6381 80.9627 23.0914C80.8389 22.5414 80.6464 22.0067 80.3851 21.4876C80.1272 20.9684 79.7955 20.4682 79.3898 19.9869L80.0705 19.4712C80.4728 19.9353 80.8183 20.4562 81.1071 21.0338C81.3993 21.6079 81.6211 22.213 81.7723 22.8491C81.9271 23.4851 82.001 24.1229 81.9941 24.7623C82.001 25.3984 81.9271 26.0344 81.7723 26.6705C81.6211 27.3065 81.3993 27.9133 81.1071 28.4909C80.8183 29.0685 80.4728 29.5894 80.0705 30.0535Z" fill="white"/>
<rect x="188.318" y="13.7578" width="20.8176" height="20.8176" rx="2" fill="#FF21B2" fill-opacity="0.08"/>
<g clip-path="url(#clip0_289_3058)">
<path d="M204.068 24.166H201.932L200.33 28.9726L197.125 19.3594L195.523 24.166H193.387" stroke="#D8008D" stroke-width="1.28176" stroke-linecap="round" stroke-linejoin="round"/>
</g>
<path d="M12 42.5762H207" stroke="#313131"/>
<path d="M15.6296 70.5762V59.344L13.1139 60.8757V58.7128L15.6296 57.209H17.6068V70.5762H15.6296ZM25.0956 70.8547C24.4087 70.8547 23.7682 70.7154 23.1741 70.4369C22.5862 70.1523 22.0818 69.7624 21.661 69.2673C21.2402 68.766 20.9401 68.1905 20.7606 67.5407L22.6264 67.0394C22.7316 67.4355 22.9111 67.779 23.1648 68.0698C23.4247 68.3607 23.728 68.5866 24.0745 68.7475C24.4211 68.9022 24.78 68.9795 25.1513 68.9795C25.6402 68.9795 26.0827 68.862 26.4788 68.6268C26.881 68.3916 27.1966 68.076 27.4256 67.68C27.6608 67.2839 27.7784 66.8476 27.7784 66.3711C27.7784 65.8822 27.6577 65.4397 27.4163 65.0437C27.1812 64.6476 26.8625 64.3351 26.4602 64.1061C26.0641 63.8709 25.6278 63.7534 25.1513 63.7534C24.6067 63.7534 24.1457 63.8616 23.7682 64.0782C23.3907 64.2948 23.0968 64.5455 22.8863 64.8301L21.1969 64.2361L21.6053 57.209H28.818V59.0377H22.5986L23.3876 58.3044L23.0627 63.5677L22.6821 63.0757C23.0349 62.723 23.4557 62.4538 23.9446 62.2681C24.4335 62.0825 24.9193 61.9896 25.402 61.9896C26.2312 61.9896 26.9708 62.1815 27.6205 62.5652C28.2765 62.9488 28.7933 63.4718 29.1708 64.1339C29.5483 64.7899 29.737 65.5356 29.737 66.3711C29.737 67.2003 29.5235 67.9553 29.0965 68.6361C28.6695 69.3106 28.1032 69.849 27.3978 70.2513C26.6923 70.6535 25.9249 70.8547 25.0956 70.8547ZM36.5507 70.8547C35.6843 70.8547 34.9046 70.6504 34.2114 70.242C33.5183 69.8274 32.9676 69.2611 32.5591 68.5432C32.1569 67.8254 31.9557 67.0085 31.9557 66.0926V61.8318C31.9557 60.8602 32.1569 60.0062 32.5591 59.2698C32.9676 58.5334 33.5307 57.9609 34.2486 57.5525C34.9726 57.144 35.805 56.9398 36.7456 56.9398C37.4511 56.9398 38.1133 57.0729 38.7321 57.339C39.351 57.6051 39.8863 58.0011 40.3381 58.5272L38.9178 59.8546C38.6641 59.5266 38.3454 59.2667 37.9617 59.0748C37.5842 58.8768 37.1788 58.7778 36.7456 58.7778C36.1887 58.7778 35.6998 58.9109 35.279 59.177C34.8581 59.4369 34.5271 59.7803 34.2857 60.2073C34.0505 60.6343 33.933 61.0923 33.933 61.5812V64.0318L33.5524 63.6048C33.9361 63.1036 34.4126 62.7075 34.9819 62.4166C35.5513 62.1258 36.1608 61.9803 36.8106 61.9803C37.6399 61.9803 38.3794 62.1753 39.0292 62.5652C39.6852 62.9488 40.1988 63.4718 40.5701 64.1339C40.9476 64.7961 41.1364 65.5418 41.1364 66.3711C41.1364 67.2065 40.926 67.9646 40.5051 68.6454C40.0905 69.3199 39.5336 69.8583 38.8343 70.2606C38.1411 70.6566 37.38 70.8547 36.5507 70.8547ZM36.5507 68.9888C37.0334 68.9888 37.4728 68.8712 37.8688 68.6361C38.2649 68.4009 38.5805 68.0853 38.8157 67.6892C39.0509 67.2932 39.1684 66.8538 39.1684 66.3711C39.1684 65.8884 39.0509 65.449 38.8157 65.0529C38.5867 64.6569 38.2742 64.3413 37.8781 64.1061C37.4821 63.8709 37.0427 63.7534 36.56 63.7534C36.0773 63.7534 35.6348 63.8709 35.2325 64.1061C34.8365 64.3413 34.5209 64.6569 34.2857 65.0529C34.0505 65.449 33.933 65.8884 33.933 66.3711C33.933 66.8476 34.0505 67.2839 34.2857 67.68C34.5209 68.076 34.8365 68.3947 35.2325 68.6361C35.6286 68.8712 36.068 68.9888 36.5507 68.9888Z" fill="white"/>
<g clip-path="url(#clip1_289_3058)">
<path d="M59.2905 59.873L54.2169 64.9467L51.5465 62.2763L47.541 66.2818M59.2905 59.873H56.0861M59.2905 59.873L59.2905 63.0774" stroke="#59A784" stroke-width="0.8011" stroke-linecap="round" stroke-linejoin="round"/>
</g>
<path d="M66.2191 65.0213V61.1535H66.8755V65.0213H66.2191ZM64.6134 63.4156V62.7592H68.4812V63.4156H64.6134ZM71.8194 66.1582C71.4326 66.1582 71.0878 66.0918 70.7851 65.959C70.4842 65.8261 70.2449 65.6415 70.0672 65.4052C69.8914 65.1668 69.7956 64.8904 69.78 64.5759H70.5184C70.534 64.7693 70.6005 64.9363 70.7177 65.077C70.8349 65.2157 70.9882 65.3231 71.1777 65.3993C71.3672 65.4755 71.5772 65.5136 71.8077 65.5136C72.0655 65.5136 72.2941 65.4687 72.4933 65.3788C72.6926 65.2889 72.8489 65.1639 72.9622 65.0037C73.0755 64.8436 73.1321 64.658 73.1321 64.447C73.1321 64.2263 73.0774 64.0319 72.968 63.8639C72.8586 63.694 72.6985 63.5611 72.4875 63.4654C72.2765 63.3697 72.0187 63.3218 71.7139 63.3218H71.2334V62.6772H71.7139C71.9522 62.6772 72.1613 62.6342 72.341 62.5483C72.5226 62.4623 72.6643 62.3412 72.7658 62.1849C72.8694 62.0286 72.9211 61.845 72.9211 61.634C72.9211 61.4309 72.8762 61.2541 72.7864 61.1037C72.6965 60.9533 72.5695 60.8361 72.4054 60.7521C72.2433 60.6681 72.0519 60.6261 71.8311 60.6261C71.6241 60.6261 71.4287 60.6642 71.2451 60.7403C71.0634 60.8146 70.915 60.923 70.7997 61.0656C70.6845 61.2062 70.6219 61.3762 70.6122 61.5754H69.9089C69.9207 61.2609 70.0154 60.9855 70.1932 60.7491C70.3709 60.5108 70.6034 60.3252 70.8905 60.1924C71.1797 60.0596 71.4971 59.9932 71.8428 59.9932C72.214 59.9932 72.5324 60.0684 72.7981 60.2188C73.0637 60.3672 73.2679 60.5636 73.4105 60.8077C73.5531 61.0519 73.6244 61.3156 73.6244 61.5989C73.6244 61.9368 73.5355 62.225 73.3577 62.4633C73.1819 62.7016 72.9426 62.8667 72.6399 62.9585V63.0054C73.0188 63.0679 73.3148 63.229 73.5277 63.4888C73.7406 63.7467 73.8471 64.0661 73.8471 64.447C73.8471 64.7732 73.7582 65.0662 73.5804 65.3261C73.4046 65.5839 73.1643 65.7871 72.8596 65.9355C72.5549 66.084 72.2081 66.1582 71.8194 66.1582ZM75.3759 66.1231C75.2313 66.1231 75.1073 66.0713 75.0038 65.9678C74.9002 65.8642 74.8485 65.7402 74.8485 65.5956C74.8485 65.4511 74.9002 65.327 75.0038 65.2235C75.1073 65.12 75.2313 65.0682 75.3759 65.0682C75.5204 65.0682 75.6445 65.12 75.748 65.2235C75.8516 65.327 75.9033 65.4511 75.9033 65.5956C75.9033 65.6913 75.8789 65.7792 75.8301 65.8593C75.7832 65.9394 75.7197 66.0039 75.6396 66.0527C75.5615 66.0996 75.4736 66.1231 75.3759 66.1231ZM77.1992 66.0762L79.8832 60.7667V60.7198H76.789V60.0752H80.6333V60.755L77.961 66.0762H77.1992ZM83.5203 66.1582C83.1765 66.1582 82.8668 66.0898 82.5914 65.9531C82.316 65.8164 82.0952 65.6288 81.9292 65.3905C81.7632 65.1522 81.6723 64.8807 81.6567 64.5759H82.3599C82.3873 64.8475 82.5103 65.0721 82.7291 65.2499C82.9499 65.4257 83.2136 65.5136 83.5203 65.5136C83.7664 65.5136 83.9852 65.456 84.1766 65.3407C84.37 65.2254 84.5214 65.0672 84.6308 64.866C84.7421 64.6629 84.7978 64.4333 84.7978 64.1774C84.7978 63.9157 84.7402 63.6822 84.6249 63.4771C84.5116 63.2701 84.3554 63.1069 84.1561 62.9878C83.9569 62.8686 83.7293 62.8081 83.4734 62.8061C83.2898 62.8042 83.1013 62.8325 82.9079 62.8911C82.7145 62.9477 82.5553 63.021 82.4303 63.1108L81.7505 63.0288L82.1138 60.0752H85.2315V60.7198H82.7233L82.5123 62.4897H82.5475C82.6705 62.392 82.8248 62.3109 83.0104 62.2465C83.196 62.182 83.3894 62.1498 83.5906 62.1498C83.9578 62.1498 84.285 62.2377 84.5722 62.4135C84.8613 62.5873 85.0879 62.8256 85.252 63.1284C85.418 63.4312 85.5011 63.777 85.5011 64.1657C85.5011 64.5486 85.4151 64.8904 85.2432 65.1913C85.0733 65.4901 84.8388 65.7265 84.54 65.9004C84.2411 66.0723 83.9012 66.1582 83.5203 66.1582ZM89.7242 64.951V64.6345C89.7242 64.4157 89.7691 64.2155 89.8589 64.0338C89.9508 63.8502 90.0836 63.7037 90.2574 63.5943C90.4333 63.483 90.6462 63.4273 90.8962 63.4273C91.1502 63.4273 91.3631 63.483 91.535 63.5943C91.7069 63.7037 91.8368 63.8502 91.9247 64.0338C92.0126 64.2155 92.0566 64.4157 92.0566 64.6345V64.951C92.0566 65.1698 92.0116 65.371 91.9218 65.5546C91.8339 65.7363 91.703 65.8828 91.5291 65.9941C91.3572 66.1035 91.1463 66.1582 90.8962 66.1582C90.6423 66.1582 90.4284 66.1035 90.2545 65.9941C90.0807 65.8828 89.9488 65.7363 89.8589 65.5546C89.7691 65.371 89.7242 65.1698 89.7242 64.951ZM90.3219 64.6345V64.951C90.3219 65.1327 90.3649 65.2958 90.4508 65.4403C90.5368 65.5829 90.6852 65.6542 90.8962 65.6542C91.1013 65.6542 91.2459 65.5829 91.3299 65.4403C91.4158 65.2958 91.4588 65.1327 91.4588 64.951V64.6345C91.4588 64.4529 91.4178 64.2907 91.3357 64.1481C91.2537 64.0036 91.1072 63.9313 90.8962 63.9313C90.6911 63.9313 90.5436 64.0036 90.4538 64.1481C90.3659 64.2907 90.3219 64.4529 90.3219 64.6345ZM86.7354 61.5168V61.2004C86.7354 60.9816 86.7803 60.7814 86.8702 60.5997C86.962 60.4161 87.0948 60.2696 87.2687 60.1602C87.4445 60.0488 87.6574 59.9932 87.9075 59.9932C88.1614 59.9932 88.3743 60.0488 88.5462 60.1602C88.7181 60.2696 88.848 60.4161 88.9359 60.5997C89.0238 60.7814 89.0678 60.9816 89.0678 61.2004V61.5168C89.0678 61.7356 89.0229 61.9368 88.933 62.1205C88.8451 62.3021 88.7142 62.4486 88.5404 62.56C88.3685 62.6694 88.1575 62.7241 87.9075 62.7241C87.6535 62.7241 87.4396 62.6694 87.2657 62.56C87.0919 62.4486 86.96 62.3021 86.8702 62.1205C86.7803 61.9368 86.7354 61.7356 86.7354 61.5168ZM87.3331 61.2004V61.5168C87.3331 61.6985 87.3761 61.8616 87.4621 62.0062C87.548 62.1488 87.6965 62.2201 87.9075 62.2201C88.1126 62.2201 88.2571 62.1488 88.3411 62.0062C88.4271 61.8616 88.47 61.6985 88.47 61.5168V61.2004C88.47 61.0187 88.429 60.8566 88.347 60.714C88.2649 60.5694 88.1184 60.4971 87.9075 60.4971C87.7023 60.4971 87.5549 60.5694 87.465 60.714C87.3771 60.8566 87.3331 61.0187 87.3331 61.2004ZM86.9581 66.0762L91.0837 60.0752H91.7518L87.6262 66.0762H86.9581ZM97.0261 66.1817C96.7409 66.1817 96.4821 66.1279 96.2496 66.0205C96.0172 65.9111 95.8326 65.7539 95.6958 65.5487C95.5591 65.3417 95.4907 65.0916 95.4907 64.7986C95.4907 64.5408 95.5415 64.3317 95.6431 64.1716C95.7447 64.0094 95.8804 63.8825 96.0504 63.7906C96.2203 63.6988 96.4078 63.6305 96.613 63.5855C96.82 63.5387 97.0281 63.5015 97.2371 63.4742C97.5106 63.439 97.7323 63.4127 97.9022 63.3951C98.0741 63.3755 98.1992 63.3433 98.2773 63.2984C98.3574 63.2535 98.3974 63.1753 98.3974 63.064V63.0405C98.3974 62.7514 98.3183 62.5268 98.1601 62.3666C98.0038 62.2064 97.7665 62.1263 97.4481 62.1263C97.1179 62.1263 96.8591 62.1986 96.6716 62.3431C96.484 62.4877 96.3522 62.642 96.276 62.8061L95.6196 62.5717C95.7368 62.2982 95.8931 62.0853 96.0885 61.9329C96.2858 61.7786 96.5006 61.6712 96.7331 61.6106C96.9675 61.5481 97.198 61.5168 97.4246 61.5168C97.5692 61.5168 97.7352 61.5344 97.9227 61.5696C98.1122 61.6028 98.2949 61.6721 98.4707 61.7776C98.6484 61.8831 98.7959 62.0423 98.9131 62.2552C99.0303 62.4682 99.0889 62.7534 99.0889 63.1108V66.0762H98.3974V65.4667H98.3623C98.3154 65.5644 98.2372 65.6689 98.1279 65.7802C98.0185 65.8916 97.8729 65.9863 97.6913 66.0645C97.5096 66.1426 97.2879 66.1817 97.0261 66.1817ZM97.1316 65.5605C97.4051 65.5605 97.6356 65.5067 97.8231 65.3993C98.0126 65.2919 98.1552 65.1532 98.2509 64.9832C98.3486 64.8133 98.3974 64.6345 98.3974 64.447V63.8141C98.3681 63.8492 98.3037 63.8815 98.204 63.9108C98.1064 63.9381 97.9931 63.9625 97.8641 63.984C97.7372 64.0036 97.6131 64.0212 97.492 64.0368C97.3728 64.0505 97.2762 64.0622 97.2019 64.0719C97.0222 64.0954 96.8542 64.1335 96.6979 64.1862C96.5436 64.237 96.4186 64.3142 96.3229 64.4177C96.2291 64.5193 96.1822 64.658 96.1822 64.8338C96.1822 65.0741 96.2711 65.2557 96.4489 65.3788C96.6286 65.4999 96.8562 65.5605 97.1316 65.5605ZM103.87 61.5754L102.206 66.0762H101.503L99.8383 61.5754H100.588L101.831 65.162H101.878L103.12 61.5754H103.87ZM106.439 67.8577C106.104 67.8577 105.817 67.8147 105.577 67.7288C105.337 67.6448 105.137 67.5334 104.976 67.3947C104.818 67.258 104.692 67.1115 104.598 66.9552L105.149 66.5684C105.212 66.6505 105.291 66.7442 105.387 66.8497C105.482 66.9572 105.613 67.05 105.779 67.1281C105.947 67.2082 106.167 67.2482 106.439 67.2482C106.802 67.2482 107.102 67.1603 107.338 66.9845C107.574 66.8087 107.693 66.5333 107.693 66.1582V65.244H107.634C107.583 65.3261 107.511 65.4276 107.417 65.5487C107.325 65.6679 107.193 65.7744 107.019 65.8681C106.847 65.9599 106.614 66.0058 106.321 66.0058C105.958 66.0058 105.632 65.9199 105.343 65.748C105.055 65.5761 104.828 65.3261 104.66 64.9979C104.494 64.6697 104.411 64.2712 104.411 63.8024C104.411 63.3414 104.492 62.9399 104.654 62.5981C104.816 62.2543 105.042 61.9886 105.331 61.8011C105.62 61.6116 105.954 61.5168 106.333 61.5168C106.626 61.5168 106.859 61.5657 107.03 61.6634C107.204 61.7591 107.337 61.8685 107.429 61.9915C107.523 62.1126 107.595 62.2123 107.646 62.2904H107.716V61.5754H108.384V66.2051C108.384 66.5919 108.296 66.9064 108.12 67.1486C107.947 67.3928 107.712 67.5715 107.417 67.6848C107.124 67.8001 106.798 67.8577 106.439 67.8577ZM106.415 65.3847C106.692 65.3847 106.927 65.3212 107.118 65.1942C107.31 65.0672 107.455 64.8846 107.555 64.6463C107.655 64.4079 107.704 64.1227 107.704 63.7906C107.704 63.4664 107.656 63.1802 107.558 62.9321C107.46 62.684 107.316 62.4897 107.124 62.349C106.933 62.2084 106.696 62.138 106.415 62.138C106.122 62.138 105.878 62.2123 105.683 62.3607C105.489 62.5092 105.344 62.7084 105.246 62.9585C105.15 63.2085 105.102 63.4859 105.102 63.7906C105.102 64.1032 105.151 64.3796 105.249 64.6199C105.349 64.8582 105.495 65.0457 105.688 65.1825C105.884 65.3173 106.126 65.3847 106.415 65.3847ZM110.154 66.1231C110.009 66.1231 109.885 66.0713 109.782 65.9678C109.678 65.8642 109.627 65.7402 109.627 65.5956C109.627 65.4511 109.678 65.327 109.782 65.2235C109.885 65.12 110.009 65.0682 110.154 65.0682C110.299 65.0682 110.423 65.12 110.526 65.2235C110.63 65.327 110.681 65.4511 110.681 65.5956C110.681 65.6913 110.657 65.7792 110.608 65.8593C110.561 65.9394 110.498 66.0039 110.418 66.0527C110.34 66.0996 110.252 66.1231 110.154 66.1231ZM116.06 67.8577C115.726 67.8577 115.439 67.8147 115.198 67.7288C114.958 67.6448 114.758 67.5334 114.598 67.3947C114.439 67.258 114.313 67.1115 114.22 66.9552L114.77 66.5684C114.833 66.6505 114.912 66.7442 115.008 66.8497C115.103 66.9572 115.234 67.05 115.4 67.1281C115.568 67.2082 115.788 67.2482 116.06 67.2482C116.423 67.2482 116.723 67.1603 116.959 66.9845C117.196 66.8087 117.314 66.5333 117.314 66.1582V65.244H117.255C117.204 65.3261 117.132 65.4276 117.038 65.5487C116.947 65.6679 116.814 65.7744 116.64 65.8681C116.468 65.9599 116.236 66.0058 115.942 66.0058C115.579 66.0058 115.253 65.9199 114.964 65.748C114.677 65.5761 114.449 65.3261 114.281 64.9979C114.115 64.6697 114.032 64.2712 114.032 63.8024C114.032 63.3414 114.113 62.9399 114.275 62.5981C114.437 62.2543 114.663 61.9886 114.952 61.8011C115.241 61.6116 115.575 61.5168 115.954 61.5168C116.247 61.5168 116.48 61.5657 116.652 61.6634C116.825 61.7591 116.958 61.8685 117.05 61.9915C117.144 62.1126 117.216 62.2123 117.267 62.2904H117.337V61.5754H118.005V66.2051C118.005 66.5919 117.917 66.9064 117.742 67.1486C117.568 67.3928 117.333 67.5715 117.038 67.6848C116.745 67.8001 116.419 67.8577 116.06 67.8577ZM116.036 65.3847C116.314 65.3847 116.548 65.3212 116.739 65.1942C116.931 65.0672 117.076 64.8846 117.176 64.6463C117.276 64.4079 117.326 64.1227 117.326 63.7906C117.326 63.4664 117.277 63.1802 117.179 62.9321C117.081 62.684 116.937 62.4897 116.745 62.349C116.554 62.2084 116.318 62.138 116.036 62.138C115.743 62.138 115.499 62.2123 115.304 62.3607C115.11 62.5092 114.965 62.7084 114.867 62.9585C114.771 63.2085 114.724 63.4859 114.724 63.7906C114.724 64.1032 114.772 64.3796 114.87 64.6199C114.97 64.8582 115.116 65.0457 115.31 65.1825C115.505 65.3173 115.747 65.3847 116.036 65.3847ZM119.271 66.0762V61.5754H119.939V62.2552H119.986C120.068 62.0326 120.217 61.8519 120.432 61.7132C120.646 61.5745 120.889 61.5051 121.158 61.5051C121.209 61.5051 121.272 61.5061 121.349 61.5081C121.425 61.51 121.482 61.5129 121.522 61.5168V62.2201C121.498 62.2142 121.444 62.2054 121.36 62.1937C121.278 62.18 121.191 62.1732 121.1 62.1732C120.881 62.1732 120.685 62.2191 120.514 62.3109C120.344 62.4008 120.209 62.5258 120.109 62.686C120.012 62.8442 119.963 63.0249 119.963 63.2281V66.0762H119.271ZM124.033 66.1699C123.626 66.1699 123.27 66.0732 122.963 65.8799C122.658 65.6865 122.42 65.4159 122.248 65.0682C122.078 64.7205 121.993 64.3142 121.993 63.8492C121.993 63.3804 122.078 62.9712 122.248 62.6215C122.42 62.2718 122.658 62.0003 122.963 61.8069C123.27 61.6135 123.626 61.5168 124.033 61.5168C124.439 61.5168 124.795 61.6135 125.099 61.8069C125.406 62.0003 125.644 62.2718 125.814 62.6215C125.986 62.9712 126.072 63.3804 126.072 63.8492C126.072 64.3142 125.986 64.7205 125.814 65.0682C125.644 65.4159 125.406 65.6865 125.099 65.8799C124.795 66.0732 124.439 66.1699 124.033 66.1699ZM124.033 65.5487C124.341 65.5487 124.595 65.4696 124.795 65.3114C124.994 65.1532 125.141 64.9451 125.237 64.6873C125.333 64.4294 125.381 64.1501 125.381 63.8492C125.381 63.5484 125.333 63.2681 125.237 63.0083C125.141 62.7485 124.994 62.5385 124.795 62.3783C124.595 62.2181 124.341 62.138 124.033 62.138C123.724 62.138 123.47 62.2181 123.271 62.3783C123.072 62.5385 122.924 62.7485 122.828 63.0083C122.733 63.2681 122.685 63.5484 122.685 63.8492C122.685 64.1501 122.733 64.4294 122.828 64.6873C122.924 64.9451 123.072 65.1532 123.271 65.3114C123.47 65.4696 123.724 65.5487 124.033 65.5487ZM127.994 66.0762L126.623 61.5754H127.35L128.322 65.0213H128.369L129.33 61.5754H130.069L131.018 65.0096H131.065L132.038 61.5754H132.765L131.393 66.0762H130.713L129.729 62.6186H129.659L128.674 66.0762H127.994ZM135.636 61.5754V62.1615H133.304V61.5754H135.636ZM133.983 60.4971H134.675V64.7869C134.675 64.9822 134.703 65.1288 134.76 65.2264C134.819 65.3221 134.893 65.3866 134.983 65.4198C135.074 65.4511 135.171 65.4667 135.273 65.4667C135.349 65.4667 135.411 65.4628 135.46 65.455C135.509 65.4452 135.548 65.4374 135.578 65.4315L135.718 66.0527C135.671 66.0703 135.606 66.0879 135.522 66.1055C135.438 66.125 135.331 66.1348 135.202 66.1348C135.007 66.1348 134.816 66.0928 134.628 66.0088C134.443 65.9248 134.288 65.7968 134.165 65.6249C134.044 65.453 133.983 65.2362 133.983 64.9744V60.4971ZM137.465 63.3687V66.0762H136.773V60.0752H137.465V62.2787H137.523C137.629 62.0462 137.787 61.8616 137.998 61.7249C138.211 61.5862 138.494 61.5168 138.848 61.5168C139.154 61.5168 139.423 61.5784 139.653 61.7014C139.884 61.8226 140.063 62.0091 140.19 62.2611C140.319 62.5111 140.383 62.8296 140.383 63.2163V66.0762H139.691V63.2632C139.691 62.9057 139.599 62.6293 139.413 62.434C139.229 62.2367 138.975 62.138 138.648 62.138C138.422 62.138 138.219 62.1859 138.039 62.2816C137.861 62.3773 137.72 62.517 137.617 62.7006C137.515 62.8843 137.465 63.1069 137.465 63.3687Z" fill="#59A784"/>
<path opacity="0.48" d="M12 145.008L19.2259 141.661H26.4517L33.6776 145.38L38.2413 146.495L42.0444 145.751L47.3687 141.661L50.7915 138.686L55.7355 137.198L59.9189 139.057L65.6236 143.52L71.3282 148.355L77.4131 151.33L81.2162 150.958L85.7799 147.239L91.1042 141.661L97.5695 133.851L105.176 129.388L113.542 123.438L118.106 118.604L124.191 111.538L129.515 108.563H133.699L137.502 111.166L142.066 117.86L145.108 123.81L151.954 136.826L155.376 140.917L159.18 142.404L164.504 140.917L170.208 133.851L178.575 119.719L184.375 114.885L190.365 113.769L197.971 110.05L209 94.8027V174.759H12V145.008Z" fill="url(#paint0_linear_289_3058)"/>
<path d="M12 145.186L13.9768 143.968C16.3354 142.881 21.0525 140.707 25.7696 141.923C30.4868 143.138 35.2039 147.742 39.9211 146.511C44.6382 145.28 49.3553 138.214 54.0725 137.439C58.7896 136.665 63.5068 142.183 68.2239 146.247C72.941 150.311 77.6582 152.921 82.3753 150.217C87.0925 147.512 91.8096 139.492 96.5267 135.107C101.244 130.722 105.961 129.971 110.678 126.11C115.395 122.249 120.112 115.277 124.83 111.432C129.547 107.587 134.264 106.869 138.981 112.969C143.698 119.07 148.415 131.989 153.132 138.051C157.85 144.114 162.567 143.321 167.284 137.729C172.001 132.138 176.718 121.748 181.435 117.372C186.152 112.996 190.87 114.634 195.587 111.813C200.304 108.992 205.021 101.711 207.38 98.07L209 94.8027" stroke="#59A784" stroke-width="0.924178" stroke-linecap="round"/>
<rect x="233.955" y="1.13281" width="221.137" height="186.252" rx="8" fill="#161014"/>
<rect x="234.205" y="1.38281" width="220.637" height="185.752" rx="7.75" stroke="#FF21B2" stroke-opacity="0.08" stroke-width="0.5"/>
<rect x="245.955" y="16.541" width="66" height="14" rx="2" fill="#281E25"/>
<rect x="422.273" y="13.1328" width="20.8176" height="20.8176" rx="2" fill="#FF21B2" fill-opacity="0.08"/>
<g clip-path="url(#clip2_289_3058)">
<path d="M432.682 20.3374V23.5418L434.819 24.61M438.023 23.5418C438.023 26.4914 435.632 28.8825 432.682 28.8825C429.733 28.8825 427.342 26.4914 427.342 23.5418C427.342 20.5923 429.733 18.2012 432.682 18.2012C435.632 18.2012 438.023 20.5923 438.023 23.5418Z" stroke="#D8008D" stroke-width="1.28176" stroke-linecap="round" stroke-linejoin="round"/>
</g>
<path d="M245.955 41.9512H440.955" stroke="#313131"/>
<path d="M249.585 69.9512V58.719L247.069 60.2507V58.0878L249.585 56.584H251.562V69.9512H249.585ZM267.099 69.9512L267.108 63.7039C267.108 62.9798 266.922 62.4167 266.551 62.0144C266.18 61.606 265.691 61.4018 265.085 61.4018C264.713 61.4018 264.373 61.4884 264.063 61.6617C263.76 61.8288 263.513 62.0825 263.321 62.4229C263.135 62.757 263.042 63.1779 263.042 63.6853L262.105 63.2119C262.092 62.5064 262.241 61.8876 262.55 61.3553C262.866 60.8231 263.293 60.4116 263.831 60.1207C264.37 59.8237 264.973 59.6752 265.641 59.6752C266.724 59.6752 267.563 60.0001 268.157 60.6499C268.751 61.2996 269.048 62.1629 269.048 63.2397L269.039 69.9512H267.099ZM255.078 69.9512V59.9258H256.804V62.822H257.027V69.9512H255.078ZM261.093 69.9512L261.102 63.741C261.102 63.0108 260.917 62.4383 260.545 62.0237C260.18 61.6091 259.688 61.4018 259.069 61.4018C258.457 61.4018 257.962 61.6122 257.584 62.033C257.213 62.4538 257.027 63.0046 257.027 63.6853L256.099 63.0912C256.099 62.4352 256.257 61.8504 256.572 61.3368C256.888 60.8231 257.315 60.4178 257.853 60.1207C258.392 59.8237 259.001 59.6752 259.682 59.6752C260.394 59.6752 261 59.8268 261.501 60.13C262.003 60.4271 262.383 60.8448 262.643 61.3832C262.909 61.9216 263.042 62.5466 263.042 63.2583L263.033 69.9512H261.093ZM280.838 69.9512V67.6212H274.804V65.7832L279.148 56.584H281.367L277.023 65.7832H280.838V62.1629H282.806V65.7832H284.133V67.6212H282.806V69.9512H280.838ZM290.326 70.2297C289.639 70.2297 288.998 70.0904 288.404 69.8119C287.816 69.5273 287.312 69.1374 286.891 68.6423C286.47 68.141 286.17 67.5655 285.991 66.9157L287.856 66.4144C287.962 66.8105 288.141 67.154 288.395 67.4448C288.655 67.7357 288.958 67.9616 289.305 68.1225C289.651 68.2772 290.01 68.3545 290.381 68.3545C290.87 68.3545 291.313 68.237 291.709 68.0018C292.111 67.7666 292.427 67.451 292.656 67.055C292.891 66.6589 293.008 66.2226 293.008 65.7461C293.008 65.2572 292.888 64.8147 292.646 64.4187C292.411 64.0226 292.092 63.7101 291.69 63.4811C291.294 63.2459 290.858 63.1284 290.381 63.1284C289.837 63.1284 289.376 63.2366 288.998 63.4532C288.621 63.6698 288.327 63.9205 288.116 64.2051L286.427 63.6111L286.835 56.584H294.048V58.4127H287.829L288.618 57.6794L288.293 62.9427L287.912 62.4507C288.265 62.098 288.686 61.8288 289.175 61.6431C289.663 61.4575 290.149 61.3646 290.632 61.3646C291.461 61.3646 292.201 61.5565 292.851 61.9402C293.506 62.3238 294.023 62.8468 294.401 63.5089C294.778 64.1649 294.967 64.9106 294.967 65.7461C294.967 66.5753 294.753 67.3303 294.326 68.0111C293.899 68.6856 293.333 69.224 292.628 69.6263C291.922 70.0285 291.155 70.2297 290.326 70.2297ZM301.019 70.2204C299.8 70.2204 298.807 69.9512 298.04 69.4128C297.272 68.8744 296.802 68.1163 296.629 67.1385L298.615 66.8322C298.739 67.352 299.024 67.7635 299.469 68.0668C299.921 68.3638 300.481 68.5123 301.149 68.5123C301.756 68.5123 302.229 68.3886 302.57 68.141C302.916 67.8935 303.09 67.5531 303.09 67.1199C303.09 66.8662 303.028 66.662 302.904 66.5073C302.786 66.3464 302.536 66.1948 302.152 66.0524C301.768 65.9101 301.183 65.7337 300.398 65.5233C299.537 65.3005 298.854 65.0623 298.346 64.8085C297.845 64.5486 297.486 64.2485 297.269 63.9081C297.059 63.5615 296.954 63.1438 296.954 62.6549C296.954 62.0485 297.115 61.5193 297.436 61.0676C297.758 60.6158 298.21 60.2662 298.792 60.0186C299.38 59.7711 300.066 59.6473 300.852 59.6473C301.62 59.6473 302.304 59.768 302.904 60.0093C303.504 60.2507 303.99 60.5942 304.361 61.0397C304.733 61.4791 304.955 61.9959 305.03 62.59L303.043 62.952C302.975 62.4693 302.749 62.0887 302.365 61.8102C301.982 61.5317 301.484 61.3801 300.871 61.3553C300.283 61.3306 299.807 61.4296 299.441 61.6524C299.076 61.869 298.894 62.1691 298.894 62.5528C298.894 62.7756 298.962 62.9644 299.098 63.1191C299.24 63.2738 299.513 63.4223 299.915 63.5646C300.317 63.707 300.911 63.8772 301.697 64.0752C302.539 64.2918 303.207 64.5331 303.702 64.7992C304.197 65.0592 304.55 65.3717 304.76 65.7368C304.977 66.0957 305.085 66.532 305.085 67.0457C305.085 68.0358 304.723 68.8125 303.999 69.3756C303.281 69.9388 302.288 70.2204 301.019 70.2204Z" fill="white"/>
<g clip-path="url(#clip3_289_3058)">
<path d="M322.246 59.248L317.172 64.3217L314.502 61.6513L310.496 65.6568M322.246 59.248H319.041M322.246 59.248L322.246 62.4524" stroke="#59A784" stroke-width="0.8011" stroke-linecap="round" stroke-linejoin="round"/>
</g>
<path d="M329.514 59.4502V65.4512H328.787V60.212H328.752L327.287 61.1849V60.4465L328.787 59.4502H329.514ZM331.929 64.6307L331.882 64.9472C331.848 65.1699 331.798 65.4082 331.729 65.6621C331.663 65.9161 331.594 66.1554 331.521 66.38C331.449 66.6047 331.389 66.7834 331.343 66.9163H330.815C330.84 66.7912 330.874 66.6262 330.915 66.4211C330.956 66.2159 330.997 65.9864 331.038 65.7325C331.081 65.4805 331.116 65.2226 331.143 64.9589L331.178 64.6307H331.929ZM334.981 65.5332C334.735 65.5293 334.489 65.4824 334.243 65.3926C333.997 65.3027 333.772 65.1513 333.569 64.9384C333.366 64.7235 333.202 64.4334 333.079 64.0681C332.956 63.7009 332.895 63.2399 332.895 62.6851C332.895 62.1538 332.945 61.683 333.044 61.2728C333.144 60.8606 333.288 60.5139 333.478 60.2326C333.667 59.9493 333.896 59.7344 334.164 59.5879C334.433 59.4414 334.737 59.3682 335.075 59.3682C335.411 59.3682 335.71 59.4356 335.971 59.5703C336.235 59.7032 336.45 59.8888 336.616 60.1271C336.782 60.3654 336.89 60.6398 336.938 60.9504H336.223C336.157 60.6809 336.028 60.4572 335.837 60.2794C335.645 60.1017 335.391 60.0128 335.075 60.0128C334.61 60.0128 334.244 60.215 333.976 60.6193C333.71 61.0237 333.577 61.5912 333.575 62.3218H333.621C333.731 62.1557 333.861 62.0141 334.011 61.8969C334.164 61.7777 334.332 61.6859 334.515 61.6215C334.699 61.557 334.893 61.5248 335.098 61.5248C335.442 61.5248 335.757 61.6107 336.042 61.7826C336.327 61.9526 336.556 62.1879 336.727 62.4888C336.899 62.7877 336.985 63.1305 336.985 63.5173C336.985 63.8884 336.902 64.2283 336.736 64.537C336.57 64.8437 336.337 65.0878 336.036 65.2695C335.737 65.4492 335.385 65.5371 334.981 65.5332ZM334.981 64.8886C335.227 64.8886 335.448 64.827 335.643 64.704C335.841 64.5809 335.996 64.4158 336.109 64.2088C336.224 64.0017 336.282 63.7712 336.282 63.5173C336.282 63.2692 336.226 63.0436 336.115 62.8404C336.006 62.6353 335.854 62.4722 335.661 62.3511C335.469 62.2299 335.251 62.1694 335.005 62.1694C334.819 62.1694 334.646 62.2065 334.486 62.2807C334.326 62.353 334.185 62.4526 334.064 62.5796C333.945 62.7066 333.851 62.8521 333.783 63.0162C333.714 63.1783 333.68 63.3493 333.68 63.529C333.68 63.7673 333.736 63.99 333.847 64.1971C333.96 64.4041 334.115 64.5711 334.31 64.6981C334.507 64.8251 334.731 64.8886 334.981 64.8886ZM341.197 64.326V64.0095C341.197 63.7907 341.242 63.5905 341.331 63.4088C341.423 63.2252 341.556 63.0787 341.73 62.9693C341.906 62.858 342.119 62.8023 342.369 62.8023C342.623 62.8023 342.836 62.858 343.008 62.9693C343.179 63.0787 343.309 63.2252 343.397 63.4088C343.485 63.5905 343.529 63.7907 343.529 64.0095V64.326C343.529 64.5448 343.484 64.746 343.394 64.9296C343.306 65.1113 343.175 65.2578 343.002 65.3691C342.83 65.4785 342.619 65.5332 342.369 65.5332C342.115 65.5332 341.901 65.4785 341.727 65.3691C341.553 65.2578 341.421 65.1113 341.331 64.9296C341.242 64.746 341.197 64.5448 341.197 64.326ZM341.794 64.0095V64.326C341.794 64.5077 341.837 64.6708 341.923 64.8153C342.009 64.9579 342.158 65.0292 342.369 65.0292C342.574 65.0292 342.718 64.9579 342.802 64.8153C342.888 64.6708 342.931 64.5077 342.931 64.326V64.0095C342.931 63.8279 342.89 63.6657 342.808 63.5231C342.726 63.3786 342.58 63.3063 342.369 63.3063C342.164 63.3063 342.016 63.3786 341.926 63.5231C341.838 63.6657 341.794 63.8279 341.794 64.0095ZM338.208 60.8918V60.5754C338.208 60.3566 338.253 60.1564 338.343 59.9747C338.434 59.7911 338.567 59.6446 338.741 59.5352C338.917 59.4238 339.13 59.3682 339.38 59.3682C339.634 59.3682 339.847 59.4238 340.019 59.5352C340.191 59.6446 340.321 59.7911 340.408 59.9747C340.496 60.1564 340.54 60.3566 340.54 60.5754V60.8918C340.54 61.1106 340.495 61.3118 340.406 61.4955C340.318 61.6771 340.187 61.8236 340.013 61.935C339.841 62.0444 339.63 62.0991 339.38 62.0991C339.126 62.0991 338.912 62.0444 338.738 61.935C338.564 61.8236 338.433 61.6771 338.343 61.4955C338.253 61.3118 338.208 61.1106 338.208 60.8918ZM338.806 60.5754V60.8918C338.806 61.0735 338.849 61.2366 338.935 61.3812C339.021 61.5238 339.169 61.5951 339.38 61.5951C339.585 61.5951 339.73 61.5238 339.814 61.3812C339.9 61.2366 339.943 61.0735 339.943 60.8918V60.5754C339.943 60.3937 339.902 60.2316 339.819 60.089C339.737 59.9444 339.591 59.8721 339.38 59.8721C339.175 59.8721 339.027 59.9444 338.938 60.089C338.85 60.2316 338.806 60.3937 338.806 60.5754ZM338.431 65.4512L342.556 59.4502H343.224L339.099 65.4512H338.431ZM347.42 62.4507C347.42 61.7123 347.516 61.0335 347.707 60.4142C347.901 59.793 348.176 59.2217 348.534 58.7001H349.143C349.003 58.8935 348.871 59.1318 348.748 59.415C348.627 59.6963 348.52 60.006 348.428 60.3439C348.336 60.6799 348.264 61.0276 348.211 61.387C348.161 61.7465 348.135 62.101 348.135 62.4507C348.135 62.9156 348.18 63.3874 348.27 63.866C348.36 64.3445 348.481 64.789 348.633 65.1992C348.786 65.6094 348.956 65.9434 349.143 66.2013H348.534C348.176 65.6797 347.901 65.1093 347.707 64.4901C347.516 63.8689 347.42 63.1891 347.42 62.4507ZM351.922 64.3963V60.5285H352.578V64.3963H351.922ZM350.316 62.7906V62.1342H354.184V62.7906H350.316ZM357.522 65.5332C357.135 65.5332 356.79 65.4668 356.488 65.334C356.187 65.2011 355.948 65.0165 355.77 64.7802C355.594 64.5418 355.498 64.2654 355.483 63.9509H356.221C356.237 64.1443 356.303 64.3113 356.42 64.452C356.538 64.5907 356.691 64.6981 356.88 64.7743C357.07 64.8505 357.28 64.8886 357.51 64.8886C357.768 64.8886 357.997 64.8437 358.196 64.7538C358.395 64.6639 358.552 64.5389 358.665 64.3787C358.778 64.2186 358.835 64.033 358.835 63.822C358.835 63.6013 358.78 63.4069 358.671 63.2389C358.561 63.069 358.401 62.9361 358.19 62.8404C357.979 62.7447 357.721 62.6968 357.417 62.6968H356.936V62.0522H357.417C357.655 62.0522 357.864 62.0092 358.044 61.9233C358.225 61.8373 358.367 61.7162 358.468 61.5599C358.572 61.4036 358.624 61.22 358.624 61.009C358.624 60.8059 358.579 60.6291 358.489 60.4787C358.399 60.3283 358.272 60.2111 358.108 60.1271C357.946 60.0431 357.755 60.0011 357.534 60.0011C357.327 60.0011 357.131 60.0392 356.948 60.1153C356.766 60.1896 356.618 60.298 356.502 60.4406C356.387 60.5812 356.325 60.7512 356.315 60.9504H355.612C355.623 60.6359 355.718 60.3605 355.896 60.1241C356.074 59.8858 356.306 59.7002 356.593 59.5674C356.882 59.4346 357.2 59.3682 357.545 59.3682C357.917 59.3682 358.235 59.4434 358.501 59.5938C358.766 59.7422 358.971 59.9386 359.113 60.1827C359.256 60.4269 359.327 60.6906 359.327 60.9739C359.327 61.3118 359.238 61.6 359.06 61.8383C358.885 62.0766 358.645 62.2417 358.342 62.3335V62.3804C358.721 62.4429 359.017 62.604 359.23 62.8638C359.443 63.1217 359.55 63.4411 359.55 63.822C359.55 64.1482 359.461 64.4412 359.283 64.7011C359.107 64.9589 358.867 65.1621 358.562 65.3105C358.258 65.459 357.911 65.5332 357.522 65.5332ZM362.237 62.4507C362.237 63.1891 362.14 63.8689 361.947 64.4901C361.755 65.1093 361.481 65.6797 361.123 66.2013H360.514C360.654 66.0079 360.785 65.7696 360.906 65.4863C361.029 65.205 361.137 64.8964 361.229 64.5604C361.321 64.2225 361.392 63.8738 361.443 63.5143C361.495 63.1529 361.522 62.7984 361.522 62.4507C361.522 61.9858 361.477 61.514 361.387 61.0354C361.297 60.5568 361.176 60.1124 361.024 59.7022C360.871 59.292 360.701 58.9579 360.514 58.7001H361.123C361.481 59.2217 361.755 59.793 361.947 60.4142C362.14 61.0335 362.237 61.7123 362.237 62.4507Z" fill="#59A784"/>
<path opacity="0.48" d="M245.955 142.525L251.84 139.881H255.15L260.667 143.28L263.609 144.413L266.919 142.525L272.068 137.237L275.01 136.481L279.056 139.125L285.309 146.302L289.722 148.568L293.4 146.302L301.859 134.593L313.261 125.15L320.616 114.574L324.294 112.308L327.604 113.441L330.179 117.218L333.489 124.772L335.696 130.06L338.638 137.237L341.58 140.636H343.787L345.626 139.881L349.672 134.97L357.028 120.617L360.338 117.973L366.222 116.085L372.107 110.042L375.049 108.908L379.095 113.441L382.405 120.617L384.612 122.506L386.083 122.128L391.232 111.552L393.807 102.487L397.852 96.444L400.427 95.6886L404.105 98.7103L411.093 110.419L412.932 111.552L415.506 110.419L423.598 97.9548L427.643 94.9332L431.799 94.1777L434.263 94.5554H440.884V175.385H245.955V142.525Z" fill="url(#paint1_linear_289_3058)"/>
<path d="M246.342 142.525L247.503 141.736C249.052 140.836 252.15 139.035 255.249 140.071C258.347 141.106 261.446 144.978 264.544 143.967C267.642 142.955 270.741 137.06 273.839 136.431C276.937 135.801 280.036 140.438 283.134 143.857C286.232 147.277 289.331 149.48 292.429 147.236C295.527 144.991 298.626 138.298 301.724 134.647C304.822 130.996 307.921 130.386 311.019 127.173C314.117 123.961 317.216 118.145 320.314 114.946C323.413 111.747 326.511 111.164 329.609 116.288C332.708 121.412 335.806 132.242 338.904 137.335C342.003 142.427 345.101 141.782 348.199 137.121C351.298 132.46 354.396 123.784 357.494 120.141C360.593 116.497 363.691 117.887 366.789 115.544C369.888 113.202 372.986 107.127 376.084 109.722C379.183 112.316 382.281 123.579 385.38 122.464C388.478 121.35 391.576 107.858 394.675 101.146C397.773 94.4338 400.871 94.5009 403.97 98.692C407.068 102.883 410.166 111.198 413.265 111.454C416.363 111.71 419.461 103.907 422.56 99.5897C425.658 95.2721 428.756 94.4396 431.855 94.2333C434.953 94.0269 438.051 94.4467 439.601 94.6566H440.485" stroke="#59A784" stroke-width="0.755419" stroke-linecap="round"/>
<rect x="467.908" y="1.03125" width="221.137" height="186.454" rx="8" fill="#161014"/>
<rect x="468.158" y="1.28125" width="220.637" height="185.954" rx="7.75" stroke="#FF21B2" stroke-opacity="0.08" stroke-width="0.5"/>
<path opacity="0.56" d="M483.683 27.5942C482.944 27.5942 482.317 27.4309 481.801 27.1042C481.285 26.7776 480.891 26.3238 480.62 25.7428C480.352 25.1617 480.218 24.4896 480.218 23.7264C480.218 22.9631 480.352 22.291 480.62 21.7099C480.891 21.1289 481.285 20.6751 481.801 20.3485C482.317 20.0218 482.944 19.8585 483.683 19.8585C484.543 19.8585 485.249 20.0769 485.803 20.5135C486.36 20.9501 486.743 21.538 486.953 22.2772L486.019 22.5248C485.868 21.9712 485.598 21.5346 485.21 21.2149C484.821 20.8951 484.312 20.7352 483.683 20.7352C483.13 20.7352 482.669 20.8607 482.301 21.1117C481.933 21.3627 481.656 21.7134 481.471 22.1638C481.285 22.6107 481.191 23.1316 481.187 23.7264C481.184 24.3177 481.275 24.8386 481.46 25.2889C481.646 25.7359 481.925 26.0866 482.296 26.341C482.667 26.592 483.13 26.7175 483.683 26.7175C484.312 26.7175 484.821 26.5576 485.21 26.2379C485.598 25.9147 485.868 25.478 486.019 24.928L486.953 25.1755C486.743 25.9112 486.36 26.4991 485.803 26.9392C485.249 27.3758 484.543 27.5942 483.683 27.5942ZM490.456 27.5942C489.903 27.5942 489.425 27.4687 489.022 27.2177C488.624 26.9667 488.316 26.6195 488.099 26.176C487.883 25.7325 487.774 25.2236 487.774 24.6495C487.774 24.065 487.884 23.5527 488.104 23.1127C488.324 22.6726 488.636 22.3305 489.038 22.0864C489.44 21.8389 489.913 21.7151 490.456 21.7151C491.013 21.7151 491.493 21.8406 491.895 22.0916C492.297 22.3391 492.605 22.6846 492.818 23.1281C493.035 23.5682 493.143 24.0753 493.143 24.6495C493.143 25.2305 493.035 25.7428 492.818 26.1863C492.601 26.6264 492.292 26.9719 491.89 27.2229C491.487 27.4704 491.01 27.5942 490.456 27.5942ZM490.456 26.7226C491.034 26.7226 491.463 26.5301 491.745 26.145C492.027 25.76 492.168 25.2614 492.168 24.6495C492.168 24.0203 492.026 23.5201 491.74 23.1488C491.455 22.774 491.027 22.5866 490.456 22.5866C490.068 22.5866 489.748 22.6743 489.497 22.8496C489.246 23.025 489.058 23.2674 488.935 23.5768C488.811 23.8862 488.749 24.2438 488.749 24.6495C488.749 25.2752 488.893 25.7772 489.182 26.1553C489.471 26.5335 489.896 26.7226 490.456 26.7226ZM498.244 27.4395V24.6495C498.244 24.3847 498.22 24.1303 498.172 23.8862C498.127 23.6421 498.046 23.4238 497.93 23.2313C497.816 23.0353 497.661 22.8806 497.465 22.7671C497.273 22.6537 497.029 22.597 496.733 22.597C496.503 22.597 496.293 22.6365 496.104 22.7156C495.918 22.7912 495.758 22.9081 495.624 23.0662C495.49 23.2244 495.385 23.4238 495.31 23.6645C495.238 23.9017 495.201 24.1819 495.201 24.5051L494.598 24.3194C494.598 23.7796 494.694 23.3172 494.887 22.9322C495.083 22.5437 495.356 22.2463 495.707 22.04C496.061 21.8303 496.477 21.7254 496.955 21.7254C497.316 21.7254 497.624 21.7821 497.878 21.8956C498.132 22.009 498.344 22.1603 498.512 22.3494C498.681 22.5351 498.813 22.7448 498.909 22.9786C499.006 23.2089 499.073 23.4444 499.111 23.6851C499.152 23.9223 499.172 24.1475 499.172 24.3607V27.4395H498.244ZM494.273 27.4395V21.8698H495.098V23.3602H495.201V27.4395H494.273ZM502.019 27.4395L499.997 21.8698H500.926L502.488 26.2688L504.046 21.8698H504.979L502.958 27.4395H502.019ZM508.124 27.5942C507.577 27.5942 507.1 27.4738 506.69 27.2332C506.285 26.9891 505.968 26.6504 505.741 26.2172C505.515 25.7806 505.401 25.2718 505.401 24.6907C505.401 24.0822 505.513 23.5562 505.736 23.1127C505.96 22.6657 506.271 22.3219 506.67 22.0812C507.072 21.8371 507.543 21.7151 508.083 21.7151C508.643 21.7151 509.119 21.844 509.511 22.1019C509.907 22.3597 510.202 22.7276 510.398 23.2055C510.598 23.6834 510.684 24.2524 510.656 24.9125H509.728V24.5824C509.718 23.8983 509.578 23.3877 509.31 23.0508C509.042 22.7104 508.643 22.5402 508.114 22.5402C507.546 22.5402 507.115 22.7224 506.819 23.0869C506.524 23.4513 506.376 23.9739 506.376 24.6546C506.376 25.3113 506.524 25.8201 506.819 26.1811C507.115 26.5421 507.536 26.7226 508.083 26.7226C508.451 26.7226 508.77 26.6384 509.042 26.4699C509.314 26.3015 509.527 26.0591 509.681 25.7428L510.563 26.047C510.347 26.5387 510.02 26.9203 509.584 27.1919C509.15 27.4601 508.664 27.5942 508.124 27.5942ZM506.066 24.9125V24.175H510.182V24.9125H506.066ZM511.804 27.4395V21.8698H512.624V23.2158L512.49 23.0405C512.556 22.8686 512.64 22.7104 512.743 22.566C512.85 22.4216 512.968 22.303 513.099 22.2102C513.243 22.0933 513.406 22.0039 513.589 21.942C513.771 21.8801 513.957 21.844 514.146 21.8337C514.335 21.82 514.512 21.832 514.677 21.8698V22.731C514.484 22.6795 514.273 22.6657 514.043 22.6898C513.812 22.7138 513.599 22.7981 513.403 22.9425C513.224 23.0697 513.085 23.2244 512.985 23.4066C512.889 23.5888 512.822 23.7865 512.784 23.9997C512.746 24.2094 512.727 24.4243 512.727 24.6443V27.4395H511.804ZM517.555 27.589C516.891 27.589 516.346 27.4446 515.92 27.1558C515.497 26.8636 515.237 26.4562 515.141 25.9336L516.08 25.784C516.155 26.0866 516.329 26.3272 516.601 26.506C516.872 26.6814 517.209 26.769 517.611 26.769C517.993 26.769 518.292 26.69 518.509 26.5318C518.725 26.3737 518.834 26.1588 518.834 25.8872C518.834 25.729 518.798 25.6018 518.725 25.5055C518.653 25.4058 518.504 25.313 518.277 25.2271C518.053 25.1411 517.715 25.038 517.261 24.9176C516.769 24.787 516.382 24.6512 516.1 24.5102C515.818 24.3693 515.617 24.206 515.497 24.0203C515.377 23.8347 515.316 23.6095 515.316 23.3447C515.316 23.0181 515.406 22.7328 515.585 22.4887C515.763 22.2411 516.013 22.0503 516.332 21.9162C516.656 21.7821 517.03 21.7151 517.457 21.7151C517.88 21.7151 518.258 21.7821 518.591 21.9162C518.925 22.0503 519.193 22.2411 519.396 22.4887C519.602 22.7328 519.724 23.0181 519.762 23.3447L518.823 23.5149C518.779 23.2158 518.634 22.9803 518.39 22.8084C518.149 22.6365 517.838 22.5454 517.457 22.5351C517.096 22.5213 516.802 22.5849 516.575 22.7259C516.351 22.8668 516.24 23.0577 516.24 23.2983C516.24 23.4324 516.281 23.5476 516.363 23.6438C516.449 23.7401 516.606 23.8312 516.833 23.9172C517.063 24.0031 517.397 24.1011 517.833 24.2111C518.325 24.3349 518.712 24.4707 518.993 24.6185C519.279 24.7629 519.482 24.9348 519.602 25.1342C519.722 25.3302 519.783 25.5726 519.783 25.8614C519.783 26.3977 519.585 26.8206 519.189 27.13C518.794 27.436 518.249 27.589 517.555 27.589ZM522.503 27.5942C522.087 27.5942 521.738 27.5185 521.456 27.3673C521.178 27.2125 520.966 27.0097 520.822 26.7587C520.681 26.5077 520.61 26.2327 520.61 25.9336C520.61 25.6414 520.665 25.3887 520.776 25.1755C520.889 24.9589 521.047 24.7801 521.25 24.6392C521.453 24.4948 521.695 24.3813 521.977 24.2988C522.242 24.2266 522.538 24.1647 522.864 24.1131C523.194 24.0581 523.528 24.0083 523.865 23.9636C524.202 23.9189 524.516 23.8759 524.808 23.8347L524.478 24.0255C524.489 23.5304 524.389 23.1642 524.179 22.927C523.973 22.6898 523.615 22.5712 523.107 22.5712C522.77 22.5712 522.474 22.6485 522.219 22.8032C521.969 22.9545 521.791 23.202 521.688 23.5459L520.817 23.2828C520.951 22.7946 521.21 22.4113 521.595 22.1328C521.981 21.8543 522.488 21.7151 523.117 21.7151C523.622 21.7151 524.055 21.8062 524.416 21.9884C524.781 22.1672 525.042 22.4388 525.2 22.8032C525.279 22.9751 525.329 23.1625 525.35 23.3654C525.37 23.5648 525.381 23.7745 525.381 23.9945V27.4395H524.566V26.1038L524.757 26.2275C524.547 26.6779 524.253 27.0183 523.875 27.2486C523.5 27.479 523.043 27.5942 522.503 27.5942ZM522.642 26.8258C522.972 26.8258 523.258 26.7673 523.498 26.6504C523.743 26.5301 523.939 26.3737 524.086 26.1811C524.234 25.9852 524.33 25.772 524.375 25.5416C524.427 25.3697 524.454 25.1789 524.458 24.9692C524.465 24.7561 524.468 24.5927 524.468 24.4793L524.788 24.6185C524.489 24.6598 524.195 24.6993 523.906 24.7371C523.617 24.775 523.344 24.8162 523.086 24.8609C522.828 24.9022 522.596 24.952 522.39 25.0105C522.238 25.0586 522.096 25.1205 521.962 25.1961C521.831 25.2718 521.724 25.3697 521.642 25.4901C521.563 25.607 521.523 25.7531 521.523 25.9284C521.523 26.0797 521.561 26.2241 521.637 26.3616C521.716 26.4991 521.836 26.6109 521.998 26.6968C522.163 26.7828 522.378 26.8258 522.642 26.8258ZM529.831 27.4395C529.501 27.5048 529.175 27.5306 528.852 27.5168C528.532 27.5065 528.246 27.4429 527.995 27.326C527.744 27.2057 527.554 27.02 527.423 26.769C527.313 26.549 527.253 26.3272 527.242 26.1038C527.236 25.8769 527.232 25.6207 527.232 25.3354V20.3227H528.15V25.2941C528.15 25.521 528.152 25.7153 528.155 25.8769C528.162 26.0384 528.198 26.1777 528.264 26.2946C528.387 26.5146 528.583 26.6435 528.852 26.6814C529.123 26.7192 529.45 26.7089 529.831 26.6504V27.4395ZM526.103 22.6279V21.8698H529.831V22.6279H526.103ZM531.065 20.8848V19.9359H531.983V20.8848H531.065ZM531.065 27.4395V21.8698H531.983V27.4395H531.065ZM535.903 27.5942C535.349 27.5942 534.871 27.4687 534.469 27.2177C534.07 26.9667 533.763 26.6195 533.546 26.176C533.329 25.7325 533.221 25.2236 533.221 24.6495C533.221 24.065 533.331 23.5527 533.551 23.1127C533.771 22.6726 534.082 22.3305 534.485 22.0864C534.887 21.8389 535.36 21.7151 535.903 21.7151C536.46 21.7151 536.939 21.8406 537.342 22.0916C537.744 22.3391 538.052 22.6846 538.265 23.1281C538.481 23.5682 538.59 24.0753 538.59 24.6495C538.59 25.2305 538.481 25.7428 538.265 26.1863C538.048 26.6264 537.739 26.9719 537.337 27.2229C536.934 27.4704 536.456 27.5942 535.903 27.5942ZM535.903 26.7226C536.48 26.7226 536.91 26.5301 537.192 26.145C537.474 25.76 537.615 25.2614 537.615 24.6495C537.615 24.0203 537.472 23.5201 537.187 23.1488C536.902 22.774 536.474 22.5866 535.903 22.5866C535.514 22.5866 535.195 22.6743 534.944 22.8496C534.693 23.025 534.505 23.2674 534.382 23.5768C534.258 23.8862 534.196 24.2438 534.196 24.6495C534.196 25.2752 534.34 25.7772 534.629 26.1553C534.918 26.5335 535.342 26.7226 535.903 26.7226ZM543.691 27.4395V24.6495C543.691 24.3847 543.667 24.1303 543.619 23.8862C543.574 23.6421 543.493 23.4238 543.376 23.2313C543.263 23.0353 543.108 22.8806 542.912 22.7671C542.72 22.6537 542.476 22.597 542.18 22.597C541.95 22.597 541.74 22.6365 541.551 22.7156C541.365 22.7912 541.205 22.9081 541.071 23.0662C540.937 23.2244 540.832 23.4238 540.757 23.6645C540.684 23.9017 540.648 24.1819 540.648 24.5051L540.045 24.3194C540.045 23.7796 540.141 23.3172 540.334 22.9322C540.53 22.5437 540.803 22.2463 541.154 22.04C541.508 21.8303 541.924 21.7254 542.402 21.7254C542.763 21.7254 543.07 21.7821 543.325 21.8956C543.579 22.009 543.791 22.1603 543.959 22.3494C544.128 22.5351 544.26 22.7448 544.356 22.9786C544.452 23.2089 544.519 23.4444 544.557 23.6851C544.599 23.9223 544.619 24.1475 544.619 24.3607V27.4395H543.691ZM539.72 27.4395V21.8698H540.545V23.3602H540.648V27.4395H539.72ZM548.025 27.4395V20.0133H550.315C550.39 20.0133 550.523 20.015 550.712 20.0184C550.901 20.0218 551.081 20.0356 551.253 20.0597C551.827 20.1353 552.307 20.345 552.692 20.6888C553.08 21.0292 553.373 21.4624 553.569 21.9884C553.765 22.5144 553.863 23.0938 553.863 23.7264C553.863 24.359 553.765 24.9383 553.569 25.4643C553.373 25.9903 553.08 26.4252 552.692 26.769C552.307 27.1094 551.827 27.3174 551.253 27.393C551.081 27.4137 550.899 27.4274 550.706 27.4343C550.517 27.4377 550.387 27.4395 550.315 27.4395H548.025ZM548.969 26.5627H550.315C550.445 26.5627 550.591 26.5593 550.753 26.5524C550.914 26.5421 551.055 26.5266 551.176 26.506C551.581 26.4304 551.91 26.2602 552.161 25.9955C552.412 25.7307 552.596 25.4007 552.713 25.0053C552.829 24.6099 552.888 24.1836 552.888 23.7264C552.888 23.2588 552.828 22.8273 552.707 22.4319C552.591 22.0365 552.407 21.7082 552.156 21.4469C551.905 21.1856 551.578 21.0189 551.176 20.9467C551.055 20.9226 550.913 20.9071 550.748 20.9003C550.583 20.8934 550.438 20.89 550.315 20.89H548.969V26.5627ZM556.629 27.5942C556.213 27.5942 555.864 27.5185 555.582 27.3673C555.303 27.2125 555.092 27.0097 554.947 26.7587C554.806 26.5077 554.736 26.2327 554.736 25.9336C554.736 25.6414 554.791 25.3887 554.901 25.1755C555.014 24.9589 555.172 24.7801 555.375 24.6392C555.578 24.4948 555.821 24.3813 556.102 24.2988C556.367 24.2266 556.663 24.1647 556.99 24.1131C557.32 24.0581 557.653 24.0083 557.99 23.9636C558.327 23.9189 558.641 23.8759 558.934 23.8347L558.604 24.0255C558.614 23.5304 558.514 23.1642 558.305 22.927C558.098 22.6898 557.741 22.5712 557.232 22.5712C556.895 22.5712 556.599 22.6485 556.345 22.8032C556.094 22.9545 555.917 23.202 555.814 23.5459L554.942 23.2828C555.076 22.7946 555.336 22.4113 555.721 22.1328C556.106 21.8543 556.613 21.7151 557.242 21.7151C557.748 21.7151 558.181 21.8062 558.542 21.9884C558.906 22.1672 559.168 22.4388 559.326 22.8032C559.405 22.9751 559.455 23.1625 559.475 23.3654C559.496 23.5648 559.506 23.7745 559.506 23.9945V27.4395H558.691V26.1038L558.882 26.2275C558.672 26.6779 558.378 27.0183 558 27.2486C557.626 27.479 557.168 27.5942 556.629 27.5942ZM556.768 26.8258C557.098 26.8258 557.383 26.7673 557.624 26.6504C557.868 26.5301 558.064 26.3737 558.212 26.1811C558.36 25.9852 558.456 25.772 558.501 25.5416C558.552 25.3697 558.58 25.1789 558.583 24.9692C558.59 24.7561 558.593 24.5927 558.593 24.4793L558.913 24.6185C558.614 24.6598 558.32 24.6993 558.031 24.7371C557.742 24.775 557.469 24.8162 557.211 24.8609C556.953 24.9022 556.721 24.952 556.515 25.0105C556.364 25.0586 556.221 25.1205 556.087 25.1961C555.956 25.2718 555.85 25.3697 555.767 25.4901C555.688 25.607 555.649 25.7531 555.649 25.9284C555.649 26.0797 555.686 26.2241 555.762 26.3616C555.841 26.4991 555.962 26.6109 556.123 26.6968C556.288 26.7828 556.503 26.8258 556.768 26.8258ZM563.957 27.4395C563.627 27.5048 563.3 27.5306 562.977 27.5168C562.657 27.5065 562.372 27.4429 562.121 27.326C561.87 27.2057 561.679 27.02 561.548 26.769C561.438 26.549 561.378 26.3272 561.368 26.1038C561.361 25.8769 561.358 25.6207 561.358 25.3354V20.3227H562.276V25.2941C562.276 25.521 562.277 25.7153 562.281 25.8769C562.288 26.0384 562.324 26.1777 562.389 26.2946C562.513 26.5146 562.709 26.6435 562.977 26.6814C563.248 26.7192 563.575 26.7089 563.957 26.6504V27.4395ZM560.228 22.6279V21.8698H563.957V22.6279H560.228ZM566.671 27.5942C566.255 27.5942 565.906 27.5185 565.624 27.3673C565.345 27.2125 565.134 27.0097 564.99 26.7587C564.849 26.5077 564.778 26.2327 564.778 25.9336C564.778 25.6414 564.833 25.3887 564.943 25.1755C565.057 24.9589 565.215 24.7801 565.418 24.6392C565.62 24.4948 565.863 24.3813 566.145 24.2988C566.409 24.2266 566.705 24.1647 567.032 24.1131C567.362 24.0581 567.695 24.0083 568.032 23.9636C568.369 23.9189 568.684 23.8759 568.976 23.8347L568.646 24.0255C568.656 23.5304 568.556 23.1642 568.347 22.927C568.14 22.6898 567.783 22.5712 567.274 22.5712C566.937 22.5712 566.642 22.6485 566.387 22.8032C566.136 22.9545 565.959 23.202 565.856 23.5459L564.984 23.2828C565.118 22.7946 565.378 22.4113 565.763 22.1328C566.148 21.8543 566.655 21.7151 567.284 21.7151C567.79 21.7151 568.223 21.8062 568.584 21.9884C568.948 22.1672 569.21 22.4388 569.368 22.8032C569.447 22.9751 569.497 23.1625 569.517 23.3654C569.538 23.5648 569.548 23.7745 569.548 23.9945V27.4395H568.734V26.1038L568.924 26.2275C568.715 26.6779 568.421 27.0183 568.043 27.2486C567.668 27.479 567.21 27.5942 566.671 27.5942ZM566.81 26.8258C567.14 26.8258 567.425 26.7673 567.666 26.6504C567.91 26.5301 568.106 26.3737 568.254 26.1811C568.402 25.9852 568.498 25.772 568.543 25.5416C568.594 25.3697 568.622 25.1789 568.625 24.9692C568.632 24.7561 568.636 24.5927 568.636 24.4793L568.955 24.6185C568.656 24.6598 568.362 24.6993 568.073 24.7371C567.785 24.775 567.511 24.8162 567.253 24.8609C566.996 24.9022 566.764 24.952 566.557 25.0105C566.406 25.0586 566.263 25.1205 566.129 25.1961C565.999 25.2718 565.892 25.3697 565.809 25.4901C565.73 25.607 565.691 25.7531 565.691 25.9284C565.691 26.0797 565.729 26.2241 565.804 26.3616C565.883 26.4991 566.004 26.6109 566.165 26.6968C566.33 26.7828 566.545 26.8258 566.81 26.8258Z" fill="white"/>
<rect x="656.227" y="13.0312" width="20.8176" height="20.8176" rx="2" fill="#FF21B2" fill-opacity="0.08"/>
<g clip-path="url(#clip4_289_3058)">
<path d="M671.976 23.4394H669.84L668.238 28.246L665.033 18.6328L663.431 23.4394H661.295" stroke="#D8008D" stroke-width="1.28176" stroke-linecap="round" stroke-linejoin="round"/>
</g>
<path d="M479.908 41.8496H674.908" stroke="#313131"/>
<path d="M485.487 70.1281C484.615 70.1281 483.841 69.9548 483.166 69.6083C482.498 69.2555 481.972 68.7666 481.588 68.1416C481.211 67.5165 481.022 66.7925 481.022 65.9694C481.022 65.202 481.202 64.4997 481.561 63.8622C481.919 63.2248 482.455 62.7236 483.166 62.3584L483.129 63.0268C482.56 62.674 482.121 62.2347 481.811 61.7086C481.508 61.1764 481.356 60.5823 481.356 59.9264C481.356 59.1652 481.533 58.5061 481.885 57.9491C482.238 57.3922 482.724 56.9621 483.343 56.6588C483.968 56.3556 484.683 56.204 485.487 56.204C486.292 56.204 487.003 56.3556 487.622 56.6588C488.241 56.9621 488.727 57.3922 489.08 57.9491C489.432 58.5061 489.609 59.1652 489.609 59.9264C489.609 60.5823 489.463 61.1733 489.172 61.6994C488.882 62.2254 488.436 62.6679 487.836 63.0268L487.808 62.377C488.513 62.7236 489.049 63.2186 489.414 63.8622C489.779 64.4997 489.961 65.202 489.961 65.9694C489.961 66.7925 489.77 67.5165 489.386 68.1416C489.002 68.7666 488.473 69.2555 487.799 69.6083C487.124 69.9548 486.354 70.1281 485.487 70.1281ZM485.487 68.2808C486.205 68.2808 486.787 68.0859 487.232 67.696C487.678 67.2999 487.901 66.7244 487.901 65.9694C487.901 65.2144 487.678 64.6389 487.232 64.2428C486.793 63.8406 486.211 63.6394 485.487 63.6394C484.763 63.6394 484.178 63.8406 483.733 64.2428C483.293 64.6389 483.074 65.2144 483.074 65.9694C483.074 66.7244 483.296 67.2999 483.742 67.696C484.188 68.0859 484.769 68.2808 485.487 68.2808ZM485.487 61.7829C486.1 61.7829 486.595 61.6313 486.972 61.328C487.356 61.0186 487.548 60.5514 487.548 59.9264C487.548 59.3013 487.356 58.8341 486.972 58.5247C486.595 58.209 486.1 58.0512 485.487 58.0512C484.874 58.0512 484.376 58.209 483.993 58.5247C483.609 58.8341 483.417 59.3013 483.417 59.9264C483.417 60.5514 483.609 61.0186 483.993 61.328C484.376 61.6313 484.874 61.7829 485.487 61.7829Z" fill="white"/>
<g clip-path="url(#clip5_289_3058)">
<path d="M508.199 65.5553L503.125 60.4817L500.455 63.152L496.449 59.1465M508.199 65.5553H504.994M508.199 65.5553L508.199 62.3509" stroke="#AA4849" stroke-width="0.8011" stroke-linecap="round" stroke-linejoin="round"/>
</g>
<path d="M515.467 59.3486V65.3496H514.741V60.1105H514.705L513.24 61.0833V60.3449L514.741 59.3486H515.467ZM519.186 65.4317C518.939 65.4277 518.693 65.3809 518.447 65.291C518.201 65.2011 517.976 65.0498 517.773 64.8368C517.57 64.622 517.407 64.3319 517.284 63.9666C517.161 63.5993 517.099 63.1383 517.099 62.5835C517.099 62.0522 517.149 61.5814 517.249 61.1712C517.348 60.759 517.493 60.4123 517.682 60.131C517.872 59.8477 518.1 59.6329 518.368 59.4864C518.638 59.3398 518.941 59.2666 519.279 59.2666C519.615 59.2666 519.914 59.334 520.176 59.4688C520.44 59.6016 520.655 59.7872 520.821 60.0255C520.987 60.2638 521.094 60.5383 521.143 60.8489H520.428C520.362 60.5793 520.233 60.3556 520.041 60.1779C519.85 60.0001 519.596 59.9112 519.279 59.9112C518.814 59.9112 518.448 60.1134 518.181 60.5178C517.915 60.9221 517.781 61.4896 517.779 62.2202H517.826C517.935 62.0542 518.065 61.9125 518.216 61.7953C518.368 61.6762 518.536 61.5844 518.72 61.5199C518.903 61.4554 519.098 61.4232 519.303 61.4232C519.647 61.4232 519.961 61.5091 520.246 61.681C520.532 61.851 520.76 62.0864 520.932 62.3872C521.104 62.6861 521.19 63.0289 521.19 63.4157C521.19 63.7869 521.107 64.1268 520.941 64.4354C520.775 64.7421 520.541 64.9863 520.24 65.1679C519.942 65.3477 519.59 65.4356 519.186 65.4317ZM519.186 64.787C519.432 64.787 519.652 64.7255 519.848 64.6024C520.045 64.4794 520.2 64.3143 520.314 64.1072C520.429 63.9002 520.487 63.6697 520.487 63.4157C520.487 63.1676 520.431 62.942 520.32 62.7388C520.21 62.5337 520.059 62.3706 519.865 62.2495C519.674 62.1284 519.455 62.0678 519.209 62.0678C519.023 62.0678 518.851 62.1049 518.69 62.1792C518.53 62.2515 518.39 62.3511 518.268 62.4781C518.149 62.605 518.056 62.7506 517.987 62.9146C517.919 63.0768 517.885 63.2477 517.885 63.4274C517.885 63.6657 517.94 63.8884 518.052 64.0955C518.165 64.3026 518.319 64.4696 518.515 64.5966C518.712 64.7235 518.936 64.787 519.186 64.787ZM523.103 64.5292L523.056 64.8456C523.023 65.0683 522.972 65.3066 522.904 65.5606C522.838 65.8145 522.768 66.0538 522.696 66.2785C522.624 66.5031 522.564 66.6819 522.517 66.8147H521.99C522.015 66.6897 522.048 66.5246 522.089 66.3195C522.13 66.1144 522.171 65.8849 522.212 65.6309C522.255 65.3789 522.291 65.1211 522.318 64.8573L522.353 64.5292H523.103ZM525.765 59.3486V65.3496H525.039V60.1105H525.003L523.538 61.0833V60.3449L525.039 59.3486H525.765ZM530.55 64.2244V63.908C530.55 63.6892 530.595 63.489 530.685 63.3073C530.777 63.1237 530.91 62.9772 531.084 62.8678C531.259 62.7564 531.472 62.7007 531.722 62.7007C531.976 62.7007 532.189 62.7564 532.361 62.8678C532.533 62.9772 532.663 63.1237 532.751 63.3073C532.839 63.489 532.883 63.6892 532.883 63.908V64.2244C532.883 64.4432 532.838 64.6444 532.748 64.828C532.66 65.0097 532.529 65.1562 532.355 65.2676C532.183 65.377 531.972 65.4317 531.722 65.4317C531.468 65.4317 531.254 65.377 531.081 65.2676C530.907 65.1562 530.775 65.0097 530.685 64.828C530.595 64.6444 530.55 64.4432 530.55 64.2244ZM531.148 63.908V64.2244C531.148 64.4061 531.191 64.5692 531.277 64.7138C531.363 64.8564 531.511 64.9277 531.722 64.9277C531.927 64.9277 532.072 64.8564 532.156 64.7138C532.242 64.5692 532.285 64.4061 532.285 64.2244V63.908C532.285 63.7263 532.244 63.5642 532.162 63.4216C532.08 63.277 531.933 63.2047 531.722 63.2047C531.517 63.2047 531.37 63.277 531.28 63.4216C531.192 63.5642 531.148 63.7263 531.148 63.908ZM527.561 60.7903V60.4738C527.561 60.255 527.606 60.0548 527.696 59.8731C527.788 59.6895 527.921 59.543 528.095 59.4336C528.271 59.3223 528.483 59.2666 528.734 59.2666C528.987 59.2666 529.2 59.3223 529.372 59.4336C529.544 59.543 529.674 59.6895 529.762 59.8731C529.85 60.0548 529.894 60.255 529.894 60.4738V60.7903C529.894 61.0091 529.849 61.2103 529.759 61.3939C529.671 61.5756 529.54 61.7221 529.366 61.8334C529.195 61.9428 528.984 61.9975 528.734 61.9975C528.48 61.9975 528.266 61.9428 528.092 61.8334C527.918 61.7221 527.786 61.5756 527.696 61.3939C527.606 61.2103 527.561 61.0091 527.561 60.7903ZM528.159 60.4738V60.7903C528.159 60.9719 528.202 61.1351 528.288 61.2796C528.374 61.4222 528.523 61.4935 528.734 61.4935C528.939 61.4935 529.083 61.4222 529.167 61.2796C529.253 61.1351 529.296 60.9719 529.296 60.7903V60.4738C529.296 60.2922 529.255 60.13 529.173 59.9874C529.091 59.8429 528.945 59.7706 528.734 59.7706C528.528 59.7706 528.381 59.8429 528.291 59.9874C528.203 60.13 528.159 60.2922 528.159 60.4738ZM527.784 65.3496L531.91 59.3486H532.578L528.452 65.3496H527.784ZM536.774 62.3491C536.774 61.6107 536.87 60.9319 537.061 60.3127C537.254 59.6915 537.53 59.1201 537.887 58.5985H538.497C538.356 58.7919 538.224 59.0302 538.101 59.3135C537.98 59.5948 537.874 59.9044 537.782 60.2423C537.69 60.5783 537.618 60.926 537.565 61.2855C537.514 61.6449 537.489 61.9995 537.489 62.3491C537.489 62.814 537.534 63.2858 537.624 63.7644C537.714 64.243 537.835 64.6874 537.987 65.0976C538.139 65.5078 538.309 65.8419 538.497 66.0997H537.887C537.53 65.5782 537.254 65.0078 537.061 64.3885C536.87 63.7673 536.774 63.0875 536.774 62.3491ZM541.275 64.2948V60.4269H541.932V64.2948H541.275ZM539.67 62.689V62.0327H543.537V62.689H539.67ZM546.82 65.4317C546.476 65.4317 546.167 65.3633 545.891 65.2265C545.616 65.0898 545.395 64.9023 545.229 64.664C545.063 64.4256 544.972 64.1541 544.956 63.8494H545.66C545.687 64.1209 545.81 64.3455 546.029 64.5233C546.25 64.6991 546.513 64.787 546.82 64.787C547.066 64.787 547.285 64.7294 547.476 64.6141C547.67 64.4989 547.821 64.3407 547.93 64.1395C548.042 63.9363 548.098 63.7068 548.098 63.4509C548.098 63.1891 548.04 62.9557 547.925 62.7506C547.811 62.5435 547.655 62.3804 547.456 62.2612C547.257 62.1421 547.029 62.0815 546.773 62.0795C546.589 62.0776 546.401 62.1059 546.208 62.1645C546.014 62.2212 545.855 62.2944 545.73 62.3843L545.05 62.3022L545.413 59.3486H548.531V59.9933H546.023L545.812 61.7631H545.847C545.97 61.6654 546.125 61.5844 546.31 61.5199C546.496 61.4554 546.689 61.4232 546.89 61.4232C547.258 61.4232 547.585 61.5111 547.872 61.6869C548.161 61.8608 548.388 62.0991 548.552 62.4019C548.718 62.7047 548.801 63.0504 548.801 63.4391C548.801 63.822 548.715 64.1639 548.543 64.4647C548.373 64.7636 548.139 64.9999 547.84 65.1738C547.541 65.3457 547.201 65.4317 546.82 65.4317ZM551.453 62.3491C551.453 63.0875 551.357 63.7673 551.163 64.3885C550.972 65.0078 550.697 65.5782 550.34 66.0997H549.73C549.871 65.9063 550.002 65.668 550.123 65.3848C550.246 65.1035 550.353 64.7948 550.445 64.4588C550.537 64.1209 550.608 63.7722 550.659 63.4128C550.712 63.0514 550.738 62.6968 550.738 62.3491C550.738 61.8842 550.693 61.4125 550.604 60.9339C550.514 60.4553 550.393 60.0109 550.24 59.6006C550.088 59.1904 549.918 58.8564 549.73 58.5985H550.34C550.697 59.1201 550.972 59.6915 551.163 60.3127C551.357 60.9319 551.453 61.6107 551.453 62.3491Z" fill="#AA4849"/>
<path opacity="0.48" d="M675.571 149.977L671.893 138.646L668.583 127.692L663.801 117.494L660.124 114.472H656.813L652.4 117.116L647.987 119.005L643.573 118.627H638.424L635.849 119.383L633.275 122.404L628.126 129.581L622.241 136.38L620.034 137.513L617.092 137.89L612.679 135.247L607.897 126.559L602.748 114.85L599.806 106.541L593.921 97.4756L590.611 95.2093H585.83L583.256 97.0978L580.313 99.3641L577.739 101.253L575.164 103.519L573.325 105.407L570.015 107.296L565.969 108.051L558.981 110.318L554.936 114.095L550.522 117.872L546.477 121.271L542.799 122.027L538.753 120.516L537.65 119.383L535.443 117.494L530.662 111.073L525.513 104.652L521.835 101.253L519.26 100.497L515.95 100.875L511.537 103.519L508.962 104.652L506.387 105.03L502.342 103.519L497.193 98.9864L491.676 95.2093L486.159 94.0762L479.907 94.8316V175.486H675.766L675.571 149.977Z" fill="url(#paint2_linear_289_3058)"/>
<path d="M480.27 94.7838L482.435 94.4314C484.601 94.0789 488.933 93.3739 493.265 96.0352C497.597 98.6965 501.928 104.724 506.26 104.956C510.592 105.187 514.923 99.6228 519.255 100.308C523.587 100.993 527.919 107.927 532.25 113.418C536.582 118.909 540.914 122.956 545.246 121.724C549.577 120.492 553.909 113.981 558.241 111.079C562.573 108.178 566.904 108.887 571.236 106.506C575.568 104.125 579.9 98.6548 584.231 96.2902C588.563 93.9255 592.895 94.6664 597.227 102.18C601.558 109.693 605.89 123.979 610.222 131.455C614.554 138.93 618.885 139.597 623.217 135.497C627.549 131.398 631.881 122.533 636.212 119.641C640.544 116.749 644.876 119.83 649.208 118.482C653.539 117.134 657.871 111.357 662.203 115.868C666.535 120.379 670.866 135.178 673.032 142.578L675.198 149.977" stroke="#AA4849" stroke-width="0.755419" stroke-linecap="round"/>
<rect x="701.863" width="221.137" height="188.518" rx="8" fill="#161014"/>
<rect x="702.113" y="0.25" width="220.637" height="188.018" rx="7.75" stroke="#FF21B2" stroke-opacity="0.08" stroke-width="0.5"/>
<path opacity="0.56" d="M717.638 26.5629C716.899 26.5629 716.272 26.3996 715.756 26.073C715.24 25.7464 714.847 25.2926 714.575 24.7115C714.307 24.1305 714.173 23.4584 714.173 22.6951C714.173 21.9319 714.307 21.2597 714.575 20.6787C714.847 20.0977 715.24 19.6438 715.756 19.3172C716.272 18.9906 716.899 18.8273 717.638 18.8273C718.498 18.8273 719.204 19.0456 719.758 19.4822C720.315 19.9189 720.698 20.5068 720.908 21.246L719.974 21.4935C719.823 20.94 719.553 20.5033 719.165 20.1836C718.776 19.8639 718.267 19.704 717.638 19.704C717.085 19.704 716.624 19.8295 716.256 20.0805C715.888 20.3314 715.612 20.6821 715.426 21.1325C715.24 21.5795 715.146 22.1003 715.142 22.6951C715.139 23.2864 715.23 23.8073 715.416 24.2577C715.601 24.7046 715.88 25.0553 716.251 25.3097C716.622 25.5607 717.085 25.6862 717.638 25.6862C718.267 25.6862 718.776 25.5263 719.165 25.2066C719.553 24.8834 719.823 24.4468 719.974 23.8967L720.908 24.1442C720.698 24.88 720.315 25.4679 719.758 25.908C719.204 26.3446 718.498 26.5629 717.638 26.5629ZM726.005 26.4082V23.6182C726.005 23.3535 725.981 23.0991 725.932 22.855C725.888 22.6109 725.807 22.3926 725.69 22.2C725.577 22.0041 725.422 21.8493 725.226 21.7359C725.033 21.6224 724.789 21.5657 724.494 21.5657C724.263 21.5657 724.054 21.6052 723.864 21.6843C723.679 21.76 723.519 21.8768 723.385 22.035C723.251 22.1931 723.146 22.3926 723.07 22.6332C722.998 22.8704 722.962 23.1506 722.962 23.4738L722.359 23.2882C722.359 22.7484 722.455 22.286 722.647 21.9009C722.843 21.5124 723.117 21.215 723.467 21.0087C723.822 20.799 724.238 20.6942 724.715 20.6942C725.076 20.6942 725.384 20.7509 725.639 20.8643C725.893 20.9778 726.104 21.1291 726.273 21.3182C726.441 21.5038 726.574 21.7135 726.67 21.9473C726.766 22.1777 726.833 22.4132 726.871 22.6538C726.912 22.8911 726.933 23.1163 726.933 23.3294V26.4082H726.005ZM722.034 26.4082V18.982H722.859V23.0819H722.962V26.4082H722.034ZM729.857 26.5629C729.441 26.5629 729.092 26.4873 728.81 26.336C728.532 26.1813 728.32 25.9784 728.176 25.7275C728.035 25.4765 727.964 25.2014 727.964 24.9023C727.964 24.6101 728.019 24.3574 728.129 24.1442C728.243 23.9276 728.401 23.7489 728.604 23.6079C728.807 23.4635 729.049 23.3501 729.331 23.2675C729.596 23.1953 729.891 23.1335 730.218 23.0819C730.548 23.0269 730.881 22.977 731.218 22.9323C731.555 22.8876 731.87 22.8447 732.162 22.8034L731.832 22.9942C731.842 22.4991 731.743 22.133 731.533 21.8958C731.327 21.6585 730.969 21.5399 730.46 21.5399C730.123 21.5399 729.828 21.6173 729.573 21.772C729.322 21.9233 729.145 22.1708 729.042 22.5146L728.171 22.2516C728.305 21.7634 728.564 21.38 728.949 21.1016C729.334 20.8231 729.841 20.6838 730.471 20.6838C730.976 20.6838 731.409 20.7749 731.77 20.9572C732.135 21.1359 732.396 21.4076 732.554 21.772C732.633 21.9439 732.683 22.1313 732.704 22.3341C732.724 22.5335 732.735 22.7432 732.735 22.9633V26.4082H731.92V25.0725L732.111 25.1963C731.901 25.6467 731.607 25.987 731.229 26.2174C730.854 26.4477 730.397 26.5629 729.857 26.5629ZM729.996 25.7945C730.326 25.7945 730.612 25.7361 730.852 25.6192C731.096 25.4988 731.292 25.3424 731.44 25.1499C731.588 24.9539 731.684 24.7407 731.729 24.5104C731.781 24.3385 731.808 24.1477 731.811 23.938C731.818 23.7248 731.822 23.5615 731.822 23.448L732.142 23.5873C731.842 23.6285 731.548 23.6681 731.26 23.7059C730.971 23.7437 730.698 23.785 730.44 23.8297C730.182 23.8709 729.95 23.9208 729.743 23.9792C729.592 24.0273 729.45 24.0892 729.315 24.1649C729.185 24.2405 729.078 24.3385 728.996 24.4588C728.917 24.5757 728.877 24.7218 728.877 24.8972C728.877 25.0485 728.915 25.1929 728.991 25.3304C729.07 25.4679 729.19 25.5796 729.352 25.6656C729.517 25.7515 729.731 25.7945 729.996 25.7945ZM737.185 26.4082C736.855 26.4735 736.528 26.4993 736.205 26.4856C735.886 26.4752 735.6 26.4116 735.349 26.2947C735.098 26.1744 734.907 25.9888 734.777 25.7378C734.667 25.5177 734.607 25.296 734.596 25.0725C734.589 24.8456 734.586 24.5895 734.586 24.3041V19.2914H735.504V24.2629C735.504 24.4898 735.506 24.684 735.509 24.8456C735.516 25.0072 735.552 25.1464 735.617 25.2633C735.741 25.4834 735.937 25.6123 736.205 25.6501C736.477 25.6879 736.804 25.6776 737.185 25.6192V26.4082ZM733.457 21.5966V20.8386H737.185V21.5966H733.457ZM742.485 26.5578C741.821 26.5578 741.276 26.4134 740.85 26.1246C740.427 25.8323 740.168 25.4249 740.071 24.9023L741.01 24.7528C741.086 25.0553 741.259 25.296 741.531 25.4748C741.802 25.6501 742.139 25.7378 742.542 25.7378C742.923 25.7378 743.222 25.6587 743.439 25.5006C743.656 25.3424 743.764 25.1275 743.764 24.8559C743.764 24.6978 743.728 24.5706 743.656 24.4743C743.583 24.3746 743.434 24.2818 743.207 24.1958C742.983 24.1099 742.645 24.0067 742.191 23.8864C741.699 23.7557 741.312 23.6199 741.031 23.479C740.749 23.338 740.548 23.1747 740.427 22.9891C740.307 22.8034 740.247 22.5782 740.247 22.3135C740.247 21.9869 740.336 21.7015 740.515 21.4574C740.694 21.2099 740.943 21.0191 741.263 20.885C741.586 20.7509 741.961 20.6838 742.387 20.6838C742.81 20.6838 743.188 20.7509 743.521 20.885C743.855 21.0191 744.123 21.2099 744.326 21.4574C744.532 21.7015 744.654 21.9869 744.692 22.3135L743.753 22.4837C743.709 22.1846 743.564 21.949 743.32 21.7771C743.08 21.6052 742.768 21.5141 742.387 21.5038C742.026 21.4901 741.732 21.5537 741.505 21.6946C741.282 21.8356 741.17 22.0264 741.17 22.2671C741.17 22.4011 741.211 22.5163 741.294 22.6126C741.38 22.7089 741.536 22.8 741.763 22.8859C741.993 22.9719 742.327 23.0699 742.763 23.1799C743.255 23.3036 743.642 23.4394 743.924 23.5873C744.209 23.7317 744.412 23.9036 744.532 24.103C744.653 24.299 744.713 24.5413 744.713 24.8301C744.713 25.3665 744.515 25.7894 744.12 26.0988C743.724 26.4048 743.179 26.5578 742.485 26.5578ZM748.264 26.5629C747.717 26.5629 747.239 26.4426 746.83 26.2019C746.424 25.9578 746.108 25.6192 745.881 25.186C745.654 24.7493 745.541 24.2405 745.541 23.6595C745.541 23.0509 745.652 22.5249 745.876 22.0814C746.099 21.6345 746.41 21.2907 746.809 21.05C747.212 20.8059 747.683 20.6838 748.222 20.6838C748.783 20.6838 749.259 20.8128 749.651 21.0706C750.046 21.3285 750.342 21.6963 750.538 22.1742C750.737 22.6521 750.823 23.2211 750.796 23.8812H749.867V23.5512C749.857 22.867 749.718 22.3565 749.45 22.0195C749.182 21.6792 748.783 21.509 748.253 21.509C747.686 21.509 747.255 21.6912 746.959 22.0556C746.663 22.4201 746.515 22.9426 746.515 23.6234C746.515 24.28 746.663 24.7889 746.959 25.1499C747.255 25.5109 747.676 25.6914 748.222 25.6914C748.59 25.6914 748.91 25.6071 749.182 25.4387C749.453 25.2702 749.666 25.0278 749.821 24.7115L750.703 25.0158C750.486 25.5074 750.16 25.8891 749.723 26.1607C749.29 26.4288 748.803 26.5629 748.264 26.5629ZM746.206 23.8812V23.1438H750.321V23.8812H746.206ZM754.048 26.5578C753.384 26.5578 752.84 26.4134 752.413 26.1246C751.99 25.8323 751.731 25.4249 751.634 24.9023L752.573 24.7528C752.649 25.0553 752.822 25.296 753.094 25.4748C753.366 25.6501 753.702 25.7378 754.105 25.7378C754.486 25.7378 754.785 25.6587 755.002 25.5006C755.219 25.3424 755.327 25.1275 755.327 24.8559C755.327 24.6978 755.291 24.5706 755.219 24.4743C755.146 24.3746 754.997 24.2818 754.77 24.1958C754.547 24.1099 754.208 24.0067 753.754 23.8864C753.262 23.7557 752.876 23.6199 752.594 23.479C752.312 23.338 752.111 23.1747 751.99 22.9891C751.87 22.8034 751.81 22.5782 751.81 22.3135C751.81 21.9869 751.899 21.7015 752.078 21.4574C752.257 21.2099 752.506 21.0191 752.826 20.885C753.149 20.7509 753.524 20.6838 753.95 20.6838C754.373 20.6838 754.751 20.7509 755.085 20.885C755.418 21.0191 755.686 21.2099 755.889 21.4574C756.095 21.7015 756.217 21.9869 756.255 22.3135L755.317 22.4837C755.272 22.1846 755.128 21.949 754.883 21.7771C754.643 21.6052 754.332 21.5141 753.95 21.5038C753.589 21.4901 753.295 21.5537 753.068 21.6946C752.845 21.8356 752.733 22.0264 752.733 22.2671C752.733 22.4011 752.774 22.5163 752.857 22.6126C752.943 22.7089 753.099 22.8 753.326 22.8859C753.556 22.9719 753.89 23.0699 754.326 23.1799C754.818 23.3036 755.205 23.4394 755.487 23.5873C755.772 23.7317 755.975 23.9036 756.095 24.103C756.216 24.299 756.276 24.5413 756.276 24.8301C756.276 25.3665 756.078 25.7894 755.683 26.0988C755.287 26.4048 754.742 26.5578 754.048 26.5578ZM759.517 26.5578C758.854 26.5578 758.309 26.4134 757.883 26.1246C757.46 25.8323 757.2 25.4249 757.104 24.9023L758.042 24.7528C758.118 25.0553 758.292 25.296 758.563 25.4748C758.835 25.6501 759.172 25.7378 759.574 25.7378C759.956 25.7378 760.255 25.6587 760.471 25.5006C760.688 25.3424 760.796 25.1275 760.796 24.8559C760.796 24.6978 760.76 24.5706 760.688 24.4743C760.616 24.3746 760.466 24.2818 760.239 24.1958C760.016 24.1099 759.677 24.0067 759.223 23.8864C758.732 23.7557 758.345 23.6199 758.063 23.479C757.781 23.338 757.58 23.1747 757.46 22.9891C757.339 22.8034 757.279 22.5782 757.279 22.3135C757.279 21.9869 757.369 21.7015 757.547 21.4574C757.726 21.2099 757.975 21.0191 758.295 20.885C758.618 20.7509 758.993 20.6838 759.419 20.6838C759.842 20.6838 760.22 20.7509 760.554 20.885C760.887 21.0191 761.156 21.2099 761.358 21.4574C761.565 21.7015 761.687 21.9869 761.725 22.3135L760.786 22.4837C760.741 22.1846 760.597 21.949 760.353 21.7771C760.112 21.6052 759.801 21.5141 759.419 21.5038C759.058 21.4901 758.764 21.5537 758.537 21.6946C758.314 21.8356 758.202 22.0264 758.202 22.2671C758.202 22.4011 758.244 22.5163 758.326 22.6126C758.412 22.7089 758.568 22.8 758.795 22.8859C759.026 22.9719 759.359 23.0699 759.796 23.1799C760.287 23.3036 760.674 23.4394 760.956 23.5873C761.242 23.7317 761.444 23.9036 761.565 24.103C761.685 24.299 761.745 24.5413 761.745 24.8301C761.745 25.3665 761.547 25.7894 761.152 26.0988C760.757 26.4048 760.212 26.5578 759.517 26.5578ZM762.986 19.8536V18.9046H763.904V19.8536H762.986ZM762.986 26.4082V20.8386H763.904V26.4082H762.986ZM767.823 26.5629C767.27 26.5629 766.792 26.4374 766.39 26.1864C765.991 25.9355 765.683 25.5882 765.467 25.1447C765.25 24.7012 765.142 24.1924 765.142 23.6182C765.142 23.0338 765.252 22.5215 765.472 22.0814C765.692 21.6413 766.003 21.2993 766.405 21.0552C766.807 20.8076 767.28 20.6838 767.823 20.6838C768.38 20.6838 768.86 20.8093 769.262 21.0603C769.664 21.3078 769.972 21.6534 770.185 22.0969C770.402 22.537 770.51 23.0441 770.51 23.6182C770.51 24.1993 770.402 24.7115 770.185 25.155C769.969 25.5951 769.659 25.9406 769.257 26.1916C768.855 26.4391 768.377 26.5629 767.823 26.5629ZM767.823 25.6914C768.401 25.6914 768.831 25.4988 769.113 25.1138C769.394 24.7287 769.535 24.2302 769.535 23.6182C769.535 22.9891 769.393 22.4888 769.107 22.1175C768.822 21.7428 768.394 21.5554 767.823 21.5554C767.435 21.5554 767.115 21.6431 766.864 21.8184C766.613 21.9937 766.426 22.2361 766.302 22.5455C766.178 22.855 766.116 23.2125 766.116 23.6182C766.116 24.2439 766.261 24.7459 766.549 25.1241C766.838 25.5023 767.263 25.6914 767.823 25.6914ZM775.611 26.4082V23.6182C775.611 23.3535 775.587 23.0991 775.539 22.855C775.494 22.6109 775.414 22.3926 775.297 22.2C775.183 22.0041 775.029 21.8493 774.833 21.7359C774.64 21.6224 774.396 21.5657 774.1 21.5657C773.87 21.5657 773.66 21.6052 773.471 21.6843C773.286 21.76 773.126 21.8768 772.992 22.035C772.857 22.1931 772.753 22.3926 772.677 22.6332C772.605 22.8704 772.569 23.1506 772.569 23.4738L771.965 23.2882C771.965 22.7484 772.062 22.286 772.254 21.9009C772.45 21.5124 772.723 21.215 773.074 21.0087C773.428 20.799 773.844 20.6942 774.322 20.6942C774.683 20.6942 774.991 20.7509 775.245 20.8643C775.5 20.9778 775.711 21.1291 775.88 21.3182C776.048 21.5038 776.18 21.7135 776.277 21.9473C776.373 22.1777 776.44 22.4132 776.478 22.6538C776.519 22.8911 776.54 23.1163 776.54 23.3294V26.4082H775.611ZM771.64 26.4082V20.8386H772.466V22.329H772.569V26.4082H771.64ZM779.984 26.5578C779.321 26.5578 778.776 26.4134 778.35 26.1246C777.927 25.8323 777.667 25.4249 777.571 24.9023L778.51 24.7528C778.585 25.0553 778.759 25.296 779.03 25.4748C779.302 25.6501 779.639 25.7378 780.041 25.7378C780.423 25.7378 780.722 25.6587 780.939 25.5006C781.155 25.3424 781.263 25.1275 781.263 24.8559C781.263 24.6978 781.227 24.5706 781.155 24.4743C781.083 24.3746 780.933 24.2818 780.706 24.1958C780.483 24.1099 780.144 24.0067 779.691 23.8864C779.199 23.7557 778.812 23.6199 778.53 23.479C778.248 23.338 778.047 23.1747 777.927 22.9891C777.806 22.8034 777.746 22.5782 777.746 22.3135C777.746 21.9869 777.836 21.7015 778.014 21.4574C778.193 21.2099 778.443 21.0191 778.762 20.885C779.085 20.7509 779.46 20.6838 779.887 20.6838C780.309 20.6838 780.688 20.7509 781.021 20.885C781.355 21.0191 781.623 21.2099 781.826 21.4574C782.032 21.7015 782.154 21.9869 782.192 22.3135L781.253 22.4837C781.208 22.1846 781.064 21.949 780.82 21.7771C780.579 21.6052 780.268 21.5141 779.887 21.5038C779.526 21.4901 779.232 21.5537 779.005 21.6946C778.781 21.8356 778.669 22.0264 778.669 22.2671C778.669 22.4011 778.711 22.5163 778.793 22.6126C778.879 22.7089 779.036 22.8 779.263 22.8859C779.493 22.9719 779.826 23.0699 780.263 23.1799C780.755 23.3036 781.141 23.4394 781.423 23.5873C781.709 23.7317 781.912 23.9036 782.032 24.103C782.152 24.299 782.212 24.5413 782.212 24.8301C782.212 25.3665 782.015 25.7894 781.619 26.0988C781.224 26.4048 780.679 26.5578 779.984 26.5578Z" fill="white"/>
<rect x="890.182" y="12" width="20.8176" height="20.8176" rx="2" fill="#FF21B2" fill-opacity="0.08"/>
<g clip-path="url(#clip6_289_3058)">
<path d="M905.931 22.4082H903.795L902.193 27.2148L898.988 17.6016L897.386 22.4082H895.25" stroke="#D8008D" stroke-width="1.28176" stroke-linecap="round" stroke-linejoin="round"/>
</g>
<path d="M713.863 40.8184H908.863" stroke="#313131"/>
<path d="M717.493 68.8184V57.5862L714.977 59.1179V56.955L717.493 55.4512H719.47V68.8184H717.493ZM727.34 55.182C728.2 55.182 728.976 55.3893 729.669 55.8039C730.363 56.2124 730.913 56.7755 731.322 57.4934C731.73 58.2113 731.934 59.0312 731.934 59.9533V64.2048C731.934 65.1826 731.73 66.0397 731.322 66.7762C730.92 67.5064 730.356 68.0757 729.632 68.4842C728.914 68.8926 728.085 69.0968 727.145 69.0968C726.439 69.0968 725.777 68.9638 725.158 68.6977C724.539 68.4316 724.001 68.0355 723.543 67.5095L724.972 66.1821C725.226 66.51 725.545 66.7731 725.929 66.9711C726.312 67.1691 726.718 67.2681 727.145 67.2681C727.695 67.2681 728.181 67.1351 728.602 66.869C729.029 66.6029 729.36 66.2563 729.595 65.8293C729.83 65.4023 729.948 64.9444 729.948 64.4555V62.0048L730.338 62.4318C729.954 62.9331 729.478 63.3292 728.908 63.62C728.339 63.9109 727.729 64.0563 727.08 64.0563C726.244 64.0563 725.502 63.8645 724.852 63.4808C724.202 63.0971 723.688 62.5742 723.311 61.912C722.933 61.2498 722.745 60.501 722.745 59.6656C722.745 58.8301 722.955 58.0751 723.376 57.4006C723.797 56.726 724.354 56.1876 725.047 55.7854C725.74 55.3831 726.504 55.182 727.34 55.182ZM727.34 57.0571C726.857 57.0571 726.414 57.1747 726.012 57.4099C725.616 57.6388 725.3 57.9514 725.065 58.3474C724.83 58.7435 724.712 59.1829 724.712 59.6656C724.712 60.1483 724.83 60.5907 725.065 60.993C725.3 61.3891 725.616 61.7047 726.012 61.9398C726.408 62.175 726.848 62.2926 727.33 62.2926C727.813 62.2926 728.252 62.175 728.648 61.9398C729.044 61.7047 729.36 61.3891 729.595 60.993C729.83 60.5907 729.948 60.1483 729.948 59.6656C729.948 59.1891 729.83 58.7528 729.595 58.3567C729.366 57.9606 729.054 57.645 728.658 57.4099C728.262 57.1747 727.822 57.0571 727.34 57.0571Z" fill="white"/>
<g clip-path="url(#clip7_289_3058)">
<path d="M750.154 58.1152L745.08 63.1889L742.41 60.5185L738.404 64.524M750.154 58.1152H746.949M750.154 58.1152L750.154 61.3196" stroke="#D8C37D" stroke-width="0.8011" stroke-linecap="round" stroke-linejoin="round"/>
</g>
<path d="M757.422 58.3174V64.3184H756.696V59.0792H756.66L755.195 60.052V59.3136L756.696 58.3174H757.422ZM759.837 63.4979L759.79 63.8144C759.757 64.0371 759.706 64.2754 759.638 64.5293C759.571 64.7833 759.502 65.0226 759.429 65.2472C759.357 65.4719 759.298 65.6506 759.251 65.7834H758.723C758.749 65.6584 758.782 65.4934 758.823 65.2882C758.864 65.0831 758.905 64.8536 758.946 64.5997C758.989 64.3477 759.024 64.0898 759.051 63.8261L759.087 63.4979H759.837ZM762.889 64.4004C762.643 64.3965 762.397 64.3496 762.151 64.2598C761.905 64.1699 761.68 64.0185 761.477 63.8056C761.274 63.5907 761.111 63.3006 760.988 62.9353C760.865 62.5681 760.803 62.1071 760.803 61.5523C760.803 61.021 760.853 60.5502 760.952 60.14C761.052 59.7278 761.197 59.381 761.386 59.0997C761.576 58.8165 761.804 58.6016 762.072 58.4551C762.341 58.3086 762.645 58.2353 762.983 58.2353C763.319 58.2353 763.618 58.3027 763.88 58.4375C764.143 58.5704 764.358 58.7559 764.524 58.9943C764.69 59.2326 764.798 59.507 764.847 59.8176H764.132C764.065 59.5481 763.936 59.3244 763.745 59.1466C763.553 58.9689 763.299 58.88 762.983 58.88C762.518 58.88 762.152 59.0822 761.884 59.4865C761.619 59.8909 761.485 60.4584 761.483 61.1889H761.53C761.639 61.0229 761.769 60.8813 761.919 60.7641C762.072 60.6449 762.24 60.5531 762.423 60.4886C762.607 60.4242 762.801 60.3919 763.006 60.3919C763.35 60.3919 763.665 60.4779 763.95 60.6498C764.235 60.8197 764.464 61.0551 764.636 61.356C764.808 61.6548 764.893 61.9977 764.893 62.3845C764.893 62.7556 764.81 63.0955 764.644 63.4041C764.478 63.7108 764.245 63.955 763.944 64.1367C763.645 64.3164 763.294 64.4043 762.889 64.4004ZM762.889 63.7558C763.135 63.7558 763.356 63.6942 763.551 63.5712C763.749 63.4481 763.904 63.283 764.017 63.076C764.133 62.8689 764.19 62.6384 764.19 62.3845C764.19 62.1364 764.135 61.9107 764.023 61.7076C763.914 61.5025 763.762 61.3394 763.569 61.2182C763.378 61.0971 763.159 61.0366 762.913 61.0366C762.727 61.0366 762.554 61.0737 762.394 61.1479C762.234 61.2202 762.093 61.3198 761.972 61.4468C761.853 61.5738 761.759 61.7193 761.691 61.8834C761.622 62.0455 761.588 62.2165 761.588 62.3962C761.588 62.6345 761.644 62.8572 761.755 63.0643C761.869 63.2713 762.023 63.4383 762.218 63.5653C762.416 63.6923 762.639 63.7558 762.889 63.7558ZM769.105 63.1932V62.8767C769.105 62.6579 769.15 62.4577 769.24 62.276C769.331 62.0924 769.464 61.9459 769.638 61.8365C769.814 61.7252 770.027 61.6695 770.277 61.6695C770.531 61.6695 770.744 61.7252 770.916 61.8365C771.088 61.9459 771.218 62.0924 771.305 62.276C771.393 62.4577 771.437 62.6579 771.437 62.8767V63.1932C771.437 63.412 771.392 63.6132 771.302 63.7968C771.215 63.9785 771.084 64.125 770.91 64.2363C770.738 64.3457 770.527 64.4004 770.277 64.4004C770.023 64.4004 769.809 64.3457 769.635 64.2363C769.461 64.125 769.33 63.9785 769.24 63.7968C769.15 63.6132 769.105 63.412 769.105 63.1932ZM769.703 62.8767V63.1932C769.703 63.3748 769.746 63.538 769.832 63.6825C769.917 63.8251 770.066 63.8964 770.277 63.8964C770.482 63.8964 770.627 63.8251 770.711 63.6825C770.797 63.538 770.84 63.3748 770.84 63.1932V62.8767C770.84 62.6951 770.798 62.5329 770.716 62.3903C770.634 62.2458 770.488 62.1735 770.277 62.1735C770.072 62.1735 769.924 62.2458 769.834 62.3903C769.747 62.5329 769.703 62.6951 769.703 62.8767ZM766.116 59.759V59.4426C766.116 59.2238 766.161 59.0236 766.251 58.8419C766.343 58.6583 766.476 58.5118 766.649 58.4024C766.825 58.291 767.038 58.2353 767.288 58.2353C767.542 58.2353 767.755 58.291 767.927 58.4024C768.099 58.5118 768.229 58.6583 768.317 58.8419C768.405 59.0236 768.449 59.2238 768.449 59.4426V59.759C768.449 59.9778 768.404 60.179 768.314 60.3626C768.226 60.5443 768.095 60.6908 767.921 60.8022C767.749 60.9116 767.538 60.9663 767.288 60.9663C767.034 60.9663 766.82 60.9116 766.646 60.8022C766.473 60.6908 766.341 60.5443 766.251 60.3626C766.161 60.179 766.116 59.9778 766.116 59.759ZM766.714 59.4426V59.759C766.714 59.9407 766.757 60.1038 766.843 60.2484C766.929 60.391 767.077 60.4623 767.288 60.4623C767.493 60.4623 767.638 60.391 767.722 60.2484C767.808 60.1038 767.851 59.9407 767.851 59.759V59.4426C767.851 59.2609 767.81 59.0988 767.728 58.9562C767.646 58.8116 767.499 58.7393 767.288 58.7393C767.083 58.7393 766.936 58.8116 766.846 58.9562C766.758 59.0988 766.714 59.2609 766.714 59.4426ZM766.339 64.3184L770.464 58.3174H771.133L767.007 64.3184H766.339ZM775.329 61.3179C775.329 60.5795 775.424 59.9007 775.616 59.2814C775.809 58.6602 776.085 58.0888 776.442 57.5673H777.051C776.911 57.7607 776.779 57.999 776.656 58.2822C776.535 58.5635 776.428 58.8731 776.337 59.2111C776.245 59.5471 776.172 59.8948 776.12 60.2542C776.069 60.6137 776.043 60.9682 776.043 61.3179C776.043 61.7828 776.088 62.2545 776.178 62.7331C776.268 63.2117 776.389 63.6561 776.542 64.0664C776.694 64.4766 776.864 64.8106 777.051 65.0685H776.442C776.085 64.5469 775.809 63.9765 775.616 63.3573C775.424 62.7361 775.329 62.0563 775.329 61.3179ZM779.83 63.2635V59.3957H780.486V63.2635H779.83ZM778.224 61.6578V61.0014H782.092V61.6578H778.224ZM785.43 64.4004C785.043 64.4004 784.699 64.334 784.396 64.2012C784.095 64.0683 783.856 63.8837 783.678 63.6474C783.502 63.409 783.406 63.1326 783.391 62.8181H784.129C784.145 63.0115 784.211 63.1785 784.329 63.3192C784.446 63.4579 784.599 63.5653 784.789 63.6415C784.978 63.7177 785.188 63.7558 785.419 63.7558C785.676 63.7558 785.905 63.7108 786.104 63.621C786.303 63.5311 786.46 63.4061 786.573 63.2459C786.686 63.0857 786.743 62.9002 786.743 62.6892C786.743 62.4685 786.688 62.2741 786.579 62.1061C786.469 61.9361 786.309 61.8033 786.098 61.7076C785.887 61.6119 785.63 61.564 785.325 61.564H784.844V60.9194H785.325C785.563 60.9194 785.772 60.8764 785.952 60.7904C786.133 60.7045 786.275 60.5834 786.377 60.4271C786.48 60.2708 786.532 60.0872 786.532 59.8762C786.532 59.6731 786.487 59.4963 786.397 59.3459C786.307 59.1955 786.18 59.0783 786.016 58.9943C785.854 58.9103 785.663 58.8683 785.442 58.8683C785.235 58.8683 785.04 58.9064 784.856 58.9825C784.674 59.0568 784.526 59.1652 784.411 59.3078C784.295 59.4484 784.233 59.6184 784.223 59.8176H783.52C783.532 59.5031 783.626 59.2277 783.804 58.9913C783.982 58.753 784.214 58.5674 784.501 58.4346C784.791 58.3018 785.108 58.2353 785.454 58.2353C785.825 58.2353 786.143 58.3106 786.409 58.461C786.675 58.6094 786.879 58.8058 787.021 59.0499C787.164 59.2941 787.235 59.5578 787.235 59.8411C787.235 60.179 787.146 60.4672 786.969 60.7055C786.793 60.9438 786.553 61.1089 786.251 61.2007V61.2476C786.63 61.3101 786.926 61.4712 787.139 61.731C787.351 61.9889 787.458 62.3083 787.458 62.6892C787.458 63.0154 787.369 63.3084 787.191 63.5682C787.015 63.8261 786.775 64.0293 786.47 64.1777C786.166 64.3262 785.819 64.4004 785.43 64.4004ZM790.145 61.3179C790.145 62.0563 790.048 62.7361 789.855 63.3573C789.663 63.9765 789.389 64.5469 789.031 65.0685H788.422C788.563 64.8751 788.693 64.6368 788.815 64.3535C788.938 64.0722 789.045 63.7636 789.137 63.4276C789.229 63.0896 789.3 62.741 789.351 62.3815C789.404 62.0201 789.43 61.6656 789.43 61.3179C789.43 60.853 789.385 60.3812 789.295 59.9026C789.205 59.424 789.084 58.9796 788.932 58.5694C788.779 58.1592 788.609 57.8251 788.422 57.5673H789.031C789.389 58.0888 789.663 58.6602 789.855 59.2814C790.048 59.9007 790.145 60.5795 790.145 61.3179Z" fill="#D8C37D"/>
<path opacity="0.48" d="M909.895 167.076V120.995H905.481L901.435 118.351L895.919 108.531L890.402 99.0883L884.885 96.4443H880.104L876.426 99.0883L872.38 105.509L869.438 109.664L867.599 110.797L865.76 110.42L858.772 96.4443L855.462 93.0449L852.887 93.4226L849.945 98.3329L847.002 105.887L845.531 109.664L844.06 113.441L842.589 116.463L841.118 117.218L839.647 116.085L837.808 111.93L833.394 103.243L831.188 102.11L827.877 104.376L824.567 107.398L821.257 108.153L817.211 108.909L813.534 113.819L811.695 118.351L808.017 125.15L806.546 127.417L804.339 128.55L802.132 128.172L799.558 125.528L790.363 100.977L787.053 97.5774L784.846 97.1997L781.536 99.0883L776.755 105.887L772.341 110.42L765.721 114.574L762.411 118.729L760.94 121.751L757.63 125.906L755.423 126.661H753.216L749.906 124.017L746.964 119.485L742.918 114.574L740.343 112.686H738.504L735.562 115.33L731.884 118.351H729.31L727.471 116.841L721.954 113.064L719.012 112.686L714.23 113.819L713.863 176.519H909.895L909.895 167.076Z" fill="url(#paint3_linear_289_3058)"/>
<path d="M714.234 114.237L715.652 113.599C717.07 112.961 719.906 111.685 722.742 113.221C725.577 114.756 728.413 119.103 731.249 118.609C734.084 118.116 736.92 112.783 739.756 112.668C742.592 112.553 745.427 117.657 748.263 121.555C751.099 125.453 753.934 128.146 756.77 126.43C759.606 124.715 762.441 118.591 765.277 115.481C768.113 112.372 770.949 112.276 773.784 109.601C776.62 106.926 779.456 101.672 782.291 99.0102C785.127 96.3488 787.963 96.2806 790.799 101.868C793.634 107.455 796.47 118.698 799.306 124.254C802.141 129.81 804.977 129.679 807.813 125.569C810.649 121.459 813.484 113.369 816.32 110.267C819.156 107.165 821.991 109.052 824.827 107.239C827.663 105.427 830.499 99.9154 833.334 102.995C836.17 106.076 839.006 117.747 841.841 117.152C844.677 116.556 847.513 103.694 850.349 97.5507C853.184 91.4073 856.02 91.9829 858.856 96.6456C861.691 101.308 864.527 110.058 867.363 110.821C870.199 111.584 873.034 104.36 875.87 100.59C878.706 96.8195 881.541 96.5036 884.377 96.8081C887.213 97.1127 890.049 98.0377 892.884 102.238C895.72 106.437 898.556 113.912 901.391 117.572C904.227 121.232 907.063 121.078 908.481 121.001L909.899 120.924" stroke="#D8C37D" stroke-width="0.755419"/>
<defs>
<linearGradient id="paint0_linear_289_3058" x1="110.5" y1="66.8033" x2="110.5" y2="174.759" gradientUnits="userSpaceOnUse">
<stop stop-color="#5EB28C"/>
<stop offset="1" stop-color="#59A784" stop-opacity="0"/>
</linearGradient>
<linearGradient id="paint1_linear_289_3058" x1="341.213" y1="58.0387" x2="341.213" y2="175.385" gradientUnits="userSpaceOnUse">
<stop stop-color="#5EB28C"/>
<stop offset="1" stop-color="#59A784" stop-opacity="0"/>
</linearGradient>
<linearGradient id="paint2_linear_289_3058" x1="579.943" y1="68.54" x2="579.943" y2="175.284" gradientUnits="userSpaceOnUse">
<stop stop-color="#AA4849"/>
<stop offset="1" stop-color="#AA4849" stop-opacity="0"/>
</linearGradient>
<linearGradient id="paint3_linear_289_3058" x1="813.9" y1="74.1418" x2="813.9" y2="177.059" gradientUnits="userSpaceOnUse">
<stop stop-color="#F4DF9A"/>
<stop offset="1" stop-color="#D8C37D" stop-opacity="0"/>
</linearGradient>
<clipPath id="clip0_289_3058">
<rect width="12.8176" height="12.8176" fill="white" transform="translate(192.318 17.7578)"/>
</clipPath>
<clipPath id="clip1_289_3058">
<rect width="12.8176" height="12.8176" fill="white" transform="translate(47.0059 56.668)"/>
</clipPath>
<clipPath id="clip2_289_3058">
<rect width="12.8176" height="12.8176" fill="white" transform="translate(426.273 17.1328)"/>
</clipPath>
<clipPath id="clip3_289_3058">
<rect width="12.8176" height="12.8176" fill="white" transform="translate(309.961 56.043)"/>
</clipPath>
<clipPath id="clip4_289_3058">
<rect width="12.8176" height="12.8176" fill="white" transform="translate(660.227 17.0312)"/>
</clipPath>
<clipPath id="clip5_289_3058">
<rect width="12.8176" height="12.8176" fill="white" transform="translate(495.914 55.9414)"/>
</clipPath>
<clipPath id="clip6_289_3058">
<rect width="12.8176" height="12.8176" fill="white" transform="translate(894.182 16)"/>
</clipPath>
<clipPath id="clip7_289_3058">
<rect width="12.8176" height="12.8176" fill="white" transform="translate(737.869 54.9102)"/>
</clipPath>
</defs>
</svg>
