<svg width="424" height="424" viewBox="0 0 424 424" fill="none" xmlns="http://www.w3.org/2000/svg">
<path d="M385.589 234.988C385.537 235.025 385.493 235.069 385.441 235.107L336.109 198.075C337.144 195.555 337.736 192.889 337.843 190.186L378.625 181.085C379.315 182.356 380.118 183.588 381.069 184.754C389.366 194.926 404.524 196.595 414.927 188.484C425.33 180.373 427.038 165.552 418.742 155.381C410.446 145.21 395.287 143.541 384.884 151.652C379.438 155.899 376.4 161.988 375.908 168.283L334.628 177.495C334.182 176.744 333.699 176.005 333.159 175.29C332.089 173.874 330.879 172.623 329.574 171.513L357.456 117.48C364.026 118.908 371.166 117.671 377.005 113.454C387.707 105.723 389.973 90.974 382.066 80.5106C374.159 70.0473 359.074 67.8319 348.372 75.5624C342.182 80.0336 338.835 86.8541 338.626 93.8344L278.258 108.457C277.78 107.632 277.264 106.82 276.674 106.038C275.655 104.69 274.513 103.484 273.28 102.413L291.51 65.4021C298.059 66.5108 305.041 65.0052 310.647 60.6349C321.05 52.5235 322.757 37.7028 314.462 27.5319C306.166 17.361 291.007 15.6909 280.604 23.8023C270.201 31.9132 268.493 46.734 276.789 56.9053C277.619 57.9229 278.534 58.8309 279.49 59.6773L261.202 96.8056C258.615 96.3898 255.964 96.393 253.351 96.815L227.431 41.6087C237.145 33.6811 238.994 19.6408 231.377 9.55983C223.47 -0.903538 208.385 -3.11932 197.683 4.6116C186.981 12.3421 184.715 27.0914 192.622 37.5544C193.831 39.1546 195.223 40.5373 196.727 41.7457L170.853 96.8535C168.269 96.4114 165.618 96.3741 163.002 96.7695L144.663 59.5392C153.903 51.2449 155.149 37.2666 147.209 27.5319C138.913 17.3606 123.754 15.6909 113.351 23.8023C102.948 31.9132 101.24 46.7344 109.537 56.9053C115.263 63.926 124.259 66.8916 132.704 65.3904L150.883 102.295C148.786 104.079 147.073 106.148 145.763 108.407L85.3646 93.7779C85.2129 88.8662 83.5208 83.9592 80.1462 79.8213C71.8504 69.65 56.6914 67.9803 46.2887 76.0912C35.8856 84.2026 34.1779 99.0233 42.4741 109.194C48.4514 116.522 57.9868 119.41 66.7436 117.433L94.5852 171.388C92.5486 173.085 90.7902 175.122 89.4065 177.452L48.1125 168.237C47.7547 163.697 46.0518 159.21 42.9294 155.381C34.6332 145.21 19.4747 143.54 9.07195 151.651C-1.33117 159.762 -3.03892 174.583 5.25731 184.754C13.5531 194.925 28.7117 196.595 39.1148 188.484C41.8039 186.387 43.8992 183.837 45.4037 181.041L86.1601 190.136C86.2637 192.939 86.8584 195.674 87.9257 198.216L38.6603 235.197C28.2744 227.474 13.4359 229.219 5.25731 239.246C-3.03892 249.417 -1.33076 264.238 9.07195 272.349C19.4747 280.46 34.6332 278.79 42.9294 268.619C44.1349 267.141 45.1042 265.557 45.8912 263.918L106.307 276.258C106.382 279.063 106.963 281.8 108.004 284.352L74.982 310.099C66.4689 304.358 54.7925 304.446 46.2891 311.076C35.886 319.187 34.1783 334.008 42.4741 344.179C50.7699 354.35 65.9289 356.02 76.3316 347.909C85.0028 341.148 87.6072 329.734 83.438 320.227L116.211 294.674C118.31 296.168 120.677 297.37 123.298 298.157C123.54 298.23 123.784 298.273 124.027 298.338L122.885 358.847C119.785 359.554 116.779 360.87 114.056 362.836C103.354 370.567 101.089 385.316 108.995 395.779C116.902 406.243 131.987 408.458 142.689 400.728C152.173 393.877 155.015 381.521 150.041 371.514L197.633 332.982C200.003 334.705 202.651 335.944 205.426 336.712V377.779C202.436 378.607 199.56 380.014 196.978 382.027C186.575 390.139 184.867 404.959 193.163 415.13C201.459 425.302 216.618 426.971 227.02 418.86C237.424 410.749 239.131 395.928 230.835 385.757C227.626 381.823 223.387 379.177 218.797 377.86V336.649C221.43 335.891 223.98 334.706 226.315 333.019C226.372 332.978 226.42 332.931 226.476 332.89L274.022 371.384C270.18 379.032 270.712 388.453 276.248 395.779C284.154 406.242 299.24 408.458 309.942 400.727C320.644 392.997 322.91 378.247 315.003 367.784C311.515 363.168 306.628 360.163 301.338 358.903L300.194 298.281C302.9 297.532 305.521 296.328 307.918 294.601L340.606 320.088C337.166 327.828 338.095 337.121 343.852 344.179C352.149 354.35 367.307 356.02 377.71 347.909C388.113 339.797 389.821 324.977 381.525 314.806C373.613 305.106 359.471 303.159 349.154 310.032L316.04 284.213C317.049 281.683 317.605 279.01 317.685 276.305L378.11 263.962C378.772 265.333 379.572 266.663 380.529 267.929C388.435 278.392 403.521 280.608 414.222 272.877C424.924 265.147 427.19 250.397 419.283 239.934C411.377 229.471 396.291 227.257 385.589 234.988ZM77.4218 111.981C79.6459 110.023 81.4215 107.749 82.7217 105.272L142.636 119.785C142.578 124.735 144.082 129.744 147.323 134.033C155.23 144.496 170.315 146.712 181.017 138.981C191.719 131.25 193.985 116.501 186.078 106.038C184.829 104.384 183.384 102.961 181.821 101.726L207.655 46.7014C210.581 47.2255 213.594 47.2188 216.548 46.6649L242.341 101.601C232.21 109.453 230.177 123.788 237.919 134.032C245.825 144.495 260.911 146.711 271.612 138.98C278.06 134.323 281.42 127.118 281.364 119.838L341.312 105.317C341.892 106.41 342.538 107.482 343.311 108.504C344.333 109.857 345.479 111.066 346.717 112.139L318.785 166.27C312.277 164.92 305.236 166.172 299.465 170.341C288.763 178.071 286.497 192.82 294.404 203.284C302.311 213.747 317.396 215.962 328.098 208.232C328.396 208.016 328.663 207.776 328.948 207.55L377.926 244.314C376.757 246.874 376.065 249.608 375.877 252.387L314.993 264.824C314.414 263.733 313.77 262.664 313 261.645C305.093 251.181 290.008 248.966 279.306 256.697C268.604 264.427 266.338 279.176 274.245 289.64C277.786 294.326 282.77 297.343 288.153 298.568L289.294 359.073C286.707 359.762 284.205 360.886 281.887 362.462L233.984 323.678C237.402 316.179 236.722 307.151 231.376 300.077C223.47 289.614 208.384 287.398 197.682 295.129C188.365 301.859 185.45 313.906 190.067 323.816L142.243 362.537C139.995 360.988 137.518 359.854 134.926 359.139L136.07 298.507C144.04 296.601 150.819 290.788 153.404 282.563C157.314 270.128 150.172 256.949 137.453 253.126C126.154 249.731 114.272 254.874 109.015 264.78L48.1017 252.337C47.9121 249.624 47.2592 246.95 46.1301 244.438L95.145 207.647C97.4546 209.461 100.134 210.9 103.138 211.803C115.857 215.625 129.336 208.643 133.245 196.207C137.155 183.772 130.013 170.593 117.294 166.771C113.298 165.57 109.228 165.438 105.402 166.204L77.4218 111.981Z" fill="#1A1317"/>
</svg>
