<svg width="923" height="189" viewBox="0 0 923 189" fill="none" xmlns="http://www.w3.org/2000/svg">
<rect y="1.75781" width="221.137" height="185" rx="8" fill="#161014"/>
<rect x="0.25" y="2.00781" width="220.637" height="184.5" rx="7.75" stroke="#FF21B2" stroke-opacity="0.08" stroke-width="0.5"/>
<path opacity="0.56" d="M14.6353 28.166V21.6114H12.1031V20.7398H18.0854V21.6114H15.5532V28.166H14.6353ZM20.4528 28.3207C19.8993 28.3207 19.4214 28.1952 19.0191 27.9443C18.6203 27.6933 18.3126 27.346 18.096 26.9025C17.8794 26.459 17.7711 25.9502 17.7711 25.376C17.7711 24.7916 17.8811 24.2793 18.1012 23.8392C18.3212 23.3992 18.6323 23.0571 19.0346 22.813C19.4368 22.5654 19.9096 22.4417 20.4528 22.4417C21.0097 22.4417 21.4894 22.5671 21.8916 22.8181C22.2939 23.0657 22.6016 23.4112 22.8147 23.8547C23.0313 24.2948 23.1396 24.8019 23.1396 25.376C23.1396 25.9571 23.0313 26.4693 22.8147 26.9128C22.5981 27.3529 22.2887 27.6984 21.8865 27.9494C21.4842 28.197 21.0063 28.3207 20.4528 28.3207ZM20.4528 27.4492C21.0304 27.4492 21.4601 27.2566 21.7421 26.8716C22.024 26.4865 22.1649 25.988 22.1649 25.376C22.1649 24.7469 22.0223 24.2466 21.7369 23.8753C21.4515 23.5006 21.0235 23.3132 20.4528 23.3132C20.0643 23.3132 19.7445 23.4009 19.4936 23.5762C19.2426 23.7516 19.0552 23.9939 18.9314 24.3034C18.8077 24.6128 18.7458 24.9703 18.7458 25.376C18.7458 26.0018 18.8902 26.5037 19.179 26.8819C19.4678 27.2601 19.8924 27.4492 20.4528 27.4492ZM27.3848 28.166C27.0547 28.2313 26.7281 28.2571 26.4049 28.2434C26.0852 28.2331 25.7998 28.1695 25.5489 28.0526C25.2979 27.9322 25.1071 27.7466 24.9764 27.4956C24.8664 27.2756 24.8062 27.0538 24.7959 26.8303C24.7891 26.6034 24.7856 26.3473 24.7856 26.0619V21.0492H25.7036V26.0207C25.7036 26.2476 25.7053 26.4418 25.7087 26.6034C25.7156 26.765 25.7517 26.9042 25.817 27.0211C25.9408 27.2412 26.1368 27.3701 26.4049 27.4079C26.6765 27.4457 27.0032 27.4354 27.3848 27.377V28.166ZM23.6562 23.3545V22.5964H27.3848V23.3545H23.6562ZM30.0988 28.3207C29.6828 28.3207 29.3338 28.2451 29.0519 28.0938C28.7734 27.9391 28.562 27.7363 28.4176 27.4853C28.2766 27.2343 28.2061 26.9593 28.2061 26.6601C28.2061 26.3679 28.2611 26.1152 28.3712 25.9021C28.4846 25.6855 28.6428 25.5067 28.8456 25.3657C29.0485 25.2213 29.2908 25.1079 29.5728 25.0254C29.8375 24.9532 30.1332 24.8913 30.4598 24.8397C30.7898 24.7847 31.1233 24.7348 31.4603 24.6901C31.7972 24.6454 32.1118 24.6025 32.404 24.5612L32.0739 24.752C32.0843 24.2569 31.9846 23.8908 31.7748 23.6536C31.5686 23.4163 31.211 23.2977 30.7022 23.2977C30.3652 23.2977 30.0696 23.3751 29.8151 23.5298C29.5642 23.6811 29.3871 23.9286 29.284 24.2724L28.4124 24.0094C28.5465 23.5212 28.8061 23.1379 29.1911 22.8594C29.5762 22.5809 30.0833 22.4417 30.7125 22.4417C31.2179 22.4417 31.6511 22.5328 32.0121 22.715C32.3765 22.8938 32.6378 23.1654 32.7959 23.5298C32.875 23.7017 32.9249 23.8891 32.9455 24.0919C32.9661 24.2913 32.9764 24.501 32.9764 24.7211V28.166H32.1616V26.8303L32.3524 26.9541C32.1427 27.4045 31.8488 27.7449 31.4706 27.9752C31.0958 28.2056 30.6386 28.3207 30.0988 28.3207ZM30.238 27.5523C30.5681 27.5523 30.8534 27.4939 31.0941 27.377C31.3382 27.2566 31.5342 27.1002 31.682 26.9077C31.8298 26.7117 31.9261 26.4986 31.9708 26.2682C32.0224 26.0963 32.0499 25.9055 32.0533 25.6958C32.0602 25.4826 32.0636 25.3193 32.0636 25.2058L32.3834 25.3451C32.0843 25.3863 31.7903 25.4259 31.5015 25.4637C31.2127 25.5015 30.9394 25.5428 30.6815 25.5875C30.4237 25.6287 30.1916 25.6786 29.9853 25.737C29.8341 25.7852 29.6914 25.847 29.5573 25.9227C29.4266 25.9983 29.3201 26.0963 29.2375 26.2166C29.1585 26.3335 29.1189 26.4796 29.1189 26.655C29.1189 26.8063 29.1568 26.9507 29.2324 27.0882C29.3115 27.2257 29.4318 27.3374 29.5934 27.4234C29.7584 27.5093 29.9733 27.5523 30.238 27.5523ZM34.4204 28.166V20.5851H35.3384V28.166H34.4204ZM38.9506 28.166V20.7398H41.885C41.9572 20.7398 42.0431 20.7433 42.1428 20.7501C42.2425 20.7536 42.3388 20.7639 42.4316 20.7811C42.8339 20.843 43.1708 20.9805 43.4424 21.1936C43.7175 21.4068 43.9237 21.6767 44.0613 22.0033C44.1988 22.3265 44.2675 22.6858 44.2675 23.0811C44.2675 23.6553 44.118 24.1538 43.8189 24.5767C43.5198 24.9961 43.0814 25.2591 42.5038 25.3657L42.1531 25.4224H39.8686V28.166H38.9506ZM43.3702 28.166L41.9056 25.144L42.8132 24.8655L44.4223 28.166H43.3702ZM39.8686 24.5509H41.854C41.9194 24.5509 41.9933 24.5475 42.0758 24.5406C42.1617 24.5337 42.2425 24.5217 42.3182 24.5045C42.5554 24.4495 42.7479 24.3498 42.8958 24.2054C43.047 24.0575 43.1571 23.8856 43.2258 23.6897C43.2946 23.4903 43.329 23.2874 43.329 23.0811C43.329 22.8748 43.2946 22.6737 43.2258 22.4778C43.1571 22.2783 43.047 22.1047 42.8958 21.9569C42.7479 21.8091 42.5554 21.7093 42.3182 21.6578C42.2425 21.6371 42.1617 21.6251 42.0758 21.6217C41.9933 21.6148 41.9194 21.6114 41.854 21.6114H39.8686V24.5509ZM47.6725 28.3104C47.315 28.3104 47.0072 28.2537 46.7494 28.1402C46.495 28.0268 46.2835 27.8755 46.1151 27.6864C45.9466 27.4973 45.8142 27.2876 45.718 27.0572C45.6217 26.8269 45.5529 26.5914 45.5117 26.3507C45.4739 26.1101 45.455 25.8849 45.455 25.6751V22.5964H46.3832V25.3863C46.3832 25.6476 46.4073 25.9003 46.4554 26.1444C46.5036 26.3885 46.5844 26.6086 46.6978 26.8045C46.8147 27.0005 46.9694 27.1552 47.162 27.2687C47.3579 27.3821 47.602 27.4389 47.8943 27.4389C48.1246 27.4389 48.3343 27.3993 48.5234 27.3203C48.7125 27.2412 48.8741 27.1243 49.0082 26.9696C49.1423 26.8114 49.2454 26.612 49.3176 26.3714C49.3898 26.1307 49.4259 25.8505 49.4259 25.5307L50.0293 25.7164C50.0293 26.2527 49.9313 26.7152 49.7353 27.1037C49.5428 27.4922 49.2695 27.7913 48.9154 28.001C48.5647 28.2073 48.1504 28.3104 47.6725 28.3104ZM49.5291 28.166V26.6756H49.4259V22.5964H50.349V28.166H49.5291ZM55.7587 28.166V25.376C55.7587 25.1113 55.7347 24.8569 55.6865 24.6128C55.6418 24.3687 55.561 24.1504 55.4442 23.9578C55.3307 23.7619 55.176 23.6072 54.98 23.4937C54.7875 23.3802 54.5434 23.3235 54.2477 23.3235C54.0174 23.3235 53.8076 23.3631 53.6185 23.4421C53.4329 23.5178 53.273 23.6347 53.1389 23.7928C53.0049 23.951 52.9 24.1504 52.8244 24.391C52.7522 24.6283 52.7161 24.9085 52.7161 25.2316L52.1127 25.046C52.1127 24.5062 52.2089 24.0438 52.4015 23.6587C52.5974 23.2702 52.8708 22.9728 53.2214 22.7665C53.5756 22.5568 53.9916 22.452 54.4695 22.452C54.8305 22.452 55.1382 22.5087 55.3926 22.6222C55.647 22.7356 55.8584 22.8869 56.0269 23.076C56.1954 23.2616 56.3277 23.4714 56.424 23.7051C56.5203 23.9355 56.5873 24.171 56.6251 24.4117C56.6664 24.6489 56.687 24.8741 56.687 25.0872V28.166H55.7587ZM51.7878 28.166V22.5964H52.6129V24.0868H52.7161V28.166H51.7878ZM60.1319 28.3156C59.4683 28.3156 58.9234 28.1712 58.4971 27.8824C58.0742 27.5901 57.8146 27.1827 57.7183 26.6601L58.6569 26.5106C58.7326 26.8131 58.9062 27.0538 59.1778 27.2326C59.4494 27.4079 59.7863 27.4956 60.1886 27.4956C60.5702 27.4956 60.8693 27.4165 61.0859 27.2584C61.3025 27.1002 61.4108 26.8853 61.4108 26.6137C61.4108 26.4556 61.3747 26.3284 61.3025 26.2321C61.2303 26.1324 61.0808 26.0396 60.8539 25.9536C60.6304 25.8677 60.2917 25.7645 59.8379 25.6442C59.3463 25.5136 58.9595 25.3778 58.6776 25.2368C58.3956 25.0958 58.1945 24.9325 58.0742 24.7469C57.9539 24.5612 57.8937 24.336 57.8937 24.0713C57.8937 23.7447 57.9831 23.4593 58.1619 23.2152C58.3406 22.9677 58.5899 22.7769 58.9096 22.6428C59.2328 22.5087 59.6076 22.4417 60.0339 22.4417C60.4568 22.4417 60.8349 22.5087 61.1684 22.6428C61.5019 22.7769 61.7701 22.9677 61.9729 23.2152C62.1792 23.4593 62.3013 23.7447 62.3391 24.0713L61.4005 24.2415C61.3558 23.9424 61.2114 23.7069 60.9673 23.535C60.7266 23.3631 60.4155 23.2719 60.0339 23.2616C59.6729 23.2479 59.3789 23.3115 59.152 23.4524C58.9285 23.5934 58.8168 23.7842 58.8168 24.0249C58.8168 24.159 58.8581 24.2741 58.9406 24.3704C59.0265 24.4667 59.183 24.5578 59.4099 24.6437C59.6402 24.7297 59.9737 24.8277 60.4103 24.9377C60.902 25.0615 61.2888 25.1973 61.5707 25.3451C61.856 25.4895 62.0589 25.6614 62.1792 25.8608C62.2996 26.0568 62.3597 26.2992 62.3597 26.5879C62.3597 27.1243 62.162 27.5472 61.7667 27.8566C61.3713 28.1626 60.8263 28.3156 60.1319 28.3156ZM66.1427 29.7441C65.7404 29.2799 65.3949 28.7591 65.1061 28.1815C64.8173 27.6039 64.5956 26.9971 64.4408 26.361C64.2861 25.725 64.2122 25.089 64.2191 24.4529C64.2122 23.8134 64.2861 23.1757 64.4408 22.5396C64.5956 21.9036 64.8173 21.2985 65.1061 20.7243C65.3949 20.1468 65.7404 19.6259 66.1427 19.1617L66.8234 19.6775C66.4177 20.1588 66.0842 20.659 65.8229 21.1782C65.5651 21.6973 65.3743 22.2319 65.2505 22.782C65.1267 23.3287 65.0631 23.8856 65.0597 24.4529C65.0631 25.0133 65.1267 25.5703 65.2505 26.1238C65.3777 26.6739 65.5702 27.2102 65.8281 27.7328C66.0894 28.252 66.4212 28.7488 66.8234 29.2232L66.1427 29.7441ZM68.5828 28.166L71.2542 21.6217H67.8814V20.7398H72.2392V21.6217L69.573 28.166H68.5828ZM75.6655 28.3207C75.1463 28.3207 74.7011 28.1918 74.3298 27.9339C73.9585 27.6727 73.6714 27.3203 73.4686 26.8767C73.2692 26.4332 73.1694 25.933 73.1694 25.376C73.1694 24.8191 73.2692 24.3188 73.4686 23.8753C73.6714 23.4318 73.9585 23.0829 74.3298 22.8284C74.7011 22.5706 75.1446 22.4417 75.6603 22.4417C76.1863 22.4417 76.6281 22.5689 76.9857 22.8233C77.3432 23.0777 77.6131 23.4267 77.7954 23.8702C77.981 24.3137 78.0738 24.8156 78.0738 25.376C78.0738 25.9296 77.981 26.4298 77.7954 26.8767C77.6131 27.3203 77.3432 27.6727 76.9857 27.9339C76.6281 28.1918 76.1881 28.3207 75.6655 28.3207ZM75.7789 27.4801C76.1537 27.4801 76.4614 27.3907 76.7021 27.212C76.9427 27.0297 77.1198 26.7805 77.2332 26.4642C77.3501 26.1444 77.4086 25.7817 77.4086 25.376C77.4086 24.9635 77.3501 24.6008 77.2332 24.2879C77.1198 23.9716 76.9444 23.7258 76.7072 23.5504C76.47 23.3716 76.1692 23.2823 75.8047 23.2823C75.4265 23.2823 75.1137 23.3751 74.8661 23.5607C74.622 23.7464 74.4398 23.9974 74.3195 24.3137C74.2026 24.63 74.1441 24.9841 74.1441 25.376C74.1441 25.7714 74.2043 26.129 74.3246 26.4487C74.445 26.765 74.6255 27.016 74.8661 27.2016C75.1102 27.3873 75.4145 27.4801 75.7789 27.4801ZM77.4086 28.166V24.0661H77.3054V20.7398H78.2285V28.166H77.4086ZM80.0705 30.0535L79.3898 29.5326C79.792 29.0582 80.1221 28.5614 80.3799 28.0422C80.6412 27.5197 80.8355 26.9833 80.9627 26.4332C81.0899 25.8797 81.1535 25.3227 81.1535 24.7623C81.1535 24.1951 81.0899 23.6381 80.9627 23.0914C80.8389 22.5414 80.6464 22.0067 80.3851 21.4876C80.1272 20.9684 79.7955 20.4682 79.3898 19.9869L80.0705 19.4712C80.4728 19.9353 80.8183 20.4562 81.1071 21.0338C81.3993 21.6079 81.6211 22.213 81.7723 22.8491C81.9271 23.4851 82.001 24.1229 81.9941 24.7623C82.001 25.3984 81.9271 26.0344 81.7723 26.6705C81.6211 27.3065 81.3993 27.9133 81.1071 28.4909C80.8183 29.0685 80.4728 29.5894 80.0705 30.0535Z" fill="white"/>
<rect x="188.318" y="13.7578" width="20.8176" height="20.8176" rx="2" fill="#FF21B2" fill-opacity="0.08"/>
<g clip-path="url(#clip0_289_3130)">
<path d="M204.068 24.166H201.932L200.33 28.9726L197.125 19.3594L195.523 24.166H193.387" stroke="#D8008D" stroke-width="1.28176" stroke-linecap="round" stroke-linejoin="round"/>
</g>
<path d="M12 42.5762H207" stroke="#313131"/>
<path d="M15.6296 70.5762V59.344L13.1139 60.8757V58.7128L15.6296 57.209H17.6068V70.5762H15.6296ZM25.0956 70.8547C24.4087 70.8547 23.7682 70.7154 23.1741 70.4369C22.5862 70.1523 22.0818 69.7624 21.661 69.2673C21.2402 68.766 20.9401 68.1905 20.7606 67.5407L22.6264 67.0394C22.7316 67.4355 22.9111 67.779 23.1648 68.0698C23.4247 68.3607 23.728 68.5866 24.0745 68.7475C24.4211 68.9022 24.78 68.9795 25.1513 68.9795C25.6402 68.9795 26.0827 68.862 26.4788 68.6268C26.881 68.3916 27.1966 68.076 27.4256 67.68C27.6608 67.2839 27.7784 66.8476 27.7784 66.3711C27.7784 65.8822 27.6577 65.4397 27.4163 65.0437C27.1812 64.6476 26.8625 64.3351 26.4602 64.1061C26.0641 63.8709 25.6278 63.7534 25.1513 63.7534C24.6067 63.7534 24.1457 63.8616 23.7682 64.0782C23.3907 64.2948 23.0968 64.5455 22.8863 64.8301L21.1969 64.2361L21.6053 57.209H28.818V59.0377H22.5986L23.3876 58.3044L23.0627 63.5677L22.6821 63.0757C23.0349 62.723 23.4557 62.4538 23.9446 62.2681C24.4335 62.0825 24.9193 61.9896 25.402 61.9896C26.2312 61.9896 26.9708 62.1815 27.6205 62.5652C28.2765 62.9488 28.7933 63.4718 29.1708 64.1339C29.5483 64.7899 29.737 65.5356 29.737 66.3711C29.737 67.2003 29.5235 67.9553 29.0965 68.6361C28.6695 69.3106 28.1032 69.849 27.3978 70.2513C26.6923 70.6535 25.9249 70.8547 25.0956 70.8547ZM36.5507 70.8547C35.6843 70.8547 34.9046 70.6504 34.2114 70.242C33.5183 69.8274 32.9676 69.2611 32.5591 68.5432C32.1569 67.8254 31.9557 67.0085 31.9557 66.0926V61.8318C31.9557 60.8602 32.1569 60.0062 32.5591 59.2698C32.9676 58.5334 33.5307 57.9609 34.2486 57.5525C34.9726 57.144 35.805 56.9398 36.7456 56.9398C37.4511 56.9398 38.1133 57.0729 38.7321 57.339C39.351 57.6051 39.8863 58.0011 40.3381 58.5272L38.9178 59.8546C38.6641 59.5266 38.3454 59.2667 37.9617 59.0748C37.5842 58.8768 37.1788 58.7778 36.7456 58.7778C36.1887 58.7778 35.6998 58.9109 35.279 59.177C34.8581 59.4369 34.5271 59.7803 34.2857 60.2073C34.0505 60.6343 33.933 61.0923 33.933 61.5812V64.0318L33.5524 63.6048C33.9361 63.1036 34.4126 62.7075 34.9819 62.4166C35.5513 62.1258 36.1608 61.9803 36.8106 61.9803C37.6399 61.9803 38.3794 62.1753 39.0292 62.5652C39.6852 62.9488 40.1988 63.4718 40.5701 64.1339C40.9476 64.7961 41.1364 65.5418 41.1364 66.3711C41.1364 67.2065 40.926 67.9646 40.5051 68.6454C40.0905 69.3199 39.5336 69.8583 38.8343 70.2606C38.1411 70.6566 37.38 70.8547 36.5507 70.8547ZM36.5507 68.9888C37.0334 68.9888 37.4728 68.8712 37.8688 68.6361C38.2649 68.4009 38.5805 68.0853 38.8157 67.6892C39.0509 67.2932 39.1684 66.8538 39.1684 66.3711C39.1684 65.8884 39.0509 65.449 38.8157 65.0529C38.5867 64.6569 38.2742 64.3413 37.8781 64.1061C37.4821 63.8709 37.0427 63.7534 36.56 63.7534C36.0773 63.7534 35.6348 63.8709 35.2325 64.1061C34.8365 64.3413 34.5209 64.6569 34.2857 65.0529C34.0505 65.449 33.933 65.8884 33.933 66.3711C33.933 66.8476 34.0505 67.2839 34.2857 67.68C34.5209 68.076 34.8365 68.3947 35.2325 68.6361C35.6286 68.8712 36.068 68.9888 36.5507 68.9888Z" fill="white"/>
<g clip-path="url(#clip1_289_3130)">
<path d="M59.2905 59.873L54.2169 64.9467L51.5465 62.2763L47.541 66.2818M59.2905 59.873H56.0861M59.2905 59.873L59.2905 63.0774" stroke="#59A784" stroke-width="0.8011" stroke-linecap="round" stroke-linejoin="round"/>
</g>
<path d="M66.2191 65.0213V61.1535H66.8755V65.0213H66.2191ZM64.6134 63.4156V62.7592H68.4812V63.4156H64.6134ZM71.8194 66.1582C71.4326 66.1582 71.0878 66.0918 70.7851 65.959C70.4842 65.8261 70.2449 65.6415 70.0672 65.4052C69.8914 65.1668 69.7956 64.8904 69.78 64.5759H70.5184C70.534 64.7693 70.6005 64.9363 70.7177 65.077C70.8349 65.2157 70.9882 65.3231 71.1777 65.3993C71.3672 65.4755 71.5772 65.5136 71.8077 65.5136C72.0655 65.5136 72.2941 65.4687 72.4933 65.3788C72.6926 65.2889 72.8489 65.1639 72.9622 65.0037C73.0755 64.8436 73.1321 64.658 73.1321 64.447C73.1321 64.2263 73.0774 64.0319 72.968 63.8639C72.8586 63.694 72.6985 63.5611 72.4875 63.4654C72.2765 63.3697 72.0187 63.3218 71.7139 63.3218H71.2334V62.6772H71.7139C71.9522 62.6772 72.1613 62.6342 72.341 62.5483C72.5226 62.4623 72.6643 62.3412 72.7658 62.1849C72.8694 62.0286 72.9211 61.845 72.9211 61.634C72.9211 61.4309 72.8762 61.2541 72.7864 61.1037C72.6965 60.9533 72.5695 60.8361 72.4054 60.7521C72.2433 60.6681 72.0519 60.6261 71.8311 60.6261C71.6241 60.6261 71.4287 60.6642 71.2451 60.7403C71.0634 60.8146 70.915 60.923 70.7997 61.0656C70.6845 61.2062 70.6219 61.3762 70.6122 61.5754H69.9089C69.9207 61.2609 70.0154 60.9855 70.1932 60.7491C70.3709 60.5108 70.6034 60.3252 70.8905 60.1924C71.1797 60.0596 71.4971 59.9932 71.8428 59.9932C72.214 59.9932 72.5324 60.0684 72.7981 60.2188C73.0637 60.3672 73.2679 60.5636 73.4105 60.8077C73.5531 61.0519 73.6244 61.3156 73.6244 61.5989C73.6244 61.9368 73.5355 62.225 73.3577 62.4633C73.1819 62.7016 72.9426 62.8667 72.6399 62.9585V63.0054C73.0188 63.0679 73.3148 63.229 73.5277 63.4888C73.7406 63.7467 73.8471 64.0661 73.8471 64.447C73.8471 64.7732 73.7582 65.0662 73.5804 65.3261C73.4046 65.5839 73.1643 65.7871 72.8596 65.9355C72.5549 66.084 72.2081 66.1582 71.8194 66.1582ZM75.3759 66.1231C75.2313 66.1231 75.1073 66.0713 75.0038 65.9678C74.9002 65.8642 74.8485 65.7402 74.8485 65.5956C74.8485 65.4511 74.9002 65.327 75.0038 65.2235C75.1073 65.12 75.2313 65.0682 75.3759 65.0682C75.5204 65.0682 75.6445 65.12 75.748 65.2235C75.8516 65.327 75.9033 65.4511 75.9033 65.5956C75.9033 65.6913 75.8789 65.7792 75.8301 65.8593C75.7832 65.9394 75.7197 66.0039 75.6396 66.0527C75.5615 66.0996 75.4736 66.1231 75.3759 66.1231ZM77.1992 66.0762L79.8832 60.7667V60.7198H76.789V60.0752H80.6333V60.755L77.961 66.0762H77.1992ZM83.5203 66.1582C83.1765 66.1582 82.8668 66.0898 82.5914 65.9531C82.316 65.8164 82.0952 65.6288 81.9292 65.3905C81.7632 65.1522 81.6723 64.8807 81.6567 64.5759H82.3599C82.3873 64.8475 82.5103 65.0721 82.7291 65.2499C82.9499 65.4257 83.2136 65.5136 83.5203 65.5136C83.7664 65.5136 83.9852 65.456 84.1766 65.3407C84.37 65.2254 84.5214 65.0672 84.6308 64.866C84.7421 64.6629 84.7978 64.4333 84.7978 64.1774C84.7978 63.9157 84.7402 63.6822 84.6249 63.4771C84.5116 63.2701 84.3554 63.1069 84.1561 62.9878C83.9569 62.8686 83.7293 62.8081 83.4734 62.8061C83.2898 62.8042 83.1013 62.8325 82.9079 62.8911C82.7145 62.9477 82.5553 63.021 82.4303 63.1108L81.7505 63.0288L82.1138 60.0752H85.2315V60.7198H82.7233L82.5123 62.4897H82.5475C82.6705 62.392 82.8248 62.3109 83.0104 62.2465C83.196 62.182 83.3894 62.1498 83.5906 62.1498C83.9578 62.1498 84.285 62.2377 84.5722 62.4135C84.8613 62.5873 85.0879 62.8256 85.252 63.1284C85.418 63.4312 85.5011 63.777 85.5011 64.1657C85.5011 64.5486 85.4151 64.8904 85.2432 65.1913C85.0733 65.4901 84.8388 65.7265 84.54 65.9004C84.2411 66.0723 83.9012 66.1582 83.5203 66.1582ZM89.7242 64.951V64.6345C89.7242 64.4157 89.7691 64.2155 89.8589 64.0338C89.9508 63.8502 90.0836 63.7037 90.2574 63.5943C90.4333 63.483 90.6462 63.4273 90.8962 63.4273C91.1502 63.4273 91.3631 63.483 91.535 63.5943C91.7069 63.7037 91.8368 63.8502 91.9247 64.0338C92.0126 64.2155 92.0566 64.4157 92.0566 64.6345V64.951C92.0566 65.1698 92.0116 65.371 91.9218 65.5546C91.8339 65.7363 91.703 65.8828 91.5291 65.9941C91.3572 66.1035 91.1463 66.1582 90.8962 66.1582C90.6423 66.1582 90.4284 66.1035 90.2545 65.9941C90.0807 65.8828 89.9488 65.7363 89.8589 65.5546C89.7691 65.371 89.7242 65.1698 89.7242 64.951ZM90.3219 64.6345V64.951C90.3219 65.1327 90.3649 65.2958 90.4508 65.4403C90.5368 65.5829 90.6852 65.6542 90.8962 65.6542C91.1013 65.6542 91.2459 65.5829 91.3299 65.4403C91.4158 65.2958 91.4588 65.1327 91.4588 64.951V64.6345C91.4588 64.4529 91.4178 64.2907 91.3357 64.1481C91.2537 64.0036 91.1072 63.9313 90.8962 63.9313C90.6911 63.9313 90.5436 64.0036 90.4538 64.1481C90.3659 64.2907 90.3219 64.4529 90.3219 64.6345ZM86.7354 61.5168V61.2004C86.7354 60.9816 86.7803 60.7814 86.8702 60.5997C86.962 60.4161 87.0948 60.2696 87.2687 60.1602C87.4445 60.0488 87.6574 59.9932 87.9075 59.9932C88.1614 59.9932 88.3743 60.0488 88.5462 60.1602C88.7181 60.2696 88.848 60.4161 88.9359 60.5997C89.0238 60.7814 89.0678 60.9816 89.0678 61.2004V61.5168C89.0678 61.7356 89.0229 61.9368 88.933 62.1205C88.8451 62.3021 88.7142 62.4486 88.5404 62.56C88.3685 62.6694 88.1575 62.7241 87.9075 62.7241C87.6535 62.7241 87.4396 62.6694 87.2657 62.56C87.0919 62.4486 86.96 62.3021 86.8702 62.1205C86.7803 61.9368 86.7354 61.7356 86.7354 61.5168ZM87.3331 61.2004V61.5168C87.3331 61.6985 87.3761 61.8616 87.4621 62.0062C87.548 62.1488 87.6965 62.2201 87.9075 62.2201C88.1126 62.2201 88.2571 62.1488 88.3411 62.0062C88.4271 61.8616 88.47 61.6985 88.47 61.5168V61.2004C88.47 61.0187 88.429 60.8566 88.347 60.714C88.2649 60.5694 88.1184 60.4971 87.9075 60.4971C87.7023 60.4971 87.5549 60.5694 87.465 60.714C87.3771 60.8566 87.3331 61.0187 87.3331 61.2004ZM86.9581 66.0762L91.0837 60.0752H91.7518L87.6262 66.0762H86.9581ZM97.0261 66.1817C96.7409 66.1817 96.4821 66.1279 96.2496 66.0205C96.0172 65.9111 95.8326 65.7539 95.6958 65.5487C95.5591 65.3417 95.4907 65.0916 95.4907 64.7986C95.4907 64.5408 95.5415 64.3317 95.6431 64.1716C95.7447 64.0094 95.8804 63.8825 96.0504 63.7906C96.2203 63.6988 96.4078 63.6305 96.613 63.5855C96.82 63.5387 97.0281 63.5015 97.2371 63.4742C97.5106 63.439 97.7323 63.4127 97.9022 63.3951C98.0741 63.3755 98.1992 63.3433 98.2773 63.2984C98.3574 63.2535 98.3974 63.1753 98.3974 63.064V63.0405C98.3974 62.7514 98.3183 62.5268 98.1601 62.3666C98.0038 62.2064 97.7665 62.1263 97.4481 62.1263C97.1179 62.1263 96.8591 62.1986 96.6716 62.3431C96.484 62.4877 96.3522 62.642 96.276 62.8061L95.6196 62.5717C95.7368 62.2982 95.8931 62.0853 96.0885 61.9329C96.2858 61.7786 96.5006 61.6712 96.7331 61.6106C96.9675 61.5481 97.198 61.5168 97.4246 61.5168C97.5692 61.5168 97.7352 61.5344 97.9227 61.5696C98.1122 61.6028 98.2949 61.6721 98.4707 61.7776C98.6484 61.8831 98.7959 62.0423 98.9131 62.2552C99.0303 62.4682 99.0889 62.7534 99.0889 63.1108V66.0762H98.3974V65.4667H98.3623C98.3154 65.5644 98.2372 65.6689 98.1279 65.7802C98.0185 65.8916 97.8729 65.9863 97.6913 66.0645C97.5096 66.1426 97.2879 66.1817 97.0261 66.1817ZM97.1316 65.5605C97.4051 65.5605 97.6356 65.5067 97.8231 65.3993C98.0126 65.2919 98.1552 65.1532 98.2509 64.9832C98.3486 64.8133 98.3974 64.6345 98.3974 64.447V63.8141C98.3681 63.8492 98.3037 63.8815 98.204 63.9108C98.1064 63.9381 97.9931 63.9625 97.8641 63.984C97.7372 64.0036 97.6131 64.0212 97.492 64.0368C97.3728 64.0505 97.2762 64.0622 97.2019 64.0719C97.0222 64.0954 96.8542 64.1335 96.6979 64.1862C96.5436 64.237 96.4186 64.3142 96.3229 64.4177C96.2291 64.5193 96.1822 64.658 96.1822 64.8338C96.1822 65.0741 96.2711 65.2557 96.4489 65.3788C96.6286 65.4999 96.8562 65.5605 97.1316 65.5605ZM103.87 61.5754L102.206 66.0762H101.503L99.8383 61.5754H100.588L101.831 65.162H101.878L103.12 61.5754H103.87ZM106.439 67.8577C106.104 67.8577 105.817 67.8147 105.577 67.7288C105.337 67.6448 105.137 67.5334 104.976 67.3947C104.818 67.258 104.692 67.1115 104.598 66.9552L105.149 66.5684C105.212 66.6505 105.291 66.7442 105.387 66.8497C105.482 66.9572 105.613 67.05 105.779 67.1281C105.947 67.2082 106.167 67.2482 106.439 67.2482C106.802 67.2482 107.102 67.1603 107.338 66.9845C107.574 66.8087 107.693 66.5333 107.693 66.1582V65.244H107.634C107.583 65.3261 107.511 65.4276 107.417 65.5487C107.325 65.6679 107.193 65.7744 107.019 65.8681C106.847 65.9599 106.614 66.0058 106.321 66.0058C105.958 66.0058 105.632 65.9199 105.343 65.748C105.055 65.5761 104.828 65.3261 104.66 64.9979C104.494 64.6697 104.411 64.2712 104.411 63.8024C104.411 63.3414 104.492 62.9399 104.654 62.5981C104.816 62.2543 105.042 61.9886 105.331 61.8011C105.62 61.6116 105.954 61.5168 106.333 61.5168C106.626 61.5168 106.859 61.5657 107.03 61.6634C107.204 61.7591 107.337 61.8685 107.429 61.9915C107.523 62.1126 107.595 62.2123 107.646 62.2904H107.716V61.5754H108.384V66.2051C108.384 66.5919 108.296 66.9064 108.12 67.1486C107.947 67.3928 107.712 67.5715 107.417 67.6848C107.124 67.8001 106.798 67.8577 106.439 67.8577ZM106.415 65.3847C106.692 65.3847 106.927 65.3212 107.118 65.1942C107.31 65.0672 107.455 64.8846 107.555 64.6463C107.655 64.4079 107.704 64.1227 107.704 63.7906C107.704 63.4664 107.656 63.1802 107.558 62.9321C107.46 62.684 107.316 62.4897 107.124 62.349C106.933 62.2084 106.696 62.138 106.415 62.138C106.122 62.138 105.878 62.2123 105.683 62.3607C105.489 62.5092 105.344 62.7084 105.246 62.9585C105.15 63.2085 105.102 63.4859 105.102 63.7906C105.102 64.1032 105.151 64.3796 105.249 64.6199C105.349 64.8582 105.495 65.0457 105.688 65.1825C105.884 65.3173 106.126 65.3847 106.415 65.3847ZM110.154 66.1231C110.009 66.1231 109.885 66.0713 109.782 65.9678C109.678 65.8642 109.627 65.7402 109.627 65.5956C109.627 65.4511 109.678 65.327 109.782 65.2235C109.885 65.12 110.009 65.0682 110.154 65.0682C110.299 65.0682 110.423 65.12 110.526 65.2235C110.63 65.327 110.681 65.4511 110.681 65.5956C110.681 65.6913 110.657 65.7792 110.608 65.8593C110.561 65.9394 110.498 66.0039 110.418 66.0527C110.34 66.0996 110.252 66.1231 110.154 66.1231ZM116.06 67.8577C115.726 67.8577 115.439 67.8147 115.198 67.7288C114.958 67.6448 114.758 67.5334 114.598 67.3947C114.439 67.258 114.313 67.1115 114.22 66.9552L114.77 66.5684C114.833 66.6505 114.912 66.7442 115.008 66.8497C115.103 66.9572 115.234 67.05 115.4 67.1281C115.568 67.2082 115.788 67.2482 116.06 67.2482C116.423 67.2482 116.723 67.1603 116.959 66.9845C117.196 66.8087 117.314 66.5333 117.314 66.1582V65.244H117.255C117.204 65.3261 117.132 65.4276 117.038 65.5487C116.947 65.6679 116.814 65.7744 116.64 65.8681C116.468 65.9599 116.236 66.0058 115.942 66.0058C115.579 66.0058 115.253 65.9199 114.964 65.748C114.677 65.5761 114.449 65.3261 114.281 64.9979C114.115 64.6697 114.032 64.2712 114.032 63.8024C114.032 63.3414 114.113 62.9399 114.275 62.5981C114.437 62.2543 114.663 61.9886 114.952 61.8011C115.241 61.6116 115.575 61.5168 115.954 61.5168C116.247 61.5168 116.48 61.5657 116.652 61.6634C116.825 61.7591 116.958 61.8685 117.05 61.9915C117.144 62.1126 117.216 62.2123 117.267 62.2904H117.337V61.5754H118.005V66.2051C118.005 66.5919 117.917 66.9064 117.742 67.1486C117.568 67.3928 117.333 67.5715 117.038 67.6848C116.745 67.8001 116.419 67.8577 116.06 67.8577ZM116.036 65.3847C116.314 65.3847 116.548 65.3212 116.739 65.1942C116.931 65.0672 117.076 64.8846 117.176 64.6463C117.276 64.4079 117.326 64.1227 117.326 63.7906C117.326 63.4664 117.277 63.1802 117.179 62.9321C117.081 62.684 116.937 62.4897 116.745 62.349C116.554 62.2084 116.318 62.138 116.036 62.138C115.743 62.138 115.499 62.2123 115.304 62.3607C115.11 62.5092 114.965 62.7084 114.867 62.9585C114.771 63.2085 114.724 63.4859 114.724 63.7906C114.724 64.1032 114.772 64.3796 114.87 64.6199C114.97 64.8582 115.116 65.0457 115.31 65.1825C115.505 65.3173 115.747 65.3847 116.036 65.3847ZM119.271 66.0762V61.5754H119.939V62.2552H119.986C120.068 62.0326 120.217 61.8519 120.432 61.7132C120.646 61.5745 120.889 61.5051 121.158 61.5051C121.209 61.5051 121.272 61.5061 121.349 61.5081C121.425 61.51 121.482 61.5129 121.522 61.5168V62.2201C121.498 62.2142 121.444 62.2054 121.36 62.1937C121.278 62.18 121.191 62.1732 121.1 62.1732C120.881 62.1732 120.685 62.2191 120.514 62.3109C120.344 62.4008 120.209 62.5258 120.109 62.686C120.012 62.8442 119.963 63.0249 119.963 63.2281V66.0762H119.271ZM124.033 66.1699C123.626 66.1699 123.27 66.0732 122.963 65.8799C122.658 65.6865 122.42 65.4159 122.248 65.0682C122.078 64.7205 121.993 64.3142 121.993 63.8492C121.993 63.3804 122.078 62.9712 122.248 62.6215C122.42 62.2718 122.658 62.0003 122.963 61.8069C123.27 61.6135 123.626 61.5168 124.033 61.5168C124.439 61.5168 124.795 61.6135 125.099 61.8069C125.406 62.0003 125.644 62.2718 125.814 62.6215C125.986 62.9712 126.072 63.3804 126.072 63.8492C126.072 64.3142 125.986 64.7205 125.814 65.0682C125.644 65.4159 125.406 65.6865 125.099 65.8799C124.795 66.0732 124.439 66.1699 124.033 66.1699ZM124.033 65.5487C124.341 65.5487 124.595 65.4696 124.795 65.3114C124.994 65.1532 125.141 64.9451 125.237 64.6873C125.333 64.4294 125.381 64.1501 125.381 63.8492C125.381 63.5484 125.333 63.2681 125.237 63.0083C125.141 62.7485 124.994 62.5385 124.795 62.3783C124.595 62.2181 124.341 62.138 124.033 62.138C123.724 62.138 123.47 62.2181 123.271 62.3783C123.072 62.5385 122.924 62.7485 122.828 63.0083C122.733 63.2681 122.685 63.5484 122.685 63.8492C122.685 64.1501 122.733 64.4294 122.828 64.6873C122.924 64.9451 123.072 65.1532 123.271 65.3114C123.47 65.4696 123.724 65.5487 124.033 65.5487ZM127.994 66.0762L126.623 61.5754H127.35L128.322 65.0213H128.369L129.33 61.5754H130.069L131.018 65.0096H131.065L132.038 61.5754H132.765L131.393 66.0762H130.713L129.729 62.6186H129.659L128.674 66.0762H127.994ZM135.636 61.5754V62.1615H133.304V61.5754H135.636ZM133.983 60.4971H134.675V64.7869C134.675 64.9822 134.703 65.1288 134.76 65.2264C134.819 65.3221 134.893 65.3866 134.983 65.4198C135.074 65.4511 135.171 65.4667 135.273 65.4667C135.349 65.4667 135.411 65.4628 135.46 65.455C135.509 65.4452 135.548 65.4374 135.578 65.4315L135.718 66.0527C135.671 66.0703 135.606 66.0879 135.522 66.1055C135.438 66.125 135.331 66.1348 135.202 66.1348C135.007 66.1348 134.816 66.0928 134.628 66.0088C134.443 65.9248 134.288 65.7968 134.165 65.6249C134.044 65.453 133.983 65.2362 133.983 64.9744V60.4971ZM137.465 63.3687V66.0762H136.773V60.0752H137.465V62.2787H137.523C137.629 62.0462 137.787 61.8616 137.998 61.7249C138.211 61.5862 138.494 61.5168 138.848 61.5168C139.154 61.5168 139.423 61.5784 139.653 61.7014C139.884 61.8226 140.063 62.0091 140.19 62.2611C140.319 62.5111 140.383 62.8296 140.383 63.2163V66.0762H139.691V63.2632C139.691 62.9057 139.599 62.6293 139.413 62.434C139.229 62.2367 138.975 62.138 138.648 62.138C138.422 62.138 138.219 62.1859 138.039 62.2816C137.861 62.3773 137.72 62.517 137.617 62.7006C137.515 62.8843 137.465 63.1069 137.465 63.3687Z" fill="#59A784"/>
<path opacity="0.48" d="M12 145.008L19.2259 141.661H26.4517L33.6776 145.38L38.2413 146.495L42.0444 145.751L47.3687 141.661L50.7915 138.686L55.7355 137.198L59.9189 139.057L65.6236 143.52L71.3282 148.355L77.4131 151.33L81.2162 150.958L85.7799 147.239L91.1042 141.661L97.5695 133.851L105.176 129.388L113.542 123.438L118.106 118.604L124.191 111.538L129.515 108.563H133.699L137.502 111.166L142.066 117.86L145.108 123.81L151.954 136.826L155.376 140.917L159.18 142.404L164.504 140.917L170.208 133.851L178.575 119.719L184.375 114.885L190.365 113.769L197.971 110.05L209 94.8027V174.759H12V145.008Z" fill="url(#paint0_linear_289_3130)"/>
<path d="M12 145.186L13.9768 143.968C16.3354 142.881 21.0525 140.707 25.7696 141.923C30.4868 143.138 35.2039 147.742 39.9211 146.511C44.6382 145.28 49.3553 138.214 54.0725 137.439C58.7896 136.665 63.5068 142.183 68.2239 146.247C72.941 150.311 77.6582 152.921 82.3753 150.217C87.0925 147.512 91.8096 139.492 96.5267 135.107C101.244 130.722 105.961 129.971 110.678 126.11C115.395 122.249 120.112 115.277 124.83 111.432C129.547 107.587 134.264 106.869 138.981 112.969C143.698 119.07 148.415 131.989 153.132 138.051C157.85 144.114 162.567 143.321 167.284 137.729C172.001 132.138 176.718 121.748 181.435 117.372C186.152 112.996 190.87 114.634 195.587 111.813C200.304 108.992 205.021 101.711 207.38 98.07L209 94.8027" stroke="#59A784" stroke-width="0.924178" stroke-linecap="round"/>
<rect x="233.955" y="1.13281" width="221.137" height="186.252" rx="8" fill="#161014"/>
<rect x="234.205" y="1.38281" width="220.637" height="185.752" rx="7.75" stroke="#FF21B2" stroke-opacity="0.08" stroke-width="0.5"/>
<path opacity="0.56" d="M246.161 27.541L248.647 20.1148H249.926L252.412 27.541H251.458L249.132 20.6512H249.421L247.115 27.541H246.161ZM247.358 25.8031V24.9418H251.215V25.8031H247.358ZM254.428 27.541L252.406 21.9714H253.335L254.897 26.3704L256.455 21.9714H257.388L255.366 27.541H254.428ZM260.373 30.1711C260.081 30.1711 259.795 30.1264 259.517 30.037C259.238 29.9477 258.982 29.8119 258.749 29.6296C258.518 29.4509 258.326 29.2239 258.171 28.9489L259.012 28.5054C259.149 28.777 259.343 28.9747 259.594 29.0985C259.849 29.2222 260.11 29.2841 260.378 29.2841C260.732 29.2841 261.026 29.2188 261.26 29.0881C261.494 28.9609 261.666 28.7701 261.776 28.5157C261.889 28.2613 261.944 27.945 261.941 27.5668V26.0455H262.049V21.9714H262.864V27.5771C262.864 27.7284 262.859 27.8745 262.848 28.0155C262.842 28.1564 262.824 28.2957 262.797 28.4332C262.725 28.8286 262.582 29.1535 262.369 29.4079C262.156 29.6657 261.881 29.8565 261.544 29.9803C261.207 30.1075 260.817 30.1711 260.373 30.1711ZM260.306 27.6957C259.787 27.6957 259.342 27.5668 258.97 27.3089C258.599 27.0477 258.312 26.6953 258.109 26.2517C257.91 25.8082 257.81 25.308 257.81 24.751C257.81 24.1941 257.91 23.6938 258.109 23.2503C258.312 22.8068 258.599 22.4579 258.97 22.2034C259.342 21.9456 259.785 21.8167 260.301 21.8167C260.827 21.8167 261.269 21.9439 261.626 22.1983C261.984 22.4527 262.254 22.8017 262.436 23.2452C262.621 23.6887 262.714 24.1906 262.714 24.751C262.714 25.3046 262.621 25.8048 262.436 26.2517C262.254 26.6953 261.984 27.0477 261.626 27.3089C261.269 27.5668 260.829 27.6957 260.306 27.6957ZM260.419 26.8551C260.794 26.8551 261.102 26.7657 261.343 26.587C261.583 26.4047 261.76 26.1555 261.874 25.8392C261.991 25.5194 262.049 25.1567 262.049 24.751C262.049 24.3385 261.991 23.9758 261.874 23.6629C261.76 23.3466 261.585 23.1008 261.348 22.9254C261.11 22.7466 260.81 22.6573 260.445 22.6573C260.067 22.6573 259.754 22.7501 259.507 22.9357C259.263 23.1214 259.08 23.3724 258.96 23.6887C258.843 24.005 258.785 24.3591 258.785 24.751C258.785 25.1464 258.845 25.504 258.965 25.8237C259.085 26.14 259.266 26.391 259.507 26.5766C259.751 26.7623 260.055 26.8551 260.419 26.8551ZM264.201 28.6962L264.257 28.2682C264.402 28.2785 264.51 28.251 264.582 28.1857C264.655 28.1203 264.701 28.0309 264.722 27.9175C264.742 27.804 264.746 27.6785 264.732 27.541H264.201V26.3755H265.211V27.6957C265.211 28.0567 265.122 28.3283 264.943 28.5105C264.768 28.6928 264.52 28.7546 264.201 28.6962ZM267.174 27.541V20.1148H269.464C269.54 20.1148 269.672 20.1165 269.861 20.12C270.05 20.1234 270.231 20.1372 270.403 20.1612C270.977 20.2369 271.457 20.4466 271.842 20.7904C272.23 21.1308 272.522 21.564 272.718 22.09C272.914 22.616 273.012 23.1953 273.012 23.8279C273.012 24.4605 272.914 25.0398 272.718 25.5659C272.522 26.0919 272.23 26.5268 271.842 26.8706C271.457 27.211 270.977 27.419 270.403 27.4946C270.231 27.5152 270.049 27.529 269.856 27.5359C269.667 27.5393 269.536 27.541 269.464 27.541H267.174ZM268.118 26.6643H269.464C269.595 26.6643 269.741 26.6609 269.903 26.654C270.064 26.6437 270.205 26.6282 270.325 26.6076C270.731 26.5319 271.059 26.3618 271.31 26.097C271.561 25.8323 271.745 25.5022 271.862 25.1069C271.979 24.7115 272.038 24.2852 272.038 23.8279C272.038 23.3603 271.977 22.9289 271.857 22.5335C271.74 22.1381 271.556 21.8098 271.305 21.5485C271.054 21.2872 270.728 21.1204 270.325 21.0482C270.205 21.0242 270.062 21.0087 269.897 21.0018C269.732 20.995 269.588 20.9915 269.464 20.9915H268.118V26.6643ZM276.309 27.6854C275.952 27.6854 275.644 27.6287 275.386 27.5152C275.132 27.4018 274.92 27.2505 274.752 27.0614C274.583 26.8723 274.451 26.6626 274.355 26.4322C274.259 26.2019 274.19 25.9664 274.149 25.7257C274.111 25.4851 274.092 25.2599 274.092 25.0501V21.9714H275.02V24.7613C275.02 25.0226 275.044 25.2753 275.092 25.5194C275.14 25.7635 275.221 25.9836 275.335 26.1795C275.452 26.3755 275.606 26.5302 275.799 26.6437C275.995 26.7571 276.239 26.8139 276.531 26.8139C276.761 26.8139 276.971 26.7743 277.16 26.6953C277.349 26.6162 277.511 26.4993 277.645 26.3446C277.779 26.1864 277.882 25.987 277.954 25.7464C278.027 25.5057 278.063 25.2255 278.063 24.9057L278.666 25.0914C278.666 25.6277 278.568 26.0902 278.372 26.4787C278.18 26.8672 277.906 27.1663 277.552 27.376C277.202 27.5823 276.787 27.6854 276.309 27.6854ZM278.166 27.541V26.0506H278.063V21.9714H278.986V27.541H278.166ZM280.43 27.541V21.9714H281.25V23.3174L281.116 23.142C281.181 22.9701 281.265 22.812 281.368 22.6676C281.475 22.5232 281.594 22.4046 281.724 22.3117C281.869 22.1948 282.032 22.1054 282.214 22.0436C282.396 21.9817 282.582 21.9456 282.771 21.9353C282.96 21.9215 283.137 21.9335 283.302 21.9714V22.8326C283.11 22.781 282.898 22.7673 282.668 22.7913C282.438 22.8154 282.224 22.8996 282.028 23.044C281.85 23.1712 281.71 23.326 281.611 23.5082C281.514 23.6904 281.447 23.8881 281.41 24.1012C281.372 24.311 281.353 24.5258 281.353 24.7459V27.541H280.43ZM285.679 27.6957C285.263 27.6957 284.914 27.6201 284.632 27.4688C284.354 27.3141 284.143 27.1113 283.998 26.8603C283.857 26.6093 283.787 26.3343 283.787 26.0351C283.787 25.7429 283.842 25.4902 283.952 25.2771C284.065 25.0605 284.223 24.8817 284.426 24.7407C284.629 24.5963 284.871 24.4829 285.153 24.4004C285.418 24.3282 285.714 24.2663 286.04 24.2147C286.37 24.1597 286.704 24.1098 287.041 24.0651C287.378 24.0204 287.692 23.9775 287.985 23.9362L287.655 24.127C287.665 23.6319 287.565 23.2658 287.355 23.0286C287.149 22.7913 286.792 22.6727 286.283 22.6727C285.946 22.6727 285.65 22.7501 285.396 22.9048C285.145 23.0561 284.968 23.3036 284.865 23.6474L283.993 23.3844C284.127 22.8962 284.387 22.5129 284.772 22.2344C285.157 21.9559 285.664 21.8167 286.293 21.8167C286.798 21.8167 287.232 21.9078 287.593 22.09C287.957 22.2688 288.218 22.5404 288.377 22.9048C288.456 23.0767 288.505 23.2641 288.526 23.4669C288.547 23.6663 288.557 23.876 288.557 24.0961V27.541H287.742V26.2053L287.933 26.3291C287.723 26.7795 287.429 27.1199 287.051 27.3502C286.676 27.5806 286.219 27.6957 285.679 27.6957ZM285.819 26.9273C286.149 26.9273 286.434 26.8689 286.675 26.752C286.919 26.6316 287.115 26.4752 287.263 26.2827C287.41 26.0867 287.507 25.8736 287.551 25.6432C287.603 25.4713 287.63 25.2805 287.634 25.0708C287.641 24.8576 287.644 24.6943 287.644 24.5808L287.964 24.7201C287.665 24.7613 287.371 24.8009 287.082 24.8387C286.793 24.8765 286.52 24.9178 286.262 24.9625C286.004 25.0037 285.772 25.0536 285.566 25.112C285.415 25.1602 285.272 25.222 285.138 25.2977C285.007 25.3733 284.901 25.4713 284.818 25.5916C284.739 25.7085 284.7 25.8546 284.7 26.03C284.7 26.1813 284.737 26.3257 284.813 26.4632C284.892 26.6007 285.012 26.7124 285.174 26.7984C285.339 26.8843 285.554 26.9273 285.819 26.9273ZM293.008 27.541C292.678 27.6063 292.351 27.6321 292.028 27.6184C291.708 27.6081 291.423 27.5445 291.172 27.4276C290.921 27.3072 290.73 27.1216 290.599 26.8706C290.489 26.6506 290.429 26.4288 290.419 26.2053C290.412 25.9784 290.408 25.7223 290.408 25.4369V20.4242H291.326V25.3957C291.326 25.6226 291.328 25.8168 291.332 25.9784C291.338 26.14 291.375 26.2792 291.44 26.3961C291.564 26.6162 291.76 26.7451 292.028 26.7829C292.299 26.8207 292.626 26.8104 293.008 26.752V27.541ZM289.279 22.7295V21.9714H293.008V22.7295H289.279ZM294.241 20.9864V20.0375H295.159V20.9864H294.241ZM294.241 27.541V21.9714H295.159V27.541H294.241ZM299.079 27.6957C298.526 27.6957 298.048 27.5702 297.645 27.3193C297.247 27.0683 296.939 26.721 296.722 26.2775C296.506 25.834 296.397 25.3252 296.397 24.751C296.397 24.1666 296.507 23.6543 296.727 23.2142C296.947 22.7742 297.259 22.4321 297.661 22.188C298.063 21.9404 298.536 21.8167 299.079 21.8167C299.636 21.8167 300.116 21.9421 300.518 22.1931C300.92 22.4407 301.228 22.7862 301.441 23.2297C301.658 23.6698 301.766 24.1769 301.766 24.751C301.766 25.3321 301.658 25.8443 301.441 26.2878C301.224 26.7279 300.915 27.0734 300.513 27.3244C300.11 27.572 299.633 27.6957 299.079 27.6957ZM299.079 26.8242C299.657 26.8242 300.086 26.6316 300.368 26.2466C300.65 25.8615 300.791 25.363 300.791 24.751C300.791 24.1219 300.649 23.6216 300.363 23.2503C300.078 22.8756 299.65 22.6882 299.079 22.6882C298.691 22.6882 298.371 22.7759 298.12 22.9512C297.869 23.1266 297.682 23.3689 297.558 23.6784C297.434 23.9878 297.372 24.3453 297.372 24.751C297.372 25.3768 297.516 25.8787 297.805 26.2569C298.094 26.6351 298.519 26.8242 299.079 26.8242ZM306.867 27.541V24.751C306.867 24.4863 306.843 24.2319 306.795 23.9878C306.75 23.7437 306.669 23.5254 306.553 23.3328C306.439 23.1369 306.284 22.9822 306.088 22.8687C305.896 22.7552 305.652 22.6985 305.356 22.6985C305.126 22.6985 304.916 22.7381 304.727 22.8171C304.541 22.8928 304.381 23.0097 304.247 23.1678C304.113 23.326 304.008 23.5254 303.933 23.766C303.861 24.0033 303.824 24.2835 303.824 24.6066L303.221 24.421C303.221 23.8812 303.317 23.4188 303.51 23.0337C303.706 22.6452 303.979 22.3478 304.33 22.1415C304.684 21.9318 305.1 21.827 305.578 21.827C305.939 21.827 306.247 21.8837 306.501 21.9972C306.755 22.1106 306.967 22.2619 307.135 22.451C307.304 22.6366 307.436 22.8464 307.532 23.0801C307.629 23.3105 307.696 23.546 307.734 23.7867C307.775 24.0239 307.795 24.2491 307.795 24.4622V27.541H306.867ZM302.896 27.541V21.9714H303.721V23.4618H303.824V27.541H302.896Z" fill="white"/>
<rect x="422.273" y="13.1328" width="20.8176" height="20.8176" rx="2" fill="#FF21B2" fill-opacity="0.08"/>
<g clip-path="url(#clip2_289_3130)">
<path d="M432.682 20.3374V23.5418L434.819 24.61M438.023 23.5418C438.023 26.4914 435.632 28.8825 432.682 28.8825C429.733 28.8825 427.342 26.4914 427.342 23.5418C427.342 20.5923 429.733 18.2012 432.682 18.2012C435.632 18.2012 438.023 20.5923 438.023 23.5418Z" stroke="#D8008D" stroke-width="1.28176" stroke-linecap="round" stroke-linejoin="round"/>
</g>
<path d="M245.955 41.9512H440.955" stroke="#313131"/>
<path d="M252.917 69.9512V67.6212H246.883V65.7832L251.228 56.584H253.446L249.102 65.7832H252.917V62.1629H254.885V65.7832H256.213V67.6212H254.885V69.9512H252.917ZM262.182 70.2018C261.52 70.2018 260.898 70.078 260.316 69.8305C259.734 69.5768 259.23 69.2178 258.803 68.7537C258.382 68.2896 258.076 67.7419 257.884 67.1107L259.759 66.5908C259.939 67.1663 260.251 67.6088 260.697 67.9182C261.142 68.2215 261.637 68.37 262.182 68.3638C262.671 68.3576 263.101 68.2431 263.472 68.0204C263.844 67.7976 264.135 67.4974 264.345 67.1199C264.555 66.7362 264.661 66.2969 264.661 65.8018C264.661 65.0592 264.428 64.4465 263.964 63.9638C263.506 63.4811 262.906 63.2397 262.163 63.2397C261.953 63.2397 261.736 63.2707 261.514 63.3326C261.297 63.3945 261.093 63.4749 260.901 63.5739L259.991 62.0423L264.707 57.8743L264.911 58.4313H258.413V56.584H266.452V58.4313L262.535 62.2001L262.516 61.5688C263.358 61.5688 264.088 61.7576 264.707 62.1351C265.326 62.5064 265.802 63.0139 266.137 63.6575C266.477 64.2949 266.647 65.0097 266.647 65.8018C266.647 66.6558 266.446 67.4139 266.044 68.0761C265.648 68.7382 265.112 69.2581 264.438 69.6356C263.769 70.0131 263.017 70.2018 262.182 70.2018ZM272.899 70.2204C271.68 70.2204 270.687 69.9512 269.92 69.4128C269.152 68.8744 268.682 68.1163 268.509 67.1385L270.495 66.8322C270.619 67.352 270.903 67.7635 271.349 68.0668C271.801 68.3638 272.361 68.5123 273.029 68.5123C273.636 68.5123 274.109 68.3886 274.449 68.141C274.796 67.8935 274.969 67.5531 274.969 67.1199C274.969 66.8662 274.907 66.662 274.784 66.5073C274.666 66.3464 274.415 66.1948 274.032 66.0524C273.648 65.9101 273.063 65.7337 272.277 65.5233C271.417 65.3005 270.733 65.0623 270.226 64.8085C269.725 64.5486 269.366 64.2485 269.149 63.9081C268.939 63.5615 268.833 63.1438 268.833 62.6549C268.833 62.0485 268.994 61.5193 269.316 61.0676C269.638 60.6158 270.09 60.2662 270.671 60.0186C271.259 59.7711 271.946 59.6473 272.732 59.6473C273.5 59.6473 274.183 59.768 274.784 60.0093C275.384 60.2507 275.87 60.5942 276.241 61.0397C276.612 61.4791 276.835 61.9959 276.909 62.59L274.923 62.952C274.855 62.4693 274.629 62.0887 274.245 61.8102C273.862 61.5317 273.363 61.3801 272.751 61.3553C272.163 61.3306 271.686 61.4296 271.321 61.6524C270.956 61.869 270.774 62.1691 270.774 62.5528C270.774 62.7756 270.842 62.9644 270.978 63.1191C271.12 63.2738 271.392 63.4223 271.795 63.5646C272.197 63.707 272.791 63.8772 273.577 64.0752C274.419 64.2918 275.087 64.5331 275.582 64.7992C276.077 65.0592 276.43 65.3717 276.64 65.7368C276.857 66.0957 276.965 66.532 276.965 67.0457C276.965 68.0358 276.603 68.8125 275.879 69.3756C275.161 69.9388 274.168 70.2204 272.899 70.2204Z" fill="white"/>
<g clip-path="url(#clip3_289_3130)">
<path d="M294.246 59.248L289.172 64.3217L286.502 61.6513L282.496 65.6568M294.246 59.248H291.041M294.246 59.248L294.246 62.4524" stroke="#59A784" stroke-width="0.8011" stroke-linecap="round" stroke-linejoin="round"/>
</g>
<path d="M301.514 59.4502V65.4512H300.787V60.212H300.752L299.287 61.1849V60.4465L300.787 59.4502H301.514ZM303.929 64.6307L303.882 64.9472C303.848 65.1699 303.798 65.4082 303.729 65.6621C303.663 65.9161 303.594 66.1554 303.521 66.38C303.449 66.6047 303.389 66.7834 303.343 66.9163H302.815C302.84 66.7912 302.874 66.6262 302.915 66.4211C302.956 66.2159 302.997 65.9864 303.038 65.7325C303.081 65.4805 303.116 65.2226 303.143 64.9589L303.178 64.6307H303.929ZM306.981 65.5332C306.735 65.5293 306.489 65.4824 306.243 65.3926C305.997 65.3027 305.772 65.1513 305.569 64.9384C305.366 64.7235 305.202 64.4334 305.079 64.0681C304.956 63.7009 304.895 63.2399 304.895 62.6851C304.895 62.1538 304.945 61.683 305.044 61.2728C305.144 60.8606 305.288 60.5139 305.478 60.2326C305.667 59.9493 305.896 59.7344 306.164 59.5879C306.433 59.4414 306.737 59.3682 307.075 59.3682C307.411 59.3682 307.71 59.4356 307.971 59.5703C308.235 59.7032 308.45 59.8888 308.616 60.1271C308.782 60.3654 308.89 60.6398 308.938 60.9504H308.223C308.157 60.6809 308.028 60.4572 307.837 60.2794C307.645 60.1017 307.391 60.0128 307.075 60.0128C306.61 60.0128 306.244 60.215 305.976 60.6193C305.71 61.0237 305.577 61.5912 305.575 62.3218H305.621C305.731 62.1557 305.861 62.0141 306.011 61.8969C306.164 61.7777 306.332 61.6859 306.515 61.6215C306.699 61.557 306.893 61.5248 307.098 61.5248C307.442 61.5248 307.757 61.6107 308.042 61.7826C308.327 61.9526 308.556 62.1879 308.727 62.4888C308.899 62.7877 308.985 63.1305 308.985 63.5173C308.985 63.8884 308.902 64.2283 308.736 64.537C308.57 64.8437 308.337 65.0878 308.036 65.2695C307.737 65.4492 307.385 65.5371 306.981 65.5332ZM306.981 64.8886C307.227 64.8886 307.448 64.827 307.643 64.704C307.841 64.5809 307.996 64.4158 308.109 64.2088C308.224 64.0017 308.282 63.7712 308.282 63.5173C308.282 63.2692 308.226 63.0436 308.115 62.8404C308.006 62.6353 307.854 62.4722 307.661 62.3511C307.469 62.2299 307.251 62.1694 307.005 62.1694C306.819 62.1694 306.646 62.2065 306.486 62.2807C306.326 62.353 306.185 62.4526 306.064 62.5796C305.945 62.7066 305.851 62.8521 305.783 63.0162C305.714 63.1783 305.68 63.3493 305.68 63.529C305.68 63.7673 305.736 63.99 305.847 64.1971C305.96 64.4041 306.115 64.5711 306.31 64.6981C306.507 64.8251 306.731 64.8886 306.981 64.8886ZM313.197 64.326V64.0095C313.197 63.7907 313.242 63.5905 313.331 63.4088C313.423 63.2252 313.556 63.0787 313.73 62.9693C313.906 62.858 314.119 62.8023 314.369 62.8023C314.623 62.8023 314.836 62.858 315.008 62.9693C315.179 63.0787 315.309 63.2252 315.397 63.4088C315.485 63.5905 315.529 63.7907 315.529 64.0095V64.326C315.529 64.5448 315.484 64.746 315.394 64.9296C315.306 65.1113 315.175 65.2578 315.002 65.3691C314.83 65.4785 314.619 65.5332 314.369 65.5332C314.115 65.5332 313.901 65.4785 313.727 65.3691C313.553 65.2578 313.421 65.1113 313.331 64.9296C313.242 64.746 313.197 64.5448 313.197 64.326ZM313.794 64.0095V64.326C313.794 64.5077 313.837 64.6708 313.923 64.8153C314.009 64.9579 314.158 65.0292 314.369 65.0292C314.574 65.0292 314.718 64.9579 314.802 64.8153C314.888 64.6708 314.931 64.5077 314.931 64.326V64.0095C314.931 63.8279 314.89 63.6657 314.808 63.5231C314.726 63.3786 314.58 63.3063 314.369 63.3063C314.164 63.3063 314.016 63.3786 313.926 63.5231C313.838 63.6657 313.794 63.8279 313.794 64.0095ZM310.208 60.8918V60.5754C310.208 60.3566 310.253 60.1564 310.343 59.9747C310.434 59.7911 310.567 59.6446 310.741 59.5352C310.917 59.4238 311.13 59.3682 311.38 59.3682C311.634 59.3682 311.847 59.4238 312.019 59.5352C312.191 59.6446 312.321 59.7911 312.408 59.9747C312.496 60.1564 312.54 60.3566 312.54 60.5754V60.8918C312.54 61.1106 312.495 61.3118 312.406 61.4955C312.318 61.6771 312.187 61.8236 312.013 61.935C311.841 62.0444 311.63 62.0991 311.38 62.0991C311.126 62.0991 310.912 62.0444 310.738 61.935C310.564 61.8236 310.433 61.6771 310.343 61.4955C310.253 61.3118 310.208 61.1106 310.208 60.8918ZM310.806 60.5754V60.8918C310.806 61.0735 310.849 61.2366 310.935 61.3812C311.021 61.5238 311.169 61.5951 311.38 61.5951C311.585 61.5951 311.73 61.5238 311.814 61.3812C311.9 61.2366 311.943 61.0735 311.943 60.8918V60.5754C311.943 60.3937 311.902 60.2316 311.819 60.089C311.737 59.9444 311.591 59.8721 311.38 59.8721C311.175 59.8721 311.027 59.9444 310.938 60.089C310.85 60.2316 310.806 60.3937 310.806 60.5754ZM310.431 65.4512L314.556 59.4502H315.224L311.099 65.4512H310.431ZM319.42 62.4507C319.42 61.7123 319.516 61.0335 319.707 60.4142C319.901 59.793 320.176 59.2217 320.534 58.7001H321.143C321.003 58.8935 320.871 59.1318 320.748 59.415C320.627 59.6963 320.52 60.006 320.428 60.3439C320.336 60.6799 320.264 61.0276 320.211 61.387C320.161 61.7465 320.135 62.101 320.135 62.4507C320.135 62.9156 320.18 63.3874 320.27 63.866C320.36 64.3445 320.481 64.789 320.633 65.1992C320.786 65.6094 320.956 65.9434 321.143 66.2013H320.534C320.176 65.6797 319.901 65.1093 319.707 64.4901C319.516 63.8689 319.42 63.1891 319.42 62.4507ZM323.922 64.3963V60.5285H324.578V64.3963H323.922ZM322.316 62.7906V62.1342H326.184V62.7906H322.316ZM329.522 65.5332C329.135 65.5332 328.79 65.4668 328.488 65.334C328.187 65.2011 327.948 65.0165 327.77 64.7802C327.594 64.5418 327.498 64.2654 327.483 63.9509H328.221C328.237 64.1443 328.303 64.3113 328.42 64.452C328.538 64.5907 328.691 64.6981 328.88 64.7743C329.07 64.8505 329.28 64.8886 329.51 64.8886C329.768 64.8886 329.997 64.8437 330.196 64.7538C330.395 64.6639 330.552 64.5389 330.665 64.3787C330.778 64.2186 330.835 64.033 330.835 63.822C330.835 63.6013 330.78 63.4069 330.671 63.2389C330.561 63.069 330.401 62.9361 330.19 62.8404C329.979 62.7447 329.721 62.6968 329.417 62.6968H328.936V62.0522H329.417C329.655 62.0522 329.864 62.0092 330.044 61.9233C330.225 61.8373 330.367 61.7162 330.468 61.5599C330.572 61.4036 330.624 61.22 330.624 61.009C330.624 60.8059 330.579 60.6291 330.489 60.4787C330.399 60.3283 330.272 60.2111 330.108 60.1271C329.946 60.0431 329.755 60.0011 329.534 60.0011C329.327 60.0011 329.131 60.0392 328.948 60.1153C328.766 60.1896 328.618 60.298 328.502 60.4406C328.387 60.5812 328.325 60.7512 328.315 60.9504H327.612C327.623 60.6359 327.718 60.3605 327.896 60.1241C328.074 59.8858 328.306 59.7002 328.593 59.5674C328.882 59.4346 329.2 59.3682 329.545 59.3682C329.917 59.3682 330.235 59.4434 330.501 59.5938C330.766 59.7422 330.971 59.9386 331.113 60.1827C331.256 60.4269 331.327 60.6906 331.327 60.9739C331.327 61.3118 331.238 61.6 331.06 61.8383C330.885 62.0766 330.645 62.2417 330.342 62.3335V62.3804C330.721 62.4429 331.017 62.604 331.23 62.8638C331.443 63.1217 331.55 63.4411 331.55 63.822C331.55 64.1482 331.461 64.4412 331.283 64.7011C331.107 64.9589 330.867 65.1621 330.562 65.3105C330.258 65.459 329.911 65.5332 329.522 65.5332ZM334.237 62.4507C334.237 63.1891 334.14 63.8689 333.947 64.4901C333.755 65.1093 333.481 65.6797 333.123 66.2013H332.514C332.654 66.0079 332.785 65.7696 332.906 65.4863C333.029 65.205 333.137 64.8964 333.229 64.5604C333.321 64.2225 333.392 63.8738 333.443 63.5143C333.495 63.1529 333.522 62.7984 333.522 62.4507C333.522 61.9858 333.477 61.514 333.387 61.0354C333.297 60.5568 333.176 60.1124 333.024 59.7022C332.871 59.292 332.701 58.9579 332.514 58.7001H333.123C333.481 59.2217 333.755 59.793 333.947 60.4142C334.14 61.0335 334.237 61.7123 334.237 62.4507Z" fill="#59A784"/>
<path opacity="0.48" d="M245.955 142.525L251.84 139.881H255.15L260.667 143.28L263.609 144.413L266.919 142.525L272.068 137.237L275.01 136.481L279.056 139.125L285.309 146.302L289.722 148.568L293.4 146.302L301.859 134.593L313.261 125.15L320.616 114.574L324.294 112.308L327.604 113.441L330.179 117.218L333.489 124.772L335.696 130.06L338.638 137.237L341.58 140.636H343.787L345.626 139.881L349.672 134.97L357.028 120.617L360.338 117.973L366.222 116.085L372.107 110.042L375.049 108.908L379.095 113.441L382.405 120.617L384.612 122.506L386.083 122.128L391.232 111.552L393.807 102.487L397.852 96.444L400.427 95.6886L404.105 98.7103L411.093 110.419L412.932 111.552L415.506 110.419L423.598 97.9548L427.643 94.9332L431.799 94.1777L434.263 94.5554H440.884V175.385H245.955V142.525Z" fill="url(#paint1_linear_289_3130)"/>
<path d="M246.342 142.525L247.503 141.736C249.052 140.836 252.15 139.035 255.249 140.071C258.347 141.106 261.446 144.978 264.544 143.967C267.642 142.955 270.741 137.06 273.839 136.431C276.937 135.801 280.036 140.438 283.134 143.857C286.232 147.277 289.331 149.48 292.429 147.236C295.527 144.991 298.626 138.298 301.724 134.647C304.822 130.996 307.921 130.386 311.019 127.173C314.117 123.961 317.216 118.145 320.314 114.946C323.413 111.747 326.511 111.164 329.609 116.288C332.708 121.412 335.806 132.242 338.904 137.335C342.003 142.427 345.101 141.782 348.199 137.121C351.298 132.46 354.396 123.784 357.494 120.141C360.593 116.497 363.691 117.887 366.789 115.544C369.888 113.202 372.986 107.127 376.084 109.722C379.183 112.316 382.281 123.579 385.38 122.464C388.478 121.35 391.576 107.858 394.675 101.146C397.773 94.4338 400.871 94.5009 403.97 98.692C407.068 102.883 410.166 111.198 413.265 111.454C416.363 111.71 419.461 103.907 422.56 99.5897C425.658 95.2721 428.756 94.4396 431.855 94.2333C434.953 94.0269 438.051 94.4467 439.601 94.6566H440.485" stroke="#59A784" stroke-width="0.755419" stroke-linecap="round"/>
<rect x="467.908" y="1.03125" width="221.137" height="186.454" rx="8" fill="#161014"/>
<rect x="468.158" y="1.28125" width="220.637" height="185.954" rx="7.75" stroke="#FF21B2" stroke-opacity="0.08" stroke-width="0.5"/>
<path opacity="0.56" d="M480.63 27.4395V20.0133H482.92C482.996 20.0133 483.128 20.015 483.317 20.0184C483.506 20.0218 483.687 20.0356 483.859 20.0597C484.433 20.1353 484.912 20.345 485.297 20.6888C485.686 21.0292 485.978 21.4624 486.174 21.9884C486.37 22.5144 486.468 23.0938 486.468 23.7264C486.468 24.359 486.37 24.9383 486.174 25.4643C485.978 25.9903 485.686 26.4252 485.297 26.769C484.912 27.1094 484.433 27.3174 483.859 27.393C483.687 27.4137 483.504 27.4274 483.312 27.4343C483.123 27.4377 482.992 27.4395 482.92 27.4395H480.63ZM481.574 26.5627H482.92C483.051 26.5627 483.197 26.5593 483.358 26.5524C483.52 26.5421 483.661 26.5266 483.781 26.506C484.187 26.4304 484.515 26.2602 484.766 25.9955C485.017 25.7307 485.201 25.4007 485.318 25.0053C485.435 24.6099 485.493 24.1836 485.493 23.7264C485.493 23.2588 485.433 22.8273 485.313 22.4319C485.196 22.0365 485.012 21.7082 484.761 21.4469C484.51 21.1856 484.183 21.0189 483.781 20.9467C483.661 20.9226 483.518 20.9071 483.353 20.9003C483.188 20.8934 483.044 20.89 482.92 20.89H481.574V26.5627ZM490.023 27.5942C489.469 27.5942 488.992 27.4687 488.589 27.2177C488.19 26.9667 487.883 26.6195 487.666 26.176C487.45 25.7325 487.341 25.2236 487.341 24.6495C487.341 24.065 487.451 23.5527 487.671 23.1127C487.891 22.6726 488.202 22.3305 488.605 22.0864C489.007 21.8389 489.48 21.7151 490.023 21.7151C490.58 21.7151 491.06 21.8406 491.462 22.0916C491.864 22.3391 492.172 22.6846 492.385 23.1281C492.601 23.5682 492.71 24.0753 492.71 24.6495C492.71 25.2305 492.601 25.7428 492.385 26.1863C492.168 26.6264 491.859 26.9719 491.457 27.2229C491.054 27.4704 490.576 27.5942 490.023 27.5942ZM490.023 26.7226C490.601 26.7226 491.03 26.5301 491.312 26.145C491.594 25.76 491.735 25.2614 491.735 24.6495C491.735 24.0203 491.592 23.5201 491.307 23.1488C491.022 22.774 490.594 22.5866 490.023 22.5866C489.634 22.5866 489.315 22.6743 489.064 22.8496C488.813 23.025 488.625 23.2674 488.502 23.5768C488.378 23.8862 488.316 24.2438 488.316 24.6495C488.316 25.2752 488.46 25.7772 488.749 26.1553C489.038 26.5335 489.463 26.7226 490.023 26.7226ZM496.192 27.5942C495.628 27.5942 495.148 27.4687 494.753 27.2177C494.361 26.9633 494.062 26.6143 493.856 26.1708C493.649 25.7273 493.543 25.2219 493.536 24.6546C493.543 24.0736 493.651 23.563 493.861 23.123C494.074 22.6795 494.378 22.3339 494.773 22.0864C495.169 21.8389 495.645 21.7151 496.202 21.7151C496.79 21.7151 497.295 21.8595 497.718 22.1483C498.145 22.4371 498.43 22.8325 498.574 23.3344L497.667 23.6077C497.55 23.2846 497.359 23.0336 497.094 22.8548C496.833 22.676 496.532 22.5866 496.192 22.5866C495.81 22.5866 495.495 22.676 495.248 22.8548C495 23.0301 494.816 23.2742 494.696 23.5871C494.576 23.8965 494.514 24.2524 494.51 24.6546C494.517 25.2735 494.66 25.7737 494.939 26.1553C495.22 26.5335 495.638 26.7226 496.192 26.7226C496.556 26.7226 496.859 26.6401 497.099 26.4751C497.34 26.3066 497.522 26.0642 497.646 25.7479L498.574 25.9903C498.382 26.5095 498.081 26.9066 497.672 27.1816C497.263 27.4566 496.769 27.5942 496.192 27.5942ZM501.741 27.5839C501.384 27.5839 501.076 27.5271 500.818 27.4137C500.564 27.3002 500.352 27.1489 500.184 26.9598C500.015 26.7708 499.883 26.561 499.787 26.3307C499.69 26.1003 499.622 25.8648 499.58 25.6242C499.543 25.3835 499.524 25.1583 499.524 24.9486V21.8698H500.452V24.6598C500.452 24.9211 500.476 25.1738 500.524 25.4179C500.572 25.662 500.653 25.882 500.767 26.078C500.883 26.274 501.038 26.4287 501.231 26.5421C501.427 26.6556 501.671 26.7123 501.963 26.7123C502.193 26.7123 502.403 26.6728 502.592 26.5937C502.781 26.5146 502.943 26.3977 503.077 26.243C503.211 26.0849 503.314 25.8855 503.386 25.6448C503.459 25.4041 503.495 25.1239 503.495 24.8042L504.098 24.9898C504.098 25.5262 504 25.9886 503.804 26.3771C503.612 26.7656 503.338 27.0647 502.984 27.2744C502.633 27.4807 502.219 27.5839 501.741 27.5839ZM503.598 27.4395V25.9491H503.495V21.8698H504.418V27.4395H503.598ZM512.519 27.4395L512.525 23.8759C512.525 23.4599 512.413 23.135 512.189 22.9012C511.969 22.664 511.682 22.5454 511.328 22.5454C511.122 22.5454 510.926 22.5935 510.74 22.6898C510.555 22.7826 510.403 22.9304 510.286 23.1333C510.17 23.3327 510.111 23.5888 510.111 23.9017L509.626 23.7057C509.619 23.3103 509.7 22.9648 509.869 22.6692C510.041 22.37 510.274 22.138 510.57 21.9729C510.866 21.8079 511.199 21.7254 511.571 21.7254C512.152 21.7254 512.609 21.9025 512.942 22.2566C513.276 22.6073 513.443 23.08 513.443 23.6748L513.437 27.4395H512.519ZM505.856 27.4395V21.8698H506.676V23.3602H506.78V27.4395H505.856ZM509.193 27.4395L509.198 23.912C509.198 23.4857 509.088 23.1522 508.868 22.9115C508.648 22.6674 508.356 22.5454 507.992 22.5454C507.631 22.5454 507.338 22.6692 507.115 22.9167C506.891 23.1642 506.78 23.4926 506.78 23.9017L506.295 23.6129C506.295 23.2519 506.381 22.9287 506.553 22.6434C506.725 22.358 506.958 22.1345 507.254 21.9729C507.55 21.8079 507.885 21.7254 508.26 21.7254C508.634 21.7254 508.961 21.8045 509.24 21.9626C509.518 22.1208 509.733 22.3477 509.884 22.6434C510.035 22.9356 510.111 23.2846 510.111 23.6903L510.106 27.4395H509.193ZM517.149 27.5942C516.602 27.5942 516.124 27.4738 515.715 27.2332C515.31 26.9891 514.993 26.6504 514.766 26.2172C514.539 25.7806 514.426 25.2718 514.426 24.6907C514.426 24.0822 514.538 23.5562 514.761 23.1127C514.985 22.6657 515.296 22.3219 515.695 22.0812C516.097 21.8371 516.568 21.7151 517.108 21.7151C517.668 21.7151 518.144 21.844 518.536 22.1019C518.932 22.3597 519.227 22.7276 519.423 23.2055C519.623 23.6834 519.709 24.2524 519.681 24.9125H518.753V24.5824C518.742 23.8983 518.603 23.3877 518.335 23.0508C518.067 22.7104 517.668 22.5402 517.139 22.5402C516.571 22.5402 516.14 22.7224 515.844 23.0869C515.549 23.4513 515.401 23.9739 515.401 24.6546C515.401 25.3113 515.549 25.8201 515.844 26.1811C516.14 26.5421 516.561 26.7226 517.108 26.7226C517.476 26.7226 517.795 26.6384 518.067 26.4699C518.339 26.3015 518.552 26.0591 518.706 25.7428L519.588 26.047C519.372 26.5387 519.045 26.9203 518.608 27.1919C518.175 27.4601 517.689 27.5942 517.149 27.5942ZM515.091 24.9125V24.175H519.207V24.9125H515.091ZM524.644 27.4395V24.6495C524.644 24.3847 524.62 24.1303 524.572 23.8862C524.527 23.6421 524.446 23.4238 524.329 23.2313C524.216 23.0353 524.061 22.8806 523.865 22.7671C523.673 22.6537 523.429 22.597 523.133 22.597C522.903 22.597 522.693 22.6365 522.504 22.7156C522.318 22.7912 522.158 22.9081 522.024 23.0662C521.89 23.2244 521.785 23.4238 521.71 23.6645C521.637 23.9017 521.601 24.1819 521.601 24.5051L520.998 24.3194C520.998 23.7796 521.094 23.3172 521.287 22.9322C521.483 22.5437 521.756 22.2463 522.107 22.04C522.461 21.8303 522.877 21.7254 523.355 21.7254C523.716 21.7254 524.023 21.7821 524.278 21.8956C524.532 22.009 524.744 22.1603 524.912 22.3494C525.081 22.5351 525.213 22.7448 525.309 22.9786C525.405 23.2089 525.473 23.4444 525.51 23.6851C525.552 23.9223 525.572 24.1475 525.572 24.3607V27.4395H524.644ZM520.673 27.4395V21.8698H521.498V23.3602H521.601V27.4395H520.673ZM530.023 27.4395C529.693 27.5048 529.366 27.5306 529.043 27.5168C528.723 27.5065 528.438 27.4429 528.187 27.326C527.936 27.2057 527.745 27.02 527.614 26.769C527.504 26.549 527.444 26.3272 527.434 26.1038C527.427 25.8769 527.424 25.6207 527.424 25.3354V20.3227H528.342V25.2941C528.342 25.521 528.343 25.7153 528.347 25.8769C528.354 26.0384 528.39 26.1777 528.455 26.2946C528.579 26.5146 528.775 26.6435 529.043 26.6814C529.314 26.7192 529.641 26.7089 530.023 26.6504V27.4395ZM526.294 22.6279V21.8698H530.023V22.6279H526.294ZM533.258 27.589C532.594 27.589 532.049 27.4446 531.623 27.1558C531.2 26.8636 530.94 26.4562 530.844 25.9336L531.783 25.784C531.858 26.0866 532.032 26.3272 532.304 26.506C532.575 26.6814 532.912 26.769 533.314 26.769C533.696 26.769 533.995 26.69 534.212 26.5318C534.428 26.3737 534.537 26.1588 534.537 25.8872C534.537 25.729 534.5 25.6018 534.428 25.5055C534.356 25.4058 534.206 25.313 533.98 25.2271C533.756 25.1411 533.417 25.038 532.964 24.9176C532.472 24.787 532.085 24.6512 531.803 24.5102C531.521 24.3693 531.32 24.206 531.2 24.0203C531.08 23.8347 531.019 23.6095 531.019 23.3447C531.019 23.0181 531.109 22.7328 531.288 22.4887C531.466 22.2411 531.716 22.0503 532.035 21.9162C532.359 21.7821 532.733 21.7151 533.16 21.7151C533.582 21.7151 533.961 21.7821 534.294 21.9162C534.628 22.0503 534.896 22.2411 535.099 22.4887C535.305 22.7328 535.427 23.0181 535.465 23.3447L534.526 23.5149C534.482 23.2158 534.337 22.9803 534.093 22.8084C533.852 22.6365 533.541 22.5454 533.16 22.5351C532.799 22.5213 532.505 22.5849 532.278 22.7259C532.054 22.8668 531.943 23.0577 531.943 23.2983C531.943 23.4324 531.984 23.5476 532.066 23.6438C532.152 23.7401 532.309 23.8312 532.536 23.9172C532.766 24.0031 533.099 24.1011 533.536 24.2111C534.028 24.3349 534.414 24.4707 534.696 24.6185C534.982 24.7629 535.185 24.9348 535.305 25.1342C535.425 25.3302 535.485 25.5726 535.485 25.8614C535.485 26.3977 535.288 26.8206 534.892 27.13C534.497 27.436 533.952 27.589 533.258 27.589Z" fill="white"/>
<rect x="656.227" y="13.0312" width="20.8176" height="20.8176" rx="2" fill="#FF21B2" fill-opacity="0.08"/>
<g clip-path="url(#clip4_289_3130)">
<path d="M671.976 23.4394H669.84L668.238 28.246L665.033 18.6328L663.431 23.4394H661.295" stroke="#D8008D" stroke-width="1.28176" stroke-linecap="round" stroke-linejoin="round"/>
</g>
<path d="M479.908 41.8496H674.908" stroke="#313131"/>
<path d="M483.538 69.8496V58.6175L481.022 60.1491V57.9863L483.538 56.4825H485.515V69.8496H483.538ZM493.635 70.1281C492.769 70.1281 491.989 69.9239 491.296 69.5154C490.603 69.1008 490.052 68.5346 489.643 67.8167C489.241 67.0988 489.04 66.2819 489.04 65.366V61.1053C489.04 60.1337 489.241 59.2797 489.643 58.5432C490.052 57.8068 490.615 57.2344 491.333 56.8259C492.057 56.4175 492.889 56.2132 493.83 56.2132C494.535 56.2132 495.198 56.3463 495.817 56.6124C496.435 56.8785 496.971 57.2746 497.422 57.8006L496.002 59.128C495.748 58.8 495.43 58.5401 495.046 58.3483C494.669 58.1503 494.263 58.0512 493.83 58.0512C493.273 58.0512 492.784 58.1843 492.363 58.4504C491.943 58.7103 491.611 59.0538 491.37 59.4808C491.135 59.9078 491.017 60.3657 491.017 60.8546V63.3053L490.637 62.8783C491.02 62.377 491.497 61.9809 492.066 61.6901C492.636 61.3992 493.245 61.2538 493.895 61.2538C494.724 61.2538 495.464 61.4487 496.114 61.8386C496.77 62.2223 497.283 62.7452 497.654 63.4074C498.032 64.0696 498.221 64.8153 498.221 65.6445C498.221 66.48 498.01 67.2381 497.59 67.9188C497.175 68.5933 496.618 69.1317 495.919 69.534C495.226 69.9301 494.464 70.1281 493.635 70.1281ZM493.635 68.2623C494.118 68.2623 494.557 68.1447 494.953 67.9095C495.349 67.6744 495.665 67.3587 495.9 66.9627C496.135 66.5666 496.253 66.1272 496.253 65.6445C496.253 65.1618 496.135 64.7224 495.9 64.3264C495.671 63.9303 495.359 63.6147 494.963 63.3795C494.566 63.1444 494.127 63.0268 493.644 63.0268C493.162 63.0268 492.719 63.1444 492.317 63.3795C491.921 63.6147 491.605 63.9303 491.37 64.3264C491.135 64.7224 491.017 65.1618 491.017 65.6445C491.017 66.121 491.135 66.5573 491.37 66.9534C491.605 67.3495 491.921 67.6682 492.317 67.9095C492.713 68.1447 493.152 68.2623 493.635 68.2623Z" fill="white"/>
<g clip-path="url(#clip5_289_3130)">
<path d="M516.199 65.5553L511.125 60.4817L508.455 63.152L504.449 59.1465M516.199 65.5553H512.994M516.199 65.5553L516.199 62.3509" stroke="#AA4849" stroke-width="0.8011" stroke-linecap="round" stroke-linejoin="round"/>
</g>
<path d="M523.467 59.3486V65.3496H522.741V60.1105H522.705L521.24 61.0833V60.3449L522.741 59.3486H523.467ZM525.193 65.3496V64.8222L527.174 62.6539C527.406 62.3999 527.598 62.1792 527.748 61.9916C527.899 61.8022 528.01 61.6244 528.082 61.4584C528.156 61.2904 528.194 61.1146 528.194 60.9309C528.194 60.72 528.143 60.5373 528.041 60.383C527.942 60.2287 527.805 60.1095 527.631 60.0255C527.457 59.9415 527.262 59.8995 527.045 59.8995C526.814 59.8995 526.613 59.9474 526.441 60.0431C526.271 60.1369 526.14 60.2687 526.046 60.4387C525.954 60.6086 525.908 60.8079 525.908 61.0364H525.217C525.217 60.6848 525.298 60.3761 525.46 60.1105C525.622 59.8448 525.843 59.6377 526.122 59.4893C526.403 59.3408 526.719 59.2666 527.068 59.2666C527.42 59.2666 527.732 59.3408 528.003 59.4893C528.275 59.6377 528.488 59.838 528.642 60.09C528.796 60.342 528.873 60.6223 528.873 60.9309C528.873 61.1517 528.833 61.3675 528.753 61.5785C528.675 61.7875 528.538 62.0209 528.343 62.2788C528.15 62.5347 527.881 62.8473 527.537 63.2165L526.189 64.6581V64.705H528.979V65.3496H525.193ZM531.232 64.5292L531.185 64.8456C531.152 65.0683 531.101 65.3066 531.033 65.5606C530.966 65.8145 530.897 66.0538 530.825 66.2785C530.753 66.5031 530.693 66.6819 530.646 66.8147H530.119C530.144 66.6897 530.177 66.5246 530.218 66.3195C530.259 66.1144 530.3 65.8849 530.341 65.6309C530.384 65.3789 530.42 65.1211 530.447 64.8573L530.482 64.5292H531.232ZM533.894 59.3486V65.3496H533.168V60.1105H533.132L531.667 61.0833V60.3449L533.168 59.3486H533.894ZM538.679 64.2244V63.908C538.679 63.6892 538.724 63.489 538.814 63.3073C538.906 63.1237 539.039 62.9772 539.212 62.8678C539.388 62.7564 539.601 62.7007 539.851 62.7007C540.105 62.7007 540.318 62.7564 540.49 62.8678C540.662 62.9772 540.792 63.1237 540.88 63.3073C540.968 63.489 541.012 63.6892 541.012 63.908V64.2244C541.012 64.4432 540.967 64.6444 540.877 64.828C540.789 65.0097 540.658 65.1562 540.484 65.2676C540.312 65.377 540.101 65.4317 539.851 65.4317C539.597 65.4317 539.383 65.377 539.21 65.2676C539.036 65.1562 538.904 65.0097 538.814 64.828C538.724 64.6444 538.679 64.4432 538.679 64.2244ZM539.277 63.908V64.2244C539.277 64.4061 539.32 64.5692 539.406 64.7138C539.492 64.8564 539.64 64.9277 539.851 64.9277C540.056 64.9277 540.201 64.8564 540.285 64.7138C540.371 64.5692 540.414 64.4061 540.414 64.2244V63.908C540.414 63.7263 540.373 63.5642 540.291 63.4216C540.209 63.277 540.062 63.2047 539.851 63.2047C539.646 63.2047 539.499 63.277 539.409 63.4216C539.321 63.5642 539.277 63.7263 539.277 63.908ZM535.69 60.7903V60.4738C535.69 60.255 535.735 60.0548 535.825 59.8731C535.917 59.6895 536.05 59.543 536.224 59.4336C536.4 59.3223 536.612 59.2666 536.862 59.2666C537.116 59.2666 537.329 59.3223 537.501 59.4336C537.673 59.543 537.803 59.6895 537.891 59.8731C537.979 60.0548 538.023 60.255 538.023 60.4738V60.7903C538.023 61.0091 537.978 61.2103 537.888 61.3939C537.8 61.5756 537.669 61.7221 537.495 61.8334C537.323 61.9428 537.113 61.9975 536.862 61.9975C536.609 61.9975 536.395 61.9428 536.221 61.8334C536.047 61.7221 535.915 61.5756 535.825 61.3939C535.735 61.2103 535.69 61.0091 535.69 60.7903ZM536.288 60.4738V60.7903C536.288 60.9719 536.331 61.1351 536.417 61.2796C536.503 61.4222 536.651 61.4935 536.862 61.4935C537.068 61.4935 537.212 61.4222 537.296 61.2796C537.382 61.1351 537.425 60.9719 537.425 60.7903V60.4738C537.425 60.2922 537.384 60.13 537.302 59.9874C537.22 59.8429 537.073 59.7706 536.862 59.7706C536.657 59.7706 536.51 59.8429 536.42 59.9874C536.332 60.13 536.288 60.2922 536.288 60.4738ZM535.913 65.3496L540.039 59.3486H540.707L536.581 65.3496H535.913ZM544.903 62.3491C544.903 61.6107 544.999 60.9319 545.19 60.3127C545.383 59.6915 545.659 59.1201 546.016 58.5985H546.626C546.485 58.7919 546.353 59.0302 546.23 59.3135C546.109 59.5948 546.003 59.9044 545.911 60.2423C545.819 60.5783 545.747 60.926 545.694 61.2855C545.643 61.6449 545.618 61.9995 545.618 62.3491C545.618 62.814 545.663 63.2858 545.753 63.7644C545.842 64.243 545.964 64.6874 546.116 65.0976C546.268 65.5078 546.438 65.8419 546.626 66.0997H546.016C545.659 65.5782 545.383 65.0078 545.19 64.3885C544.999 63.7673 544.903 63.0875 544.903 62.3491ZM549.404 64.2948V60.4269H550.061V64.2948H549.404ZM547.799 62.689V62.0327H551.666V62.689H547.799ZM552.792 65.3496V64.8222L554.772 62.6539C555.005 62.3999 555.196 62.1792 555.347 61.9916C555.497 61.8022 555.608 61.6244 555.681 61.4584C555.755 61.2904 555.792 61.1146 555.792 60.9309C555.792 60.72 555.741 60.5373 555.64 60.383C555.54 60.2287 555.403 60.1095 555.229 60.0255C555.056 59.9415 554.86 59.8995 554.643 59.8995C554.413 59.8995 554.212 59.9474 554.04 60.0431C553.87 60.1369 553.738 60.2687 553.644 60.4387C553.552 60.6086 553.507 60.8079 553.507 61.0364H552.815C552.815 60.6848 552.896 60.3761 553.058 60.1105C553.22 59.8448 553.441 59.6377 553.72 59.4893C554.002 59.3408 554.317 59.2666 554.667 59.2666C555.018 59.2666 555.33 59.3408 555.602 59.4893C555.873 59.6377 556.086 59.838 556.24 60.09C556.395 60.342 556.472 60.6223 556.472 60.9309C556.472 61.1517 556.432 61.3675 556.352 61.5785C556.274 61.7875 556.137 62.0209 555.941 62.2788C555.748 62.5347 555.479 62.8473 555.136 63.2165L553.788 64.6581V64.705H556.577V65.3496H552.792ZM559.276 62.3491C559.276 63.0875 559.179 63.7673 558.986 64.3885C558.794 65.0078 558.52 65.5782 558.163 66.0997H557.553C557.694 65.9063 557.825 65.668 557.946 65.3848C558.069 65.1035 558.176 64.7948 558.268 64.4588C558.36 64.1209 558.431 63.7722 558.482 63.4128C558.535 63.0514 558.561 62.6968 558.561 62.3491C558.561 61.8842 558.516 61.4125 558.426 60.9339C558.336 60.4553 558.215 60.0109 558.063 59.6006C557.911 59.1904 557.741 58.8564 557.553 58.5985H558.163C558.52 59.1201 558.794 59.6915 558.986 60.3127C559.179 60.9319 559.276 61.6107 559.276 62.3491Z" fill="#AA4849"/>
<path opacity="0.48" d="M675.571 149.977L671.893 138.646L668.583 127.692L663.801 117.494L660.124 114.472H656.813L652.4 117.116L647.987 119.005L643.573 118.627H638.424L635.849 119.383L633.275 122.404L628.126 129.581L622.241 136.38L620.034 137.513L617.092 137.89L612.679 135.247L607.897 126.559L602.748 114.85L599.806 106.541L593.921 97.4756L590.611 95.2093H585.83L583.256 97.0978L580.313 99.3641L577.739 101.253L575.164 103.519L573.325 105.407L570.015 107.296L565.969 108.051L558.981 110.318L554.936 114.095L550.522 117.872L546.477 121.271L542.799 122.027L538.753 120.516L537.65 119.383L535.443 117.494L530.662 111.073L525.513 104.652L521.835 101.253L519.26 100.497L515.95 100.875L511.537 103.519L508.962 104.652L506.387 105.03L502.342 103.519L497.193 98.9864L491.676 95.2093L486.159 94.0762L479.907 94.8316V175.486H675.766L675.571 149.977Z" fill="url(#paint2_linear_289_3130)"/>
<path d="M480.27 94.7838L482.435 94.4314C484.601 94.0789 488.933 93.3739 493.265 96.0352C497.597 98.6965 501.928 104.724 506.26 104.956C510.592 105.187 514.923 99.6228 519.255 100.308C523.587 100.993 527.919 107.927 532.25 113.418C536.582 118.909 540.914 122.956 545.246 121.724C549.577 120.492 553.909 113.981 558.241 111.079C562.573 108.178 566.904 108.887 571.236 106.506C575.568 104.125 579.9 98.6548 584.231 96.2902C588.563 93.9255 592.895 94.6664 597.227 102.18C601.558 109.693 605.89 123.979 610.222 131.455C614.554 138.93 618.885 139.597 623.217 135.497C627.549 131.398 631.881 122.533 636.212 119.641C640.544 116.749 644.876 119.83 649.208 118.482C653.539 117.134 657.871 111.357 662.203 115.868C666.535 120.379 670.866 135.178 673.032 142.578L675.198 149.977" stroke="#AA4849" stroke-width="0.755419" stroke-linecap="round"/>
<rect x="701.863" width="221.137" height="188.518" rx="8" fill="#161014"/>
<rect x="702.113" y="0.25" width="220.637" height="188.018" rx="7.75" stroke="#FF21B2" stroke-opacity="0.08" stroke-width="0.5"/>
<rect x="713.863" y="15.4082" width="127" height="14" rx="2" fill="#281E25"/>
<rect x="890.182" y="12" width="20.8176" height="20.8176" rx="2" fill="#FF21B2" fill-opacity="0.08"/>
<g clip-path="url(#clip6_289_3130)">
<path d="M905.931 22.4082H903.795L902.193 27.2148L898.988 17.6016L897.386 22.4082H895.25" stroke="#D8008D" stroke-width="1.28176" stroke-linecap="round" stroke-linejoin="round"/>
</g>
<path d="M713.863 40.8184H908.863" stroke="#313131"/>
<path d="M719.127 69.0968C718.44 69.0968 717.799 68.9576 717.205 68.6791C716.617 68.3944 716.113 68.0046 715.692 67.5095C715.271 67.0082 714.971 66.4327 714.792 65.7829L716.657 65.2816C716.763 65.6777 716.942 66.0212 717.196 66.312C717.456 66.6029 717.759 66.8288 718.105 66.9897C718.452 67.1444 718.811 67.2217 719.182 67.2217C719.671 67.2217 720.114 67.1041 720.51 66.869C720.912 66.6338 721.228 66.3182 721.457 65.9221C721.692 65.5261 721.809 65.0898 721.809 64.6133C721.809 64.1244 721.689 63.6819 721.447 63.2858C721.212 62.8898 720.893 62.5773 720.491 62.3483C720.095 62.1131 719.659 61.9955 719.182 61.9955C718.638 61.9955 718.177 62.1038 717.799 62.3204C717.422 62.537 717.128 62.7877 716.917 63.0723L715.228 62.4782L715.636 55.4512H722.849V57.2799H716.63L717.419 56.5466L717.094 61.8099L716.713 61.3179C717.066 60.9652 717.487 60.696 717.976 60.5103C718.464 60.3246 718.95 60.2318 719.433 60.2318C720.262 60.2318 721.002 60.4237 721.652 60.8073C722.307 61.191 722.824 61.714 723.202 62.3761C723.579 63.0321 723.768 63.7778 723.768 64.6133C723.768 65.4425 723.554 66.1975 723.127 66.8783C722.7 67.5528 722.134 68.0912 721.429 68.4935C720.723 68.8957 719.956 69.0968 719.127 69.0968ZM731.649 68.8184V66.4884H725.615V64.6504L729.96 55.4512H732.178L727.834 64.6504H731.649V61.0301H733.617V64.6504H734.945V66.4884H733.617V68.8184H731.649Z" fill="white"/>
<g clip-path="url(#clip7_289_3130)">
<path d="M753.154 58.1152L748.08 63.1889L745.41 60.5185L741.404 64.524M753.154 58.1152H749.949M753.154 58.1152L753.154 61.3196" stroke="#D8C37D" stroke-width="0.8011" stroke-linecap="round" stroke-linejoin="round"/>
</g>
<path d="M760.422 58.3174V64.3184H759.696V59.0792H759.66L758.195 60.052V59.3136L759.696 58.3174H760.422ZM762.837 63.4979L762.79 63.8144C762.757 64.0371 762.706 64.2754 762.638 64.5293C762.571 64.7833 762.502 65.0226 762.429 65.2472C762.357 65.4719 762.298 65.6506 762.251 65.7834H761.723C761.749 65.6584 761.782 65.4934 761.823 65.2882C761.864 65.0831 761.905 64.8536 761.946 64.5997C761.989 64.3477 762.024 64.0898 762.051 63.8261L762.087 63.4979H762.837ZM765.889 64.4004C765.643 64.3965 765.397 64.3496 765.151 64.2598C764.905 64.1699 764.68 64.0185 764.477 63.8056C764.274 63.5907 764.111 63.3006 763.988 62.9353C763.865 62.5681 763.803 62.1071 763.803 61.5523C763.803 61.021 763.853 60.5502 763.952 60.14C764.052 59.7278 764.197 59.381 764.386 59.0997C764.576 58.8165 764.804 58.6016 765.072 58.4551C765.341 58.3086 765.645 58.2353 765.983 58.2353C766.319 58.2353 766.618 58.3027 766.88 58.4375C767.143 58.5704 767.358 58.7559 767.524 58.9943C767.69 59.2326 767.798 59.507 767.847 59.8176H767.132C767.065 59.5481 766.936 59.3244 766.745 59.1466C766.553 58.9689 766.299 58.88 765.983 58.88C765.518 58.88 765.152 59.0822 764.884 59.4865C764.619 59.8909 764.485 60.4584 764.483 61.1889H764.53C764.639 61.0229 764.769 60.8813 764.919 60.7641C765.072 60.6449 765.24 60.5531 765.423 60.4886C765.607 60.4242 765.801 60.3919 766.006 60.3919C766.35 60.3919 766.665 60.4779 766.95 60.6498C767.235 60.8197 767.464 61.0551 767.636 61.356C767.808 61.6548 767.893 61.9977 767.893 62.3845C767.893 62.7556 767.81 63.0955 767.644 63.4041C767.478 63.7108 767.245 63.955 766.944 64.1367C766.645 64.3164 766.294 64.4043 765.889 64.4004ZM765.889 63.7558C766.135 63.7558 766.356 63.6942 766.551 63.5712C766.749 63.4481 766.904 63.283 767.017 63.076C767.133 62.8689 767.19 62.6384 767.19 62.3845C767.19 62.1364 767.135 61.9107 767.023 61.7076C766.914 61.5025 766.762 61.3394 766.569 61.2182C766.378 61.0971 766.159 61.0366 765.913 61.0366C765.727 61.0366 765.554 61.0737 765.394 61.1479C765.234 61.2202 765.093 61.3198 764.972 61.4468C764.853 61.5738 764.759 61.7193 764.691 61.8834C764.622 62.0455 764.588 62.2165 764.588 62.3962C764.588 62.6345 764.644 62.8572 764.755 63.0643C764.869 63.2713 765.023 63.4383 765.218 63.5653C765.416 63.6923 765.639 63.7558 765.889 63.7558ZM772.105 63.1932V62.8767C772.105 62.6579 772.15 62.4577 772.24 62.276C772.331 62.0924 772.464 61.9459 772.638 61.8365C772.814 61.7252 773.027 61.6695 773.277 61.6695C773.531 61.6695 773.744 61.7252 773.916 61.8365C774.088 61.9459 774.218 62.0924 774.305 62.276C774.393 62.4577 774.437 62.6579 774.437 62.8767V63.1932C774.437 63.412 774.392 63.6132 774.302 63.7968C774.215 63.9785 774.084 64.125 773.91 64.2363C773.738 64.3457 773.527 64.4004 773.277 64.4004C773.023 64.4004 772.809 64.3457 772.635 64.2363C772.461 64.125 772.33 63.9785 772.24 63.7968C772.15 63.6132 772.105 63.412 772.105 63.1932ZM772.703 62.8767V63.1932C772.703 63.3748 772.746 63.538 772.832 63.6825C772.917 63.8251 773.066 63.8964 773.277 63.8964C773.482 63.8964 773.627 63.8251 773.711 63.6825C773.797 63.538 773.84 63.3748 773.84 63.1932V62.8767C773.84 62.6951 773.798 62.5329 773.716 62.3903C773.634 62.2458 773.488 62.1735 773.277 62.1735C773.072 62.1735 772.924 62.2458 772.834 62.3903C772.747 62.5329 772.703 62.6951 772.703 62.8767ZM769.116 59.759V59.4426C769.116 59.2238 769.161 59.0236 769.251 58.8419C769.343 58.6583 769.476 58.5118 769.649 58.4024C769.825 58.291 770.038 58.2353 770.288 58.2353C770.542 58.2353 770.755 58.291 770.927 58.4024C771.099 58.5118 771.229 58.6583 771.317 58.8419C771.405 59.0236 771.449 59.2238 771.449 59.4426V59.759C771.449 59.9778 771.404 60.179 771.314 60.3626C771.226 60.5443 771.095 60.6908 770.921 60.8022C770.749 60.9116 770.538 60.9663 770.288 60.9663C770.034 60.9663 769.82 60.9116 769.646 60.8022C769.473 60.6908 769.341 60.5443 769.251 60.3626C769.161 60.179 769.116 59.9778 769.116 59.759ZM769.714 59.4426V59.759C769.714 59.9407 769.757 60.1038 769.843 60.2484C769.929 60.391 770.077 60.4623 770.288 60.4623C770.493 60.4623 770.638 60.391 770.722 60.2484C770.808 60.1038 770.851 59.9407 770.851 59.759V59.4426C770.851 59.2609 770.81 59.0988 770.728 58.9562C770.646 58.8116 770.499 58.7393 770.288 58.7393C770.083 58.7393 769.936 58.8116 769.846 58.9562C769.758 59.0988 769.714 59.2609 769.714 59.4426ZM769.339 64.3184L773.464 58.3174H774.133L770.007 64.3184H769.339ZM778.329 61.3179C778.329 60.5795 778.424 59.9007 778.616 59.2814C778.809 58.6602 779.085 58.0888 779.442 57.5673H780.051C779.911 57.7607 779.779 57.999 779.656 58.2822C779.535 58.5635 779.428 58.8731 779.337 59.2111C779.245 59.5471 779.172 59.8948 779.12 60.2542C779.069 60.6137 779.043 60.9682 779.043 61.3179C779.043 61.7828 779.088 62.2545 779.178 62.7331C779.268 63.2117 779.389 63.6561 779.542 64.0664C779.694 64.4766 779.864 64.8106 780.051 65.0685H779.442C779.085 64.5469 778.809 63.9765 778.616 63.3573C778.424 62.7361 778.329 62.0563 778.329 61.3179ZM782.83 63.2635V59.3957H783.486V63.2635H782.83ZM781.224 61.6578V61.0014H785.092V61.6578H781.224ZM788.43 64.4004C788.043 64.4004 787.699 64.334 787.396 64.2012C787.095 64.0683 786.856 63.8837 786.678 63.6474C786.502 63.409 786.406 63.1326 786.391 62.8181H787.129C787.145 63.0115 787.211 63.1785 787.329 63.3192C787.446 63.4579 787.599 63.5653 787.789 63.6415C787.978 63.7177 788.188 63.7558 788.419 63.7558C788.676 63.7558 788.905 63.7108 789.104 63.621C789.303 63.5311 789.46 63.4061 789.573 63.2459C789.686 63.0857 789.743 62.9002 789.743 62.6892C789.743 62.4685 789.688 62.2741 789.579 62.1061C789.469 61.9361 789.309 61.8033 789.098 61.7076C788.887 61.6119 788.63 61.564 788.325 61.564H787.844V60.9194H788.325C788.563 60.9194 788.772 60.8764 788.952 60.7904C789.133 60.7045 789.275 60.5834 789.377 60.4271C789.48 60.2708 789.532 60.0872 789.532 59.8762C789.532 59.6731 789.487 59.4963 789.397 59.3459C789.307 59.1955 789.18 59.0783 789.016 58.9943C788.854 58.9103 788.663 58.8683 788.442 58.8683C788.235 58.8683 788.04 58.9064 787.856 58.9825C787.674 59.0568 787.526 59.1652 787.411 59.3078C787.295 59.4484 787.233 59.6184 787.223 59.8176H786.52C786.532 59.5031 786.626 59.2277 786.804 58.9913C786.982 58.753 787.214 58.5674 787.501 58.4346C787.791 58.3018 788.108 58.2353 788.454 58.2353C788.825 58.2353 789.143 58.3106 789.409 58.461C789.675 58.6094 789.879 58.8058 790.021 59.0499C790.164 59.2941 790.235 59.5578 790.235 59.8411C790.235 60.179 790.146 60.4672 789.969 60.7055C789.793 60.9438 789.553 61.1089 789.251 61.2007V61.2476C789.63 61.3101 789.926 61.4712 790.139 61.731C790.351 61.9889 790.458 62.3083 790.458 62.6892C790.458 63.0154 790.369 63.3084 790.191 63.5682C790.015 63.8261 789.775 64.0293 789.47 64.1777C789.166 64.3262 788.819 64.4004 788.43 64.4004ZM793.145 61.3179C793.145 62.0563 793.048 62.7361 792.855 63.3573C792.663 63.9765 792.389 64.5469 792.031 65.0685H791.422C791.563 64.8751 791.693 64.6368 791.815 64.3535C791.938 64.0722 792.045 63.7636 792.137 63.4276C792.229 63.0896 792.3 62.741 792.351 62.3815C792.404 62.0201 792.43 61.6656 792.43 61.3179C792.43 60.853 792.385 60.3812 792.295 59.9026C792.205 59.424 792.084 58.9796 791.932 58.5694C791.779 58.1592 791.609 57.8251 791.422 57.5673H792.031C792.389 58.0888 792.663 58.6602 792.855 59.2814C793.048 59.9007 793.145 60.5795 793.145 61.3179Z" fill="#D8C37D"/>
<path opacity="0.48" d="M909.895 167.076V120.995H905.481L901.435 118.351L895.919 108.531L890.402 99.0883L884.885 96.4443H880.104L876.426 99.0883L872.38 105.509L869.438 109.664L867.599 110.797L865.76 110.42L858.772 96.4443L855.462 93.0449L852.887 93.4226L849.945 98.3329L847.002 105.887L845.531 109.664L844.06 113.441L842.589 116.463L841.118 117.218L839.647 116.085L837.808 111.93L833.394 103.243L831.188 102.11L827.877 104.376L824.567 107.398L821.257 108.153L817.211 108.909L813.534 113.819L811.695 118.351L808.017 125.15L806.546 127.417L804.339 128.55L802.132 128.172L799.558 125.528L790.363 100.977L787.053 97.5774L784.846 97.1997L781.536 99.0883L776.755 105.887L772.341 110.42L765.721 114.574L762.411 118.729L760.94 121.751L757.63 125.906L755.423 126.661H753.216L749.906 124.017L746.964 119.485L742.918 114.574L740.343 112.686H738.504L735.562 115.33L731.884 118.351H729.31L727.471 116.841L721.954 113.064L719.012 112.686L714.23 113.819L713.863 176.519H909.895L909.895 167.076Z" fill="url(#paint3_linear_289_3130)"/>
<path d="M714.234 114.237L715.652 113.599C717.07 112.961 719.906 111.685 722.742 113.221C725.577 114.756 728.413 119.103 731.249 118.609C734.084 118.116 736.92 112.783 739.756 112.668C742.592 112.553 745.427 117.657 748.263 121.555C751.099 125.453 753.934 128.146 756.77 126.43C759.606 124.715 762.441 118.591 765.277 115.481C768.113 112.372 770.949 112.276 773.784 109.601C776.62 106.926 779.456 101.672 782.291 99.0102C785.127 96.3488 787.963 96.2806 790.799 101.868C793.634 107.455 796.47 118.698 799.306 124.254C802.141 129.81 804.977 129.679 807.813 125.569C810.649 121.459 813.484 113.369 816.32 110.267C819.156 107.165 821.991 109.052 824.827 107.239C827.663 105.427 830.499 99.9154 833.334 102.995C836.17 106.076 839.006 117.747 841.841 117.152C844.677 116.556 847.513 103.694 850.349 97.5507C853.184 91.4073 856.02 91.9829 858.856 96.6456C861.691 101.308 864.527 110.058 867.363 110.821C870.199 111.584 873.034 104.36 875.87 100.59C878.706 96.8195 881.541 96.5036 884.377 96.8081C887.213 97.1127 890.049 98.0377 892.884 102.238C895.72 106.437 898.556 113.912 901.391 117.572C904.227 121.232 907.063 121.078 908.481 121.001L909.899 120.924" stroke="#D8C37D" stroke-width="0.755419"/>
<defs>
<linearGradient id="paint0_linear_289_3130" x1="110.5" y1="66.8033" x2="110.5" y2="174.759" gradientUnits="userSpaceOnUse">
<stop stop-color="#5EB28C"/>
<stop offset="1" stop-color="#59A784" stop-opacity="0"/>
</linearGradient>
<linearGradient id="paint1_linear_289_3130" x1="341.213" y1="58.0387" x2="341.213" y2="175.385" gradientUnits="userSpaceOnUse">
<stop stop-color="#5EB28C"/>
<stop offset="1" stop-color="#59A784" stop-opacity="0"/>
</linearGradient>
<linearGradient id="paint2_linear_289_3130" x1="579.943" y1="68.54" x2="579.943" y2="175.284" gradientUnits="userSpaceOnUse">
<stop stop-color="#AA4849"/>
<stop offset="1" stop-color="#AA4849" stop-opacity="0"/>
</linearGradient>
<linearGradient id="paint3_linear_289_3130" x1="813.9" y1="74.1418" x2="813.9" y2="177.059" gradientUnits="userSpaceOnUse">
<stop stop-color="#F4DF9A"/>
<stop offset="1" stop-color="#D8C37D" stop-opacity="0"/>
</linearGradient>
<clipPath id="clip0_289_3130">
<rect width="12.8176" height="12.8176" fill="white" transform="translate(192.318 17.7578)"/>
</clipPath>
<clipPath id="clip1_289_3130">
<rect width="12.8176" height="12.8176" fill="white" transform="translate(47.0059 56.668)"/>
</clipPath>
<clipPath id="clip2_289_3130">
<rect width="12.8176" height="12.8176" fill="white" transform="translate(426.273 17.1328)"/>
</clipPath>
<clipPath id="clip3_289_3130">
<rect width="12.8176" height="12.8176" fill="white" transform="translate(281.961 56.043)"/>
</clipPath>
<clipPath id="clip4_289_3130">
<rect width="12.8176" height="12.8176" fill="white" transform="translate(660.227 17.0312)"/>
</clipPath>
<clipPath id="clip5_289_3130">
<rect width="12.8176" height="12.8176" fill="white" transform="translate(503.914 55.9414)"/>
</clipPath>
<clipPath id="clip6_289_3130">
<rect width="12.8176" height="12.8176" fill="white" transform="translate(894.182 16)"/>
</clipPath>
<clipPath id="clip7_289_3130">
<rect width="12.8176" height="12.8176" fill="white" transform="translate(740.869 54.9102)"/>
</clipPath>
</defs>
</svg>
