<svg width="32" height="32" viewBox="0 0 32 32" fill="none" xmlns="http://www.w3.org/2000/svg">
<path d="M29.3327 16.0003H26.026C25.4433 15.9991 24.8762 16.1887 24.4115 16.5403C23.9468 16.8918 23.61 17.3859 23.4527 17.947L20.3193 29.0937C20.2992 29.1629 20.257 29.2237 20.1993 29.267C20.1416 29.3103 20.0715 29.3337 19.9993 29.3337C19.9272 29.3337 19.857 29.3103 19.7993 29.267C19.7416 29.2237 19.6995 29.1629 19.6793 29.0937L12.3193 2.90699C12.2992 2.83775 12.257 2.77693 12.1993 2.73366C12.1416 2.69038 12.0715 2.66699 11.9993 2.66699C11.9272 2.66699 11.857 2.69038 11.7993 2.73366C11.7417 2.77693 11.6995 2.83775 11.6793 2.90699L8.54602 14.0537C8.3893 14.6125 8.05452 15.105 7.5925 15.4563C7.13048 15.8077 6.56644 15.9987 5.98602 16.0003H2.66602" stroke="#D8008D" stroke-width="2" stroke-linecap="round" stroke-linejoin="round"/>
</svg>
