<svg width="75" height="75" viewBox="0 0 75 75" fill="none" xmlns="http://www.w3.org/2000/svg">
<foreignObject x="-112.4" y="-112.4" width="299.8" height="299.8"><div xmlns="http://www.w3.org/1999/xhtml" style="backdrop-filter:blur(56.2px);clip-path:url(#bgblur_0_239_5107_clip_path);height:100%;width:100%"></div></foreignObject><g data-figma-bg-blur-radius="112.4">
<rect width="75" height="75" rx="37.5" fill="#6D074A" fill-opacity="0.08"/>
<rect width="75" height="75" rx="37.5" fill="url(#paint0_radial_239_5107)" fill-opacity="0.16"/>
<rect x="0.5" y="0.5" width="74" height="74" rx="37" stroke="white" stroke-opacity="0.06"/>
<path d="M38 44C41.3137 44 44 41.3137 44 38C44 34.6863 41.3137 32 38 32C34.6863 32 32 34.6863 32 38C32 41.3137 34.6863 44 38 44Z" stroke="url(#paint1_linear_239_5107)" stroke-width="1.5" stroke-linecap="round" stroke-linejoin="round"/>
<path d="M52.8 44C52.5338 44.6032 52.4544 45.2724 52.572 45.9212C52.6896 46.57 52.9989 47.1686 53.46 47.64L53.58 47.76C53.9519 48.1315 54.2469 48.5726 54.4482 49.0582C54.6495 49.5438 54.7531 50.0643 54.7531 50.59C54.7531 51.1157 54.6495 51.6362 54.4482 52.1218C54.2469 52.6074 53.9519 53.0485 53.58 53.42C53.2085 53.7919 52.7674 54.0869 52.2818 54.2882C51.7962 54.4895 51.2757 54.5931 50.75 54.5931C50.2243 54.5931 49.7038 54.4895 49.2182 54.2882C48.7326 54.0869 48.2915 53.7919 47.92 53.42L47.8 53.3C47.3286 52.8389 46.73 52.5296 46.0812 52.412C45.4324 52.2944 44.7632 52.3738 44.16 52.64C43.5685 52.8935 43.064 53.3145 42.7086 53.8511C42.3533 54.3877 42.1626 55.0164 42.16 55.66V56C42.16 57.0609 41.7386 58.0783 40.9884 58.8284C40.2383 59.5786 39.2209 60 38.16 60C37.0991 60 36.0817 59.5786 35.3316 58.8284C34.5814 58.0783 34.16 57.0609 34.16 56V55.82C34.1445 55.158 33.9302 54.516 33.545 53.9774C33.1598 53.4388 32.6215 53.0286 32 52.8C31.3968 52.5338 30.7276 52.4544 30.0788 52.572C29.43 52.6896 28.8314 52.9989 28.36 53.46L28.24 53.58C27.8685 53.9519 27.4274 54.2469 26.9418 54.4482C26.4562 54.6495 25.9357 54.7531 25.41 54.7531C24.8843 54.7531 24.3638 54.6495 23.8782 54.4482C23.3926 54.2469 22.9515 53.9519 22.58 53.58C22.2081 53.2085 21.9131 52.7674 21.7118 52.2818C21.5105 51.7962 21.4069 51.2757 21.4069 50.75C21.4069 50.2243 21.5105 49.7038 21.7118 49.2182C21.9131 48.7326 22.2081 48.2915 22.58 47.92L22.7 47.8C23.1611 47.3286 23.4704 46.73 23.588 46.0812C23.7056 45.4324 23.6262 44.7632 23.36 44.16C23.1065 43.5685 22.6855 43.064 22.1489 42.7086C21.6124 42.3533 20.9836 42.1626 20.34 42.16H20C18.9391 42.16 17.9217 41.7386 17.1716 40.9884C16.4214 40.2383 16 39.2209 16 38.16C16 37.0991 16.4214 36.0817 17.1716 35.3316C17.9217 34.5814 18.9391 34.16 20 34.16H20.18C20.842 34.1445 21.484 33.9302 22.0226 33.545C22.5612 33.1598 22.9714 32.6215 23.2 32C23.4662 31.3968 23.5456 30.7276 23.428 30.0788C23.3104 29.43 23.0011 28.8314 22.54 28.36L22.42 28.24C22.0481 27.8685 21.7531 27.4274 21.5518 26.9418C21.3505 26.4562 21.2469 25.9357 21.2469 25.41C21.2469 24.8843 21.3505 24.3638 21.5518 23.8782C21.7531 23.3926 22.0481 22.9515 22.42 22.58C22.7915 22.2081 23.2326 21.9131 23.7182 21.7118C24.2038 21.5105 24.7243 21.4069 25.25 21.4069C25.7757 21.4069 26.2962 21.5105 26.7818 21.7118C27.2674 21.9131 27.7085 22.2081 28.08 22.58L28.2 22.7C28.6714 23.1611 29.27 23.4704 29.9188 23.588C30.5676 23.7056 31.2368 23.6262 31.84 23.36H32C32.5915 23.1065 33.096 22.6855 33.4514 22.1489C33.8067 21.6124 33.9974 20.9836 34 20.34V20C34 18.9391 34.4214 17.9217 35.1716 17.1716C35.9217 16.4214 36.9391 16 38 16C39.0609 16 40.0783 16.4214 40.8284 17.1716C41.5786 17.9217 42 18.9391 42 20V20.18C42.0026 20.8236 42.1933 21.4524 42.5486 21.9889C42.904 22.5255 43.4085 22.9465 44 23.2C44.6032 23.4662 45.2724 23.5456 45.9212 23.428C46.57 23.3104 47.1686 23.0011 47.64 22.54L47.76 22.42C48.1315 22.0481 48.5726 21.7531 49.0582 21.5518C49.5438 21.3505 50.0643 21.2469 50.59 21.2469C51.1157 21.2469 51.6362 21.3505 52.1218 21.5518C52.6074 21.7531 53.0485 22.0481 53.42 22.42C53.7919 22.7915 54.0869 23.2326 54.2882 23.7182C54.4895 24.2038 54.5931 24.7243 54.5931 25.25C54.5931 25.7757 54.4895 26.2962 54.2882 26.7818C54.0869 27.2674 53.7919 27.7085 53.42 28.08L53.3 28.2C52.8389 28.6714 52.5296 29.27 52.412 29.9188C52.2944 30.5676 52.3738 31.2368 52.64 31.84V32C52.8935 32.5915 53.3145 33.096 53.8511 33.4514C54.3877 33.8067 55.0164 33.9974 55.66 34H56C57.0609 34 58.0783 34.4214 58.8284 35.1716C59.5786 35.9217 60 36.9391 60 38C60 39.0609 59.5786 40.0783 58.8284 40.8284C58.0783 41.5786 57.0609 42 56 42H55.82C55.1764 42.0026 54.5477 42.1933 54.0111 42.5486C53.4745 42.904 53.0535 43.4085 52.8 44Z" stroke="url(#paint2_linear_239_5107)" stroke-width="1.5" stroke-linecap="round" stroke-linejoin="round"/>
</g>
<defs>
<clipPath id="bgblur_0_239_5107_clip_path" transform="translate(112.4 112.4)"><rect width="75" height="75" rx="37.5"/>
</clipPath><radialGradient id="paint0_radial_239_5107" cx="0" cy="0" r="1" gradientUnits="userSpaceOnUse" gradientTransform="translate(37.5 37.5) rotate(90) scale(27.5)">
<stop stop-color="#5E1545"/>
<stop offset="1" stop-color="#FF21B2" stop-opacity="0"/>
</radialGradient>
<linearGradient id="paint1_linear_239_5107" x1="60" y1="38" x2="16" y2="38" gradientUnits="userSpaceOnUse">
<stop stop-color="#FF21B2"/>
<stop offset="1" stop-color="#FF21B2" stop-opacity="0"/>
</linearGradient>
<linearGradient id="paint2_linear_239_5107" x1="60" y1="38" x2="16" y2="38" gradientUnits="userSpaceOnUse">
<stop stop-color="#FF21B2"/>
<stop offset="1" stop-color="#FF21B2" stop-opacity="0"/>
</linearGradient>
</defs>
</svg>
