<svg width="584" height="438" viewBox="0 0 584 438" fill="none" xmlns="http://www.w3.org/2000/svg">
<path opacity="0.3" fill-rule="evenodd" clip-rule="evenodd" d="M15.3361 -131.277L15.3361 -146H15.9496L15.9496 -131.277L65.6386 -131.277V-146H66.2521V-131.277L115.941 -131.277V-146H116.555V-131.277L166.244 -131.277V-146H166.857V-131.277L216.546 -131.277V-146H217.16V-131.277L266.849 -131.277V-146H267.462V-131.277L317.151 -131.277V-146H317.765V-131.277L367.454 -131.277V-146H368.067V-131.277L417.756 -131.277V-146H418.37V-131.277L468.059 -131.277V-146H468.672V-131.277L518.361 -131.277V-146H518.975V-131.277L568.664 -131.277V-146H569.277V-131.277L584 -131.277V-130.664L569.277 -130.664V-80.9748H584V-80.3614H569.277V-30.6723H584V-30.0589H569.277V19.6302H584V20.2437H569.277V69.9327H584V70.5462H569.277V120.235H584V120.849H569.277L569.277 170.538H584V171.151H569.277V220.84H584V221.454H569.277V271.143H584V271.756H569.277V321.445H584V322.059H569.277V371.748H584V372.361H569.277V422.05H584V422.664H569.277V438H568.664V422.664H518.975V438H518.361V422.664H468.672V438H468.059V422.664H418.37V438H417.756V422.664H368.067V438H367.454V422.664H317.765V438H317.151V422.664H267.462V438H266.849V422.664H217.16V438H216.546V422.664H166.857V438H166.244V422.664H116.555V438H115.941V422.664H66.2521V438H65.6387V422.664H15.9496L15.9496 438H15.3362L15.3362 422.664H3.74614e-05L3.74221e-05 422.05H15.3362L15.3362 372.361H3.74614e-05L3.74221e-05 371.748H15.3362L15.3362 322.059H3.74614e-05L3.74221e-05 321.445H15.3362L15.3362 271.756H0V271.143H15.3362L15.3362 221.454H0V220.84H15.3362L15.3361 171.151H0V170.538H15.3361L15.3361 120.849H0V120.235H15.3361L15.3361 70.5462H0V69.9328H15.3361L15.3361 20.2437H0V19.6303H15.3361L15.3361 -30.0588H0V-30.6723H15.3361L15.3361 -80.3613H0V-80.9748H15.3361L15.3361 -130.664L0 -130.664V-131.277L15.3361 -131.277ZM15.9496 -130.664L15.9496 -80.9748L65.6387 -80.9748L65.6386 -130.664L15.9496 -130.664ZM66.2521 -130.664V-80.9748L115.941 -80.9748V-130.664L66.2521 -130.664ZM116.555 -130.664V-80.9748H166.244V-130.664L116.555 -130.664ZM166.857 -130.664V-80.9748L216.546 -80.9748V-130.664L166.857 -130.664ZM217.16 -130.664V-80.9748H266.849V-130.664L217.16 -130.664ZM267.462 -130.664V-80.9748L317.151 -80.9748V-130.664L267.462 -130.664ZM317.765 -130.664V-80.9748L367.454 -80.9748V-130.664L317.765 -130.664ZM368.067 -130.664V-80.9748H417.756V-130.664L368.067 -130.664ZM418.37 -130.664V-80.9748L468.059 -80.9748V-130.664L418.37 -130.664ZM468.672 -130.664V-80.9748H518.361V-130.664L468.672 -130.664ZM518.975 -130.664V-80.9748L568.664 -80.9748V-130.664L518.975 -130.664ZM568.664 -80.3614L518.975 -80.3614V-30.6723L568.664 -30.6723V-80.3614ZM568.664 -30.0589L518.975 -30.0589V19.6302H568.664V-30.0589ZM568.664 20.2437H518.975V69.9327H568.664V20.2437ZM568.664 70.5462H518.975V120.235H568.664V70.5462ZM568.664 120.849H518.975L518.975 170.538H568.664L568.664 120.849ZM568.664 171.151H518.975V220.84H568.664V171.151ZM568.664 221.454H518.975V271.143H568.664V221.454ZM568.664 271.756H518.975V321.445H568.664V271.756ZM568.664 322.059H518.975V371.748H568.664V322.059ZM568.664 372.361H518.975V422.05H568.664V372.361ZM518.361 422.05V372.361H468.672V422.05H518.361ZM468.059 422.05V372.361H418.37V422.05H468.059ZM417.756 422.05V372.361H368.067V422.05H417.756ZM367.454 422.05V372.361H317.765V422.05H367.454ZM317.151 422.05V372.361L267.462 372.361V422.05H317.151ZM266.849 422.05V372.361H217.16V422.05H266.849ZM216.546 422.05V372.361H166.857V422.05H216.546ZM166.244 422.05V372.361H116.555V422.05H166.244ZM115.941 422.05V372.361H66.2521L66.2521 422.05H115.941ZM65.6387 422.05V372.361H15.9496L15.9496 422.05H65.6387ZM15.9496 371.748H65.6387V322.059H15.9496L15.9496 371.748ZM15.9496 321.445H65.6387V271.756H15.9496L15.9496 321.445ZM15.9496 271.143H65.6387L65.6387 221.454H15.9496L15.9496 271.143ZM15.9496 220.84H65.6387V171.151H15.9496L15.9496 220.84ZM15.9496 170.538H65.6387V120.849H15.9496L15.9496 170.538ZM15.9496 120.235H65.6387V70.5462H15.9496L15.9496 120.235ZM15.9496 69.9328H65.6387L65.6387 20.2437H15.9496L15.9496 69.9328ZM15.9496 19.6303H65.6387V-30.0588L15.9496 -30.0588L15.9496 19.6303ZM15.9496 -30.6723L65.6387 -30.6723V-80.3613H15.9496L15.9496 -30.6723ZM66.2521 -80.3613V-30.6723H115.941L115.941 -80.3614L66.2521 -80.3613ZM116.555 -80.3614L116.555 -30.6723H166.244V-80.3614L116.555 -80.3614ZM166.857 -80.3614V-30.6723L216.546 -30.6723V-80.3614H166.857ZM217.16 -80.3614V-30.6723H266.849V-80.3614L217.16 -80.3614ZM267.462 -80.3614V-30.6723L317.151 -30.6723V-80.3614L267.462 -80.3614ZM317.765 -80.3614V-30.6723H367.454V-80.3614H317.765ZM368.067 -80.3614V-30.6723L417.756 -30.6723V-80.3614L368.067 -80.3614ZM418.37 -80.3614V-30.6723H468.059V-80.3614H418.37ZM468.672 -80.3614V-30.6723H518.361V-80.3614L468.672 -80.3614ZM518.361 -30.0589H468.672V19.6302L518.361 19.6302V-30.0589ZM518.361 20.2437L468.672 20.2437V69.9327L518.361 69.9327V20.2437ZM518.361 70.5462L468.672 70.5462V120.235H518.361V70.5462ZM518.361 120.849L468.672 120.849L468.672 170.538H518.361V120.849ZM518.361 171.151H468.672V220.84H518.361V171.151ZM518.361 221.454H468.672V271.143H518.361V221.454ZM518.361 271.756H468.672V321.445H518.361V271.756ZM518.361 322.059H468.672V371.748H518.361V322.059ZM468.059 371.748V322.059H418.37V371.748H468.059ZM417.756 371.748V322.059H368.067V371.748H417.756ZM367.454 371.748V322.059H317.765V371.748H367.454ZM317.151 371.748V322.059L267.462 322.059V371.748L317.151 371.748ZM266.849 371.748V322.059H217.16V371.748H266.849ZM216.546 371.748V322.059H166.857V371.748H216.546ZM166.244 371.748V322.059H116.555L116.555 371.748H166.244ZM115.941 371.748L115.941 322.059H66.2521V371.748H115.941ZM66.2521 321.445H115.941V271.756H66.2521V321.445ZM66.2521 271.143H115.941V221.454H66.2521V271.143ZM66.2521 220.84H115.941V171.151H66.2521V220.84ZM66.2521 170.538H115.941L115.941 120.849L66.2521 120.849L66.2521 170.538ZM66.2521 120.235H115.941V70.5462L66.2521 70.5462V120.235ZM66.2521 69.9328L115.941 69.9328V20.2437L66.2521 20.2437L66.2521 69.9328ZM66.2521 19.6303L115.941 19.6302V-30.0588H66.2521V19.6303ZM116.555 -30.0588V19.6302H166.244V-30.0588H116.555ZM166.857 -30.0588V19.6302H216.546V-30.0588L166.857 -30.0588ZM217.16 -30.0588V19.6302H266.849V-30.0588H217.16ZM267.462 -30.0588V19.6302L317.151 19.6302V-30.0588L267.462 -30.0588ZM317.765 -30.0588V19.6302H367.454V-30.0588H317.765ZM368.067 -30.0588V19.6302H417.756V-30.0589L368.067 -30.0588ZM418.37 -30.0589V19.6302H468.059V-30.0589H418.37ZM468.059 20.2437H418.37V69.9327H468.059V20.2437ZM468.059 70.5462H418.37V120.235H468.059V70.5462ZM468.059 120.849H418.37L418.37 170.538H468.059L468.059 120.849ZM468.059 171.151H418.37V220.84H468.059V171.151ZM468.059 221.454H418.37V271.143H468.059V221.454ZM468.059 271.756H418.37V321.445H468.059V271.756ZM417.756 321.445V271.756H368.067V321.445H417.756ZM367.454 321.445V271.756H317.765V321.445H367.454ZM317.151 321.445V271.756L267.462 271.756V321.445L317.151 321.445ZM266.849 321.445V271.756H217.16V321.445H266.849ZM216.546 321.445V271.756H166.857V321.445H216.546ZM166.244 321.445V271.756H116.555V321.445H166.244ZM116.555 271.143H166.244V221.454H116.555V271.143ZM116.555 220.84H166.244V171.151H116.555V220.84ZM116.555 170.538H166.244L166.244 120.849H116.555L116.555 170.538ZM116.555 120.235H166.244V70.5462H116.555V120.235ZM116.555 69.9328H166.244V20.2437H116.555V69.9328ZM166.857 20.2437V69.9328H216.546V20.2437H166.857ZM217.16 20.2437V69.9328H266.849V20.2437H217.16ZM267.462 20.2437V69.9328L317.151 69.9327V20.2437L267.462 20.2437ZM317.765 20.2437V69.9327H367.454V20.2437H317.765ZM368.067 20.2437V69.9327H417.756V20.2437H368.067ZM417.756 70.5462H368.067V120.235H417.756V70.5462ZM417.756 120.849H368.067L368.067 170.538H417.756L417.756 120.849ZM417.756 171.151H368.067V220.84H417.756V171.151ZM417.756 221.454H368.067V271.143H417.756V221.454ZM367.454 271.143V221.454H317.765V271.143H367.454ZM317.151 271.143V221.454L267.462 221.454V271.143L317.151 271.143ZM266.849 271.143V221.454H217.16V271.143H266.849ZM216.546 271.143V221.454H166.857V271.143H216.546ZM166.857 220.84H216.546V171.151H166.857V220.84ZM166.857 170.538H216.546L216.546 120.849H166.857L166.857 170.538ZM166.857 120.235H216.546V70.5462H166.857V120.235ZM217.16 70.5462V120.235H266.849V70.5462H217.16ZM267.462 70.5462V120.235L317.151 120.235V70.5462L267.462 70.5462ZM317.765 70.5462V120.235H367.454V70.5462H317.765ZM367.454 120.849H317.765L317.765 170.538H367.454L367.454 120.849ZM367.454 171.151H317.765V220.84H367.454V171.151ZM317.151 220.84V171.151L267.462 171.151V220.84L317.151 220.84ZM266.849 220.84V171.151H217.16V220.84H266.849ZM217.16 170.538H266.849L266.849 120.849H217.16L217.16 170.538ZM267.462 120.849L267.462 170.538L317.151 170.538L317.151 120.849H267.462Z" fill="url(#paint0_radial_6622_9978)" fill-opacity="0.5"/>
<defs>
<radialGradient id="paint0_radial_6622_9978" cx="0" cy="0" r="1" gradientUnits="userSpaceOnUse" gradientTransform="translate(292 146) rotate(180) scale(292)">
<stop stop-color="white"/>
<stop offset="1" stop-color="white" stop-opacity="0"/>
</radialGradient>
</defs>
</svg>
